<svg width="100" height="100" viewBox="0 0 100 100" fill="none" xmlns="http://www.w3.org/2000/svg">
<path d="M67.9894 42.7645C67.8111 42.7645 67.6323 42.7676 67.4526 42.7738C67.1767 33.3862 59.4537 25.8333 50 25.8333C40.5463 25.8333 32.8233 33.3862 32.5474 42.7738C32.3681 42.7676 32.1889 42.7645 32.0106 42.7645C27.9411 42.7645 24.0383 44.3811 21.1608 47.2587C18.2833 50.1362 16.6667 54.039 16.6667 58.1084C16.6667 62.1779 18.2833 66.0807 21.1608 68.9582C24.0383 71.8358 27.9411 73.4524 32.0106 73.4524H67.9894C72.0589 73.4524 75.9617 71.8358 78.8392 68.9582C81.7167 66.0807 83.3333 62.1779 83.3333 58.1084C83.3333 54.039 81.7167 50.1362 78.8392 47.2587C75.9617 44.3811 72.0589 42.7645 67.9894 42.7645V42.7645Z" fill="url(#paint0_linear)"/>
<defs>
<linearGradient id="paint0_linear" x1="30.1606" y1="77.9479" x2="69.8394" y2="38.269" gradientUnits="userSpaceOnUse">
<stop offset="0.015" stop-color="#B7BFD8"/>
<stop offset="1" stop-color="#E4F2EE"/>
</linearGradient>
</defs>
</svg>
