<svg width="123" height="123" viewBox="0 0 123 123" fill="none" xmlns="http://www.w3.org/2000/svg">
<g clip-path="url(#clip0)">
<path d="M80.3164 64.4219C93.5842 64.4219 104.34 53.6662 104.34 40.3984C104.34 27.1307 93.5842 16.375 80.3164 16.375C67.0486 16.375 56.293 27.1307 56.293 40.3984C56.293 53.6662 67.0486 64.4219 80.3164 64.4219Z" fill="url(#paint0_linear)"/>
<path d="M80.3164 10.6094C79.5518 10.6094 78.8186 10.3057 78.2779 9.76502C77.7373 9.22439 77.4336 8.49113 77.4336 7.72656V3.88281C77.4336 3.11824 77.7373 2.38499 78.2779 1.84436C78.8186 1.30372 79.5518 1 80.3164 1C81.081 1 81.8142 1.30372 82.3549 1.84436C82.8955 2.38499 83.1992 3.11824 83.1992 3.88281V7.72656C83.1992 8.49113 82.8955 9.22439 82.3549 9.76502C81.8142 10.3057 81.081 10.6094 80.3164 10.6094Z" fill="#FCE6AA"/>
<path d="M63.0222 15.2445C62.5158 15.2449 62.0182 15.112 61.5796 14.8589C61.141 14.6059 60.7768 14.2417 60.5237 13.803L58.6019 10.4744C58.2256 9.81259 58.1264 9.02885 58.3258 8.29419C58.5253 7.55953 59.0072 6.93358 59.6665 6.55294C60.3258 6.17231 61.1088 6.06788 61.8448 6.26246C62.5808 6.45704 63.2099 6.93482 63.5949 7.59155L65.5168 10.9202C65.7697 11.3583 65.9029 11.8552 65.903 12.361C65.9031 12.8668 65.7702 13.3637 65.5175 13.8019C65.2648 14.24 64.9012 14.604 64.4634 14.8572C64.0255 15.1104 63.5287 15.244 63.0229 15.2445H63.0222Z" fill="#FCE6AA"/>
<path d="M50.3546 27.9062C49.8493 27.9062 49.353 27.7728 48.9159 27.5195L45.5872 25.5976C45.2567 25.4097 44.9666 25.1583 44.7337 24.8578C44.5007 24.5573 44.3295 24.2137 44.2299 23.8468C44.1303 23.4799 44.1042 23.097 44.1532 22.7199C44.2022 22.3429 44.3253 21.9793 44.5154 21.6501C44.7055 21.3208 44.9589 21.0324 45.2609 20.8015C45.5629 20.5706 45.9076 20.4016 46.2752 20.3045C46.6427 20.2073 47.0259 20.1838 47.4025 20.2353C47.7792 20.2868 48.142 20.4123 48.47 20.6046L51.7987 22.5264C52.3486 22.8438 52.7785 23.3338 53.0214 23.9204C53.2644 24.5071 53.3068 25.1575 53.1422 25.7708C52.9776 26.384 52.6151 26.9258 52.1111 27.3119C51.607 27.6981 50.9896 27.907 50.3546 27.9062Z" fill="#FCE6AA"/>
<path d="M113.602 64.4219C113.096 64.4218 112.6 64.2884 112.163 64.0351L108.834 62.1132C108.504 61.9253 108.214 61.6739 107.981 61.3734C107.748 61.0729 107.577 60.7294 107.477 60.3625C107.377 59.9956 107.351 59.6126 107.4 59.2356C107.449 58.8586 107.572 58.495 107.762 58.1657C107.953 57.8365 108.206 57.5481 108.508 57.3171C108.81 57.0862 109.155 56.9173 109.522 56.8201C109.89 56.7229 110.273 56.6994 110.65 56.7509C111.026 56.8024 111.389 56.9279 111.717 57.1202L115.046 59.0421C115.596 59.3594 116.025 59.8494 116.268 60.4361C116.511 61.0227 116.554 61.6732 116.389 62.2864C116.225 62.8997 115.862 63.4414 115.358 63.8276C114.854 64.2137 114.237 64.4226 113.602 64.4219Z" fill="#FCE6AA"/>
<path d="M118.754 45.2031H114.91C114.146 45.2031 113.412 44.8994 112.872 44.3588C112.331 43.8181 112.027 43.0849 112.027 42.3203C112.027 41.5557 112.331 40.8225 112.872 40.2819C113.412 39.7412 114.146 39.4375 114.91 39.4375H118.754C119.518 39.4375 120.252 39.7412 120.792 40.2819C121.333 40.8225 121.637 41.5557 121.637 42.3203C121.637 43.0849 121.333 43.8181 120.792 44.3588C120.252 44.8994 119.518 45.2031 118.754 45.2031Z" fill="#FCE6AA"/>
<path d="M110.278 27.9062C109.643 27.907 109.026 27.6981 108.522 27.3119C108.018 26.9258 107.655 26.384 107.491 25.7708C107.326 25.1575 107.368 24.5071 107.611 23.9204C107.854 23.3338 108.284 22.8438 108.834 22.5264L112.163 20.6046C112.491 20.4123 112.854 20.2868 113.23 20.2353C113.607 20.1838 113.99 20.2073 114.358 20.3045C114.725 20.4016 115.07 20.5706 115.372 20.8015C115.674 21.0324 115.927 21.3208 116.117 21.6501C116.307 21.9793 116.431 22.3429 116.48 22.7199C116.529 23.097 116.503 23.4799 116.403 23.8468C116.303 24.2137 116.132 24.5573 115.899 24.8578C115.666 25.1583 115.376 25.4097 115.046 25.5976L111.717 27.5195C111.28 27.7728 110.783 27.9062 110.278 27.9062Z" fill="#FCE6AA"/>
<path d="M97.6106 15.2445C97.1048 15.244 96.608 15.1104 96.1702 14.8572C95.7323 14.604 95.3688 14.24 95.1161 13.8019C94.8634 13.3637 94.7304 12.8668 94.7305 12.361C94.7307 11.8552 94.8639 11.3583 95.1168 10.9202L97.0386 7.59156C97.2266 7.26106 97.478 6.97099 97.7784 6.73805C98.0789 6.50512 98.4225 6.33391 98.7894 6.2343C99.1563 6.13469 99.5393 6.10863 99.9163 6.15764C100.293 6.20664 100.657 6.32974 100.986 6.51983C101.315 6.70993 101.604 6.96328 101.835 7.26528C102.066 7.56729 102.235 7.912 102.332 8.27955C102.429 8.64711 102.452 9.03026 102.401 9.40694C102.349 9.78362 102.224 10.1464 102.032 10.4744L100.11 13.8031C99.8567 14.2418 99.4924 14.606 99.0536 14.8591C98.6149 15.1122 98.1172 15.2451 97.6106 15.2445Z" fill="#FCE6AA"/>
<path d="M95.2109 64.4219C94.8871 64.4219 94.5623 64.4274 94.2361 64.4387C93.7349 47.3893 79.7086 33.6719 62.5391 33.6719C45.3695 33.6719 31.3432 47.3893 30.8421 64.4387C30.5165 64.4274 30.191 64.4219 29.8672 64.4219C22.4764 64.4219 15.3882 67.3579 10.1621 72.584C4.936 77.8101 2 84.8982 2 92.2891C2 99.6799 4.936 106.768 10.1621 111.994C15.3882 117.22 22.4764 120.156 29.8672 120.156H95.2109C102.602 120.156 109.69 117.22 114.916 111.994C120.142 106.768 123.078 99.6799 123.078 92.2891C123.078 84.8982 120.142 77.8101 114.916 72.584C109.69 67.3579 102.602 64.4219 95.2109 64.4219Z" fill="url(#paint1_linear)"/>
</g>
<defs>
<linearGradient id="paint0_linear" x1="63.3371" y1="57.3777" x2="97.2957" y2="23.4192" gradientUnits="userSpaceOnUse">
<stop offset="0.015" stop-color="#F9CD55"/>
<stop offset="1" stop-color="#FDBC8C"/>
</linearGradient>
<linearGradient id="paint1_linear" x1="26.5073" y1="128.321" x2="98.5709" y2="56.2573" gradientUnits="userSpaceOnUse">
<stop offset="0.015" stop-color="#B7BFD8"/>
<stop offset="1" stop-color="#E4F2EE"/>
</linearGradient>
<clipPath id="clip0">
<rect width="123" height="123" fill="white"/>
</clipPath>
</defs>
</svg>
