<svg width="100" height="100" viewBox="0 0 100 100" fill="none" xmlns="http://www.w3.org/2000/svg">
<path d="M68.8889 40.7777C68.7017 40.7777 68.5139 40.781 68.3252 40.7875C68.0356 30.9305 59.9264 23 50 23C40.0736 23 31.9644 30.9305 31.6748 40.7875C31.4865 40.781 31.2983 40.7777 31.1111 40.7777C26.8381 40.7777 22.7402 42.4752 19.7188 45.4966C16.6974 48.518 15 52.616 15 56.8888C15 61.1618 16.6974 65.2597 19.7188 68.2811C22.7402 71.3026 26.8381 73 31.1111 73H68.8889C73.1619 73 77.2598 71.3026 80.2812 68.2811C83.3026 65.2597 85 61.1618 85 56.8888C85 52.616 83.3026 48.518 80.2812 45.4966C77.2598 42.4752 73.1619 40.7777 68.8889 40.7777Z" fill="#ACACA9"/>
<path d="M67.9892 42.7645C67.8109 42.7645 67.6321 42.7676 67.4524 42.7738C67.1765 33.3862 59.4535 25.8333 49.9998 25.8333C40.5461 25.8333 32.8231 33.3862 32.5472 42.7738C32.3679 42.7676 32.1887 42.7645 32.0104 42.7645C27.9409 42.7645 24.0381 44.3811 21.1606 47.2587C18.2831 50.1362 16.6665 54.039 16.6665 58.1084C16.6665 62.1779 18.2831 66.0807 21.1606 68.9582C24.0381 71.8358 27.9409 73.4524 32.0104 73.4524H67.9892C72.0587 73.4524 75.9615 71.8358 78.839 68.9582C81.7165 66.0807 83.3331 62.1779 83.3331 58.1084C83.3331 54.039 81.7165 50.1362 78.839 47.2587C75.9615 44.3811 72.0587 42.7645 67.9892 42.7645Z" fill="url(#paint0_linear)"/>
<defs>
<linearGradient id="paint0_linear" x1="30.1604" y1="77.9479" x2="69.8392" y2="38.269" gradientUnits="userSpaceOnUse">
<stop offset="0.015" stop-color="#B7BFD8"/>
<stop offset="1" stop-color="#E4F2EE"/>
</linearGradient>
</defs>
</svg>
