<svg width="18" height="29" viewBox="0 0 18 29" fill="none" xmlns="http://www.w3.org/2000/svg">
<path d="M9.02039 0H8.97947C4.0281 0 0 4.0669 0 9.06572C0 12.3424 1.47754 16.6669 4.39157 21.9192C6.55201 25.8131 8.74275 28.7954 8.76469 28.825C8.82567 28.9078 8.92179 28.9565 9.02363 28.9565C9.02652 28.9565 9.02948 28.9565 9.03238 28.9564C9.13744 28.9535 9.23443 28.8991 9.29272 28.8107C9.31433 28.7777 11.4894 25.4602 13.6352 21.4026C16.5315 15.9261 18 11.7752 18 9.06572C17.9998 4.06683 13.9716 0 9.02039 0ZM13.1652 9.28726C13.1652 11.607 11.2967 13.4941 8.99987 13.4941C6.70312 13.4941 4.83459 11.6069 4.83459 9.28726C4.83459 6.96762 6.70312 5.08046 8.99987 5.08046C11.2967 5.08046 13.1652 6.96762 13.1652 9.28726Z" fill="#312C29"/>
</svg>
