<svg width="16" height="16" viewBox="0 0 16 16" fill="none" xmlns="http://www.w3.org/2000/svg">
<path d="M6.7673 13.3333C7.9753 13.3331 9.15529 13.0125 10.1864 12.4127C10.6183 12.1614 11.175 12.188 11.531 12.5387L14.0393 15.0097C14.366 15.3316 14.8907 15.3316 15.2175 15.0097V15.0097C15.5512 14.6809 15.5512 14.1425 15.2175 13.8137L12.746 11.3789C12.3819 11.0203 12.3546 10.4485 12.6154 10.009C13.2144 8.99942 13.5343 7.84661 13.5346 6.66667C13.5346 2.99083 10.4986 0 6.7673 0C3.03598 0 0 2.99083 0 6.66667C0 10.3425 3.03598 13.3333 6.7673 13.3333ZM6.7673 1.66667C9.56642 1.66667 11.8428 3.90917 11.8428 6.66667C11.8428 9.42417 9.56642 11.6667 6.7673 11.6667C3.96817 11.6667 1.69182 9.42417 1.69182 6.66667C1.69182 3.90917 3.96817 1.66667 6.7673 1.66667Z" fill="#312C29"/>
</svg>
