<svg width="27" height="27" viewBox="0 0 27 27" fill="none"
  xmlns="http://www.w3.org/2000/svg">
  <path d="M13.1133 0.474855C5.86816 0.471925 0 6.33718 0 13.5765C0 19.3011 3.6709 24.1673 8.7832 25.9544C9.47168 26.1273 9.36621 25.638 9.36621 25.304V23.0335C5.39063 23.4993 5.22949 20.8685 4.96289 20.429C4.42383 19.5091 3.14941 19.2747 3.53027 18.8353C4.43555 18.3694 5.3584 18.9525 6.42773 20.5316C7.20117 21.6771 8.70996 21.4837 9.47461 21.2933C9.6416 20.6048 9.99902 19.9896 10.4912 19.512C6.37207 18.7737 4.65527 16.2601 4.65527 13.2718C4.65527 11.8216 5.13281 10.4886 6.07031 9.41336C5.47266 7.6409 6.12598 6.12331 6.21387 5.89773C7.91602 5.74538 9.68555 7.11648 9.82324 7.22488C10.79 6.96414 11.8945 6.82644 13.1309 6.82644C14.373 6.82644 15.4805 6.96999 16.4561 7.23367C16.7871 6.98171 18.4277 5.80398 20.0098 5.94753C20.0947 6.17312 20.7334 7.65554 20.1709 9.40457C21.1201 10.4827 21.6035 11.8274 21.6035 13.2806C21.6035 16.2747 19.875 18.7913 15.7441 19.5179C16.098 19.8658 16.3789 20.2808 16.5705 20.7386C16.7622 21.1963 16.8607 21.6877 16.8604 22.1839V25.4798C16.8838 25.7435 16.8604 26.0042 17.2998 26.0042C22.4883 24.2552 26.2236 19.3538 26.2236 13.5794C26.2236 6.33718 20.3525 0.474855 13.1133 0.474855V0.474855Z"/>
</svg>
