<svg width="16" height="16" viewBox="0 0 16 16" fill="none" xmlns="http://www.w3.org/2000/svg">
<path d="M6.7673 13.3333C8.26877 13.333 9.72698 12.8379 10.9097 11.9267L14.6284 15.59L15.8245 14.4117L12.1058 10.7483C13.0313 9.58305 13.5342 8.1462 13.5346 6.66667C13.5346 2.99083 10.4986 0 6.7673 0C3.03598 0 0 2.99083 0 6.66667C0 10.3425 3.03598 13.3333 6.7673 13.3333ZM6.7673 1.66667C9.56642 1.66667 11.8428 3.90917 11.8428 6.66667C11.8428 9.42417 9.56642 11.6667 6.7673 11.6667C3.96817 11.6667 1.69182 9.42417 1.69182 6.66667C1.69182 3.90917 3.96817 1.66667 6.7673 1.66667Z" fill="#312C29"/>
</svg>
