<?xml version="1.0" encoding="utf-8"?>
<!-- Generator: Adobe Illustrator 24.0.1, SVG Export Plug-In . SVG Version: 6.00 Build 0)  -->
<svg version="1.1" id="Layer_1" xmlns="http://www.w3.org/2000/svg" xmlns:xlink="http://www.w3.org/1999/xlink" x="0px" y="0px"
	 viewBox="0 0 424.9 55.5" style="enable-background:new 0 0 424.9 55.5;" xml:space="preserve">
<style type="text/css">
	.st0{fill:#151515;}
</style>
<g>
	<title>weatherapp-logo</title>
	<path class="st0" d="M73.9,2.5L60.3,44H49.9l-9.1-28.1L31.4,44H21.1L7.5,2.5h10l9.4,29.2l9.8-29.2h8.9L55,31.9l9.7-29.4H73.9z"/>
	<path class="st0" d="M107.3,30.7H83.1c0.4,1.9,1.5,3.6,3.1,4.7c1.8,1.2,3.9,1.8,6,1.7c1.5,0,3-0.2,4.4-0.7c1.3-0.5,2.6-1.3,3.6-2.3
		l4.9,5.3c-3,3.4-7.4,5.2-13.2,5.2c-3.3,0.1-6.6-0.7-9.6-2.1c-2.7-1.3-4.9-3.3-6.4-5.8c-1.5-2.6-2.3-5.5-2.3-8.5
		c0-3,0.7-5.9,2.2-8.5c1.5-2.5,3.6-4.5,6.1-5.9c5.4-2.8,11.8-2.8,17.2-0.1c2.5,1.3,4.6,3.3,6,5.8c1.5,2.7,2.2,5.7,2.2,8.8
		C107.5,28.3,107.4,29.1,107.3,30.7z M85.6,20.4c-1.4,1.2-2.4,3-2.6,4.9h15.7c-0.2-1.9-1.2-3.6-2.6-4.8c-1.5-1.2-3.3-1.9-5.2-1.8
		C89,18.6,87.1,19.2,85.6,20.4z"/>
	<path class="st0" d="M137,15.2c2.7,2.4,4,5.9,4,10.6V44h-8.7v-4c-1.7,3-5,4.4-9.7,4.5c-2.2,0.1-4.4-0.4-6.4-1.3
		c-1.7-0.7-3.1-1.9-4.1-3.4c-1-1.5-1.5-3.2-1.4-5c-0.1-2.7,1.1-5.4,3.4-7c2.2-1.7,5.7-2.6,10.4-2.6h7.4c0.1-1.7-0.6-3.5-1.8-4.7
		c-1.2-1.1-3.1-1.6-5.5-1.6c-1.7,0-3.4,0.3-5,0.8c-1.5,0.5-2.9,1.2-4.2,2.2l-3.3-6.5c1.9-1.3,4-2.3,6.3-2.9c2.4-0.7,5-1,7.5-1
		C130.6,11.6,134.3,12.8,137,15.2z M129.1,37.2c1.2-0.7,2.1-1.9,2.6-3.2v-3.3h-6.4c-3.8,0-5.7,1.2-5.7,3.7c0,1.1,0.5,2.2,1.4,2.8
		c1.1,0.7,2.5,1.1,3.8,1C126.4,38.3,127.8,37.9,129.1,37.2z"/>
	<path class="st0" d="M169.9,42.5c-1,0.7-2.1,1.2-3.4,1.5c-1.4,0.3-2.8,0.5-4.2,0.5c-3.8,0-6.7-1-8.8-2.9s-3.1-4.8-3.1-8.5V19.9
		h-4.9v-7.1h4.9V5h9.3v7.8h8v7.1h-8v13c-0.1,1.1,0.3,2.2,1,3.1c0.8,0.8,1.8,1.2,2.9,1.1c1.3,0,2.7-0.4,3.7-1.2L169.9,42.5z"/>
	<path class="st0" d="M204.1,15.2c2.4,2.4,3.7,5.9,3.6,10.6V44h-9.3V27.2c0-2.5-0.6-4.4-1.7-5.7c-1.2-1.3-3-2-4.8-1.9
		c-2.1-0.1-4.1,0.7-5.6,2.2c-1.4,1.4-2.1,3.6-2.1,6.4V44h-9.3V0h9.3v15.4c1.3-1.2,2.8-2.2,4.4-2.8c1.8-0.7,3.7-1,5.7-1
		C198.1,11.5,201.5,12.7,204.1,15.2z"/>
	<path class="st0" d="M247.6,30.7h-24.1c0.4,1.9,1.5,3.6,3.1,4.7c1.8,1.2,3.9,1.8,6.1,1.7c1.5,0,3-0.2,4.4-0.7
		c1.3-0.5,2.6-1.3,3.6-2.3l4.9,5.3c-3,3.4-7.4,5.2-13.2,5.2c-3.3,0.1-6.6-0.7-9.6-2.1c-2.7-1.3-4.9-3.3-6.4-5.8
		c-1.5-2.6-2.3-5.5-2.3-8.5c0-3,0.7-5.9,2.2-8.5c1.5-2.5,3.6-4.5,6.1-5.9c5.4-2.8,11.8-2.8,17.2-0.1c2.5,1.3,4.6,3.3,6,5.8
		c1.5,2.7,2.2,5.7,2.2,8.8C247.7,28.3,247.7,29.1,247.6,30.7z M225.9,20.4c-1.4,1.2-2.4,3-2.6,4.9h15.7c-0.2-1.9-1.2-3.6-2.6-4.8
		c-1.5-1.2-3.3-1.9-5.2-1.8C229.3,18.6,227.4,19.2,225.9,20.4z"/>
	<path class="st0" d="M267.2,12.8c2.1-0.8,4.3-1.2,6.5-1.2v8.5c-1-0.1-1.7-0.1-2.1-0.1c-2.3-0.1-4.5,0.7-6.2,2.2
		c-1.5,1.5-2.3,3.7-2.3,6.7V44h-9.2V12.1h8.8v4.2C263.9,14.7,265.4,13.5,267.2,12.8z"/>
	<path class="st0" d="M324.3,35.1h-19.3l-3.7,8.9h-9.8l18.5-41.5h9.5L338,44h-10.1L324.3,35.1z M321.3,27.8l-6.6-15.9l-6.6,15.9
		H321.3z"/>
	<path class="st0" d="M368.7,13.7c2.4,1.3,4.4,3.3,5.7,5.8c2.8,5.4,2.8,11.8,0,17.3c-1.3,2.4-3.3,4.4-5.7,5.8
		c-2.5,1.4-5.3,2.1-8.1,2c-4.1,0-7.3-1.3-9.6-3.9v14.9h-9.3V12.1h8.8v3.7c2.3-2.8,5.6-4.2,10-4.1C363.4,11.6,366.2,12.3,368.7,13.7z
		 M364.8,34.5c3-3.8,3-9.1,0-12.9c-3.2-3.2-8.4-3.2-11.7,0c-3,3.8-3,9.1,0,12.9C356.3,37.7,361.6,37.7,364.8,34.5z"/>
	<path class="st0" d="M409.6,13.7c2.4,1.3,4.4,3.3,5.7,5.8c2.8,5.4,2.8,11.8,0,17.3c-1.3,2.4-3.3,4.4-5.7,5.8
		c-2.5,1.4-5.3,2.1-8.1,2c-4.1,0-7.3-1.3-9.6-3.9v14.9h-9.3V12.1h8.8v3.7c2.3-2.8,5.6-4.1,10-4.1C404.3,11.6,407.1,12.3,409.6,13.7z
		 M405.7,34.5c3-3.8,3-9.1,0-12.9c-3.2-3.2-8.4-3.2-11.7,0c-3,3.8-3,9.1,0,12.9C397.3,37.7,402.5,37.7,405.7,34.5z"/>
</g>
</svg>
