<svg width="700" height="450" viewBox="0 0 700 450" fill="none" xmlns="http://www.w3.org/2000/svg">
<g clip-path="url(#clip0)">
<path opacity="0.1" d="M614.39 286.344C593.887 312.464 601.865 350.629 614.879 381.19C619.233 391.421 624.166 402.251 622.326 413.22C620.077 426.64 608.143 436.453 595.612 441.657C572.769 451.137 545.427 448.875 524.454 435.776C506.314 424.455 493.319 406.038 474.872 395.238C443.997 377.154 404.691 383.985 371.15 396.448C347.427 405.264 321.496 416.723 297.924 407.515C281.34 401.035 269.877 385.255 263.629 368.532C260.614 360.461 258.425 351.718 252.666 345.317C249.241 341.511 244.772 338.813 240.195 336.538C198.399 315.743 145.609 326.857 105.013 303.818C77.5931 288.244 60.0448 258.864 52.2717 228.231C44.4986 197.598 45.3971 165.453 47.369 133.906C48.7741 111.484 51.2888 87.5484 65.5686 70.2444C80.6445 51.9361 106.575 45.1295 130.027 48.6084C153.479 52.0874 174.694 64.4906 193.382 79.0961C216.731 97.3499 238.392 120.081 267.061 127.499C286.611 132.515 307.114 129.756 327.261 128.8C360.929 127.202 394.608 130.754 428.083 134.632C460.134 138.347 492.415 142.443 522.952 152.904C544.559 160.31 561.884 173.748 582.285 183.156C595.582 189.273 610.085 190.967 622.688 198.76C638.198 208.362 652.418 225.06 648.444 244.603C644.663 263.166 625.257 272.483 614.39 286.344Z" fill="#162E8F"/>
<path opacity="0.1" d="M173.813 450C243.826 450 300.583 441.329 300.583 430.633C300.583 419.937 243.826 411.266 173.813 411.266C103.8 411.266 47.0432 419.937 47.0432 430.633C47.0432 441.329 103.8 450 173.813 450Z" fill="#162E8F"/>
<path d="M581.121 60.1888C597.687 60.1888 611.116 46.7151 611.116 30.0944C611.116 13.4737 597.687 0 581.121 0C564.555 0 551.126 13.4737 551.126 30.0944C551.126 46.7151 564.555 60.1888 581.121 60.1888Z" fill="#FFDF9C"/>
<path d="M115.548 311.06C115.548 311.06 118.666 315.15 114.113 321.346C109.56 327.541 105.803 332.696 107.316 336.55C107.316 336.55 114.185 325.091 119.781 324.927C125.377 324.764 121.699 317.951 115.548 311.06Z" fill="#162E8F"/>
<path opacity="0.1" d="M115.548 311.06C115.821 311.455 116.036 311.887 116.187 312.343C121.614 318.774 124.551 324.776 119.305 324.927C114.42 325.067 108.559 333.833 107.154 336.048C107.201 336.218 107.257 336.386 107.323 336.55C107.323 336.55 114.191 325.091 119.787 324.927C125.383 324.764 121.699 317.951 115.548 311.06Z" fill="black"/>
<path d="M121.337 316.269C121.337 317.709 121.174 318.877 120.975 318.877C120.776 318.877 120.614 317.709 120.614 316.269C120.614 314.829 120.813 315.507 121.012 315.507C121.211 315.507 121.337 314.829 121.337 316.269Z" fill="#FFD037"/>
<path d="M123.327 317.988C122.067 318.677 120.969 319.095 120.873 318.919C120.776 318.744 121.723 318.042 122.983 317.358C124.244 316.675 123.743 317.171 123.84 317.358C123.936 317.546 124.587 317.298 123.327 317.988Z" fill="#FFD037"/>
<path d="M99.067 311.06C99.067 311.06 95.9494 315.15 100.502 321.346C105.055 327.541 108.836 332.696 107.317 336.55C107.317 336.55 100.448 325.091 94.8518 324.927C89.2557 324.764 92.9402 317.951 99.067 311.06Z" fill="#162E8F"/>
<path opacity="0.1" d="M99.067 311.06C98.7944 311.455 98.5791 311.887 98.4278 312.343C93.0005 318.774 90.0637 324.776 95.3101 324.927C100.195 325.067 106.056 333.833 107.461 336.048C107.414 336.218 107.358 336.386 107.292 336.55C107.292 336.55 100.448 325.085 94.8458 324.927C89.2436 324.77 92.9402 317.951 99.067 311.06Z" fill="black"/>
<path d="M93.296 316.269C93.296 317.709 93.4588 318.877 93.6578 318.877C93.8568 318.877 94.0197 317.709 94.0197 316.269C94.0197 314.829 93.8207 315.507 93.6217 315.507C93.4227 315.507 93.296 314.829 93.296 316.269Z" fill="#FFD037"/>
<path d="M91.312 317.988C92.5723 318.677 93.6698 319.095 93.7663 318.919C93.8628 318.744 92.916 318.042 91.6557 317.358C90.3954 316.675 90.8959 317.171 90.7994 317.358C90.7029 317.546 90.0215 317.298 91.312 317.988Z" fill="#FFD037"/>
<path d="M94.291 336.012C94.291 336.012 103.005 335.745 105.628 333.864C108.251 331.982 119.027 329.75 119.679 332.757C120.33 335.764 132.771 347.719 122.935 347.798C113.1 347.876 100.086 346.261 97.463 344.658C94.8398 343.054 94.291 336.012 94.291 336.012Z" fill="#A8A8A8"/>
<path opacity="0.2" d="M123.11 346.757C113.275 346.836 100.261 345.22 97.6379 343.617C95.6418 342.407 94.8458 338.02 94.5805 336H94.291C94.291 336 94.8398 343.048 97.463 344.651C100.086 346.255 113.1 347.87 122.935 347.792C125.775 347.792 126.752 346.757 126.698 345.256C126.306 346.17 125.221 346.739 123.11 346.757Z" fill="black"/>
<path d="M407.284 69.8936H288.106V110.237H407.284V69.8936Z" fill="#E2E7F0"/>
<path opacity="0.4" d="M326.863 71.4424H296.561V108.573H326.863V71.4424Z" fill="white"/>
<path d="M320.749 82.5508H302.971V96.878H320.749V82.5508Z" fill="#D8E2F0"/>
<path opacity="0.4" d="M363.576 71.4424H333.274V108.573H363.576V71.4424Z" fill="white"/>
<path d="M357.461 82.5508H339.684V96.878H357.461V82.5508Z" fill="#D8E2F0"/>
<path opacity="0.4" d="M400.289 71.4424H369.986V108.573H400.289V71.4424Z" fill="white"/>
<path d="M394.174 82.5508H376.397V96.878H394.174V82.5508Z" fill="#D8E2F0"/>
<path opacity="0.1" d="M407.29 69.8936V72.9187H288.782H288.112V69.8936H407.29Z" fill="black"/>
<path d="M401.591 46.6239L385.725 34.3478H308.706L294.076 46.515H294.155C289.493 48.796 279.495 52.5654 267.7 50.1876C267.7 50.1876 268.303 71.2428 288.806 71.2428H408.062C408.062 71.2428 425.2 72.0172 427.703 50.1876C418.838 51.4728 409.792 50.2382 401.591 46.6239V46.6239Z" fill="#162E8F"/>
<path d="M434.143 152.311H265.716V209.33H434.143V152.311Z" fill="#E2E7F0"/>
<path opacity="0.4" d="M320.483 149.831H277.656V202.305H320.483V149.831Z" fill="white"/>
<path d="M311.836 165.531H286.713V185.776H311.836V165.531Z" fill="#D8E2F0"/>
<path opacity="0.4" d="M372.368 149.831H329.541V202.305H372.368V149.831Z" fill="white"/>
<path d="M363.727 165.531H338.604V185.776H363.727V165.531Z" fill="#D8E2F0"/>
<path opacity="0.4" d="M424.259 149.831H381.432V202.305H424.259V149.831Z" fill="white"/>
<path d="M415.612 165.531H390.49V185.776H415.612V165.531Z" fill="#D8E2F0"/>
<path d="M454.315 272.126H249.651V344.016H454.315V272.126Z" fill="#162E8F"/>
<path d="M454.315 272.126H249.651V344.016H454.315V272.126Z" fill="#E2E7F0"/>
<path d="M332.833 272.126H271.065V342.364H332.833V272.126Z" fill="#D8E2F0"/>
<path opacity="0.4" d="M320.483 272.126H283.421V342.364H320.483V272.126Z" fill="white"/>
<path d="M310.189 282.46H291.658V332.454H310.189V282.46Z" fill="#D8E2F0"/>
<path d="M432.081 272.126H370.312V342.364H432.081V272.126Z" fill="#D8E2F0"/>
<path opacity="0.4" d="M419.731 272.126H382.668V342.364H419.731V272.126Z" fill="white"/>
<path d="M409.431 282.46H390.9V332.454H409.431V282.46Z" fill="#D8E2F0"/>
<path d="M480.673 340.713V272.132C486.101 272.041 516.976 269.639 521.854 227.093C521.854 227.093 495.134 232.381 466.056 219.494L432.081 193.212H267.362L236.064 219.228H236.233C226.265 224.105 204.875 232.139 179.651 227.093C179.651 227.093 180.808 269.113 220.422 271.969V340.713H480.673ZM220.422 340.713H480.673H220.422ZM466.261 340.713H234.828H466.261ZM234.828 340.713V272.126H466.261V340.713" fill="#162E8F"/>
<path opacity="0.1" d="M434.143 152.311H265.716V159.632H434.143V152.311Z" fill="black"/>
<path d="M429.868 120.741L407.067 102.142H288.04L267.133 120.559H267.253C260.198 124.014 245.074 129.695 227.218 126.113C227.218 126.113 228.092 157.98 259.124 157.98H439.631C439.631 157.98 465.561 159.148 469.354 126.113C469.33 126.113 450.443 129.858 429.868 120.741Z" fill="#162E8F"/>
<path opacity="0.1" d="M454.11 271.92H249.446V274.008H454.11V271.92Z" fill="black"/>
<path opacity="0.2" d="M236.269 219.452H466.056C466.056 219.452 366.814 227.813 236.269 219.452Z" fill="#312C29"/>
<path opacity="0.1" d="M265.505 120.287H429.819C429.819 120.287 358.854 128.654 265.505 120.287Z" fill="black"/>
<path opacity="0.1" d="M293.92 46.3335H401.79C401.79 46.3335 355.218 54.7011 293.92 46.3335Z" fill="black"/>
<path d="M653.859 340.114H81.1509V355.609H653.859V340.114Z" fill="#D8E2F0"/>
<path d="M125.914 210.201L129.756 221.164L126.807 239.569C126.807 239.569 122.35 254.253 122.796 261.35C123.243 268.447 122.796 278.261 122.796 278.261C122.796 278.261 112.099 297.84 120.987 305.851C123.056 307.708 124.793 307.339 126.234 305.669C127.683 306.476 129.175 307.203 130.702 307.847L123.219 337.004L116.091 351.246C116.091 351.246 100.961 364.158 95.1654 391.312C95.1654 391.312 89.3884 409.396 85.7038 414.793C85.536 415.046 85.3527 415.289 85.1551 415.519C84.5781 414.598 84.0507 413.647 83.5751 412.669L76.8935 430.47C76.8935 430.47 90.2628 438.032 99.6219 441.148C108.981 444.264 119.679 440.701 122.796 436.701C125.914 432.702 116.555 428.231 109.873 425.575C106.629 424.28 104.862 421.206 103.891 418.381C103.807 417.51 103.735 416.53 103.704 415.471C103.56 410.419 104.307 403.6 108.529 398.427C116.115 389.085 127.699 365.973 127.699 365.973C127.699 365.973 139.283 353.515 141.961 348.621L158.008 321.745C166.908 331.837 175.827 355.687 175.827 355.687L179.391 377.469C179.391 377.469 190.976 408.616 194.546 411.732C194.648 411.816 194.745 411.919 194.841 412.016L194.931 412.113L195.143 412.361L195.227 412.47C195.317 412.585 195.414 412.712 195.504 412.839L195.571 412.936L195.788 413.262L195.89 413.426L196.077 413.746L196.168 413.898L196.421 414.37L196.511 414.545L196.686 414.896L196.789 415.102L196.97 415.489L197.042 415.652L197.277 416.197L197.368 416.409L197.525 416.802L197.609 417.02L197.808 417.534L197.856 417.661L198.061 418.224L198.134 418.435L198.29 418.883L198.357 419.071L198.562 419.676V419.76L198.737 420.317L198.797 420.505L198.954 421.013L198.99 421.14L199.177 421.745L199.213 421.872L199.352 422.368L199.4 422.55L199.527 423.022L199.563 423.155L199.708 423.687L199.774 423.947L199.84 424.207L199.919 424.522V424.607C200.021 425.018 200.118 425.405 200.202 425.756L200.305 426.204L200.353 426.416V426.47C199.698 426.035 199.076 425.554 198.489 425.03C198.749 427.991 198.749 430.969 198.489 433.93C198.043 438.377 202.5 444.609 202.5 444.609C202.5 444.609 242.607 434.82 244.833 428.146C247.058 421.473 237.705 422.362 235.027 423.251C232.35 424.141 219.071 421.569 217.262 418.454C216.923 417.878 216.518 417.344 216.056 416.862C215.672 416.441 215.158 416.162 214.598 416.069C214.037 415.975 213.461 416.074 212.962 416.348L212.86 416.239L212.739 416.1L212.661 416.003L212.516 415.816C212.419 415.683 212.323 415.537 212.22 415.386L212.112 415.223C211.935 414.94 211.754 414.636 211.569 414.309L211.533 414.249C208.687 409.039 205.629 398.415 204.9 395.886V395.831L204.839 395.626V395.547V395.493V395.39V395.341L194.588 361.968C197.705 349.952 194.588 344.168 194.588 344.168L188.793 317.026L185.524 304.731C185.627 304.629 185.675 304.562 185.675 304.562C183.009 297.084 180.917 281.22 179.645 268.962C179.56 268.155 179.48 267.377 179.403 266.626L189.269 271.188C189.269 271.188 202.638 291.657 211.105 281.867C219.571 272.078 194.172 263.619 194.172 263.619L178.065 252.94L178.028 252.475L176.219 239.128C176.219 239.128 171.317 223.106 173.548 212.427C175.447 203.352 169.26 200.048 167.385 199.274C167.091 199.161 166.788 199.072 166.48 199.008C164.038 198.403 161.312 195.934 158.997 193.26C157.023 190.965 154.708 188.989 152.134 187.403C153.637 186.402 154.685 184.845 155.047 183.071C155.421 181.02 154.715 178.981 154.088 176.966C154.995 174.737 156.049 172.57 157.242 170.48H157.314C157.499 170.162 157.68 169.861 157.857 169.579C162.562 169.038 166.904 166.781 170.058 163.237C173.211 159.692 174.956 155.108 174.959 150.357C174.96 147.09 174.13 143.876 172.547 141.021C174.543 140.326 176.461 139.448 175.737 137.391C175.248 136 173.928 135.092 172.933 134.021C170.249 131.189 169.429 126.936 166.619 124.226C165.807 123.452 164.866 122.828 163.839 122.38C160.987 120.759 157.332 120.565 154.034 121.17C149.951 121.92 146.146 123.723 142.166 124.885C138.662 125.901 134.996 126.428 131.637 127.862C125.908 130.282 121.5 135.28 118.853 140.912C116.513 145.892 115.427 151.404 112.871 156.274C110.314 161.145 105.634 165.531 100.116 165.35C98.6932 165.301 97.2218 164.956 95.8951 165.453C94.8497 165.91 93.9846 166.701 93.4347 167.703C90.4196 172.64 92.3553 179.29 89.9552 184.553C88.1461 188.468 84.3169 190.943 81.157 193.877C77.9971 196.811 75.2834 201.186 76.7729 205.227C77.1976 206.243 77.8201 207.163 78.604 207.934C79.3879 208.705 80.3174 209.311 81.3379 209.717C82.3811 210.289 83.5058 210.697 84.6727 210.927C87.6878 211.532 90.7573 211.169 93.8026 210.927C102.046 210.322 111.055 210.655 117.598 205.621C120.294 203.546 122.368 200.684 124.527 197.979C124.55 202.091 125.015 206.189 125.914 210.201V210.201ZM137.782 238.184C138.451 239.291 139.133 240.392 139.838 241.481C146.387 251.573 137.504 265.38 137.504 265.38C135.479 267.046 133.738 269.033 132.349 271.261C132.463 267.026 132.952 262.185 134.387 258.706C136.6 253.322 137.468 243.441 137.782 238.184V238.184Z" fill="url(#paint0_linear)"/>
<path d="M131.082 218.841L127.603 240.574C127.603 240.574 123.249 254.919 123.683 261.871C124.117 268.823 123.683 278.388 123.683 278.388C123.683 278.388 113.238 297.513 121.94 305.337C130.642 313.16 133.259 280.56 133.259 280.56C133.259 280.56 131.951 266.645 135.002 259.263C138.053 251.882 138.481 235.794 138.481 235.794L131.082 218.841Z" fill="#FFCDD3"/>
<path opacity="0.05" d="M131.082 218.841L127.603 240.574C127.603 240.574 123.249 254.919 123.683 261.871C124.117 268.823 123.683 278.388 123.683 278.388C123.683 278.388 113.238 297.513 121.94 305.337C130.642 313.16 133.259 280.56 133.259 280.56C133.259 280.56 131.951 266.645 135.002 259.263C138.053 251.882 138.481 235.794 138.481 235.794L131.082 218.841Z" fill="black"/>
<path d="M182.081 293.574L188.111 316.203L193.743 342.715C193.743 342.715 196.789 348.366 193.743 360.098L203.754 392.697C203.754 392.697 209.41 413.559 212.896 413.994C216.381 414.43 209.416 430.512 209.416 430.512L199.84 424.861C199.84 424.861 197.241 411.822 193.743 408.779C190.246 405.736 178.945 375.315 178.945 375.315L175.465 354.017C175.465 354.017 164.611 324.897 155.011 317.945C145.41 310.993 142.389 299.691 142.389 299.691L182.081 293.574Z" fill="#FFCDD3"/>
<path opacity="0.05" d="M142.395 299.685C142.395 299.685 145.44 310.987 155.017 317.939C164.593 324.891 175.471 354.011 175.471 354.011L178.951 375.308C178.951 375.308 190.27 405.736 193.749 408.773C196.306 411.005 198.393 418.629 199.321 422.519C199.659 423.929 199.846 424.855 199.846 424.855L209.422 430.512C209.422 430.512 216.387 414.43 212.902 413.994C212.359 413.928 211.768 413.389 211.153 412.476C207.8 407.599 203.76 392.697 203.76 392.697L193.743 360.098C196.789 348.36 193.743 342.715 193.743 342.715L188.087 316.203L182.057 293.574L142.395 299.685Z" fill="black"/>
<path d="M86.6807 412.688L90.1602 420.946L105.839 419.21C105.356 416.966 105.087 414.681 105.037 412.385C104.898 407.454 105.64 400.793 109.753 395.741C117.152 386.611 128.447 364.013 128.447 364.013C128.447 364.013 139.766 351.845 142.377 347.072L164.195 310.564L163.507 307.285L169.381 301.839H132.837L124.129 335.721L117.158 349.637C117.158 349.637 102.36 362.24 96.7031 388.753C96.7031 388.753 91.0587 406.413 87.4646 411.689C87.2373 412.048 86.9746 412.382 86.6807 412.688Z" fill="#FFCDD3"/>
<path opacity="0.1" d="M199.328 422.525C199.665 423.935 199.852 424.861 199.852 424.861L209.422 430.512C209.422 430.512 216.387 414.43 212.902 413.994C212.359 413.928 211.768 413.389 211.153 412.476C210.697 412.743 210.341 413.153 210.14 413.642C209.938 414.132 209.902 414.674 210.038 415.186C210.174 415.836 210.406 416.462 210.725 417.044C212.034 419.216 206.371 422.695 206.371 422.695C204.478 425.133 201.378 423.844 199.328 422.525Z" fill="black"/>
<path d="M210.484 416.046C210.368 415.505 210.431 414.941 210.665 414.44C210.898 413.938 211.289 413.528 211.777 413.27C212.264 413.012 212.823 412.922 213.367 413.012C213.911 413.102 214.41 413.369 214.789 413.771C215.238 414.242 215.631 414.763 215.959 415.326C217.702 418.351 230.758 420.977 233.369 420.105C235.98 419.234 245.122 418.369 242.945 424.885C240.768 431.401 201.583 440.943 201.583 440.943C201.583 440.943 197.229 434.856 197.663 430.512C197.916 427.619 197.916 424.71 197.663 421.818C197.663 421.818 203.76 427.469 206.805 423.554C206.805 423.554 212.462 420.075 211.159 417.903C210.844 417.321 210.616 416.695 210.484 416.046V416.046Z" fill="#DCE6F2"/>
<path opacity="0.1" d="M86.6807 412.688L90.1602 420.946L105.839 419.21C105.356 416.966 105.087 414.68 105.037 412.385C104.882 412.073 104.654 411.803 104.372 411.599C104.09 411.395 103.764 411.263 103.42 411.213C103.076 411.164 102.725 411.199 102.397 411.316C102.07 411.432 101.775 411.627 101.539 411.883C100.731 412.754 99.9112 413.698 99.3082 414.424C97.5654 416.596 91.909 415.295 91.909 415.295C90.4436 415.779 88.7008 413.668 87.4586 411.72C87.2315 412.067 86.971 412.391 86.6807 412.688V412.688Z" fill="black"/>
<path d="M101.105 412.754C101.366 412.478 101.695 412.276 102.059 412.169C102.423 412.062 102.809 412.054 103.177 412.145C103.545 412.237 103.882 412.425 104.154 412.691C104.425 412.956 104.622 413.289 104.724 413.656C105.514 416.747 107.25 420.741 111.037 422.253C117.568 424.861 126.716 429.205 123.659 433.144C120.601 437.083 110.163 440.531 101.027 437.488C91.891 434.445 78.8292 427.057 78.8292 427.057L85.3601 409.674C85.3601 409.674 88.8577 417.038 91.4688 416.191C91.4688 416.191 97.1253 417.498 98.8681 415.319C99.4771 414.539 100.273 413.625 101.105 412.754Z" fill="#DCE6F2"/>
<path d="M160.245 168.423C160.245 168.423 149.8 182.769 152.405 192.764C155.011 202.759 131.51 186.242 131.51 186.242C131.51 186.242 143.698 175.351 141.521 157.557L160.245 168.423Z" fill="#FFCDD3"/>
<path d="M125.86 304.465C143.269 314.896 164.165 310.552 164.165 310.552L163.73 307.527L164.635 307.611C181.273 309.082 185.06 304.048 185.06 304.048C182.455 296.739 180.416 281.25 179.144 269.276C178.963 267.558 178.794 265.906 178.643 264.363C178.3 260.872 178.04 257.938 177.878 255.947C177.733 254.199 177.66 253.195 177.66 253.195L175.912 240.126C175.912 240.126 171.124 224.48 173.301 214.049C175.152 205.167 169.115 201.948 167.27 201.198C166.982 201.088 166.686 201.001 166.384 200.938C163.972 200.375 161.336 197.913 159.075 195.323C155.777 191.552 151.574 188.688 146.864 187.004C144.674 186.211 142.817 185.364 142.817 185.364C139.772 181.885 131.498 184.057 131.498 184.057C121.488 190.58 126.71 211.889 126.71 211.889L130.871 223.766C133.265 230.348 136.433 236.62 140.309 242.449C146.707 252.305 138.029 265.791 138.029 265.791C124.551 276.646 125.86 304.465 125.86 304.465Z" fill="#FF748E"/>
<path opacity="0.05" d="M163.073 284.257L164.629 307.599C181.267 309.069 185.054 304.036 185.054 304.036C182.449 296.727 180.41 281.238 179.138 269.264C178.957 267.546 178.788 265.894 178.637 264.351L163.073 284.257Z" fill="black"/>
<path opacity="0.1" d="M135.436 223.185C135.436 223.185 143.276 237.96 145.881 244.482C148.486 251.004 148.492 248.826 149.8 251.004C151.109 253.182 165.033 262.742 165.033 262.742L179.138 269.264C178.535 263.65 178.113 258.803 177.872 255.953L164.605 247.114C164.605 247.114 155.463 241.463 155.029 234.075C154.594 226.688 148.932 213.214 148.932 213.214C148.932 213.214 137.607 201.022 132.837 206.673C128.067 212.324 135.436 223.185 135.436 223.185Z" fill="black"/>
<path d="M148.926 211.018C148.926 211.018 154.582 224.492 155.023 231.879C155.463 239.267 164.599 244.918 164.599 244.918L193.327 264.043C193.327 264.043 218.136 272.302 209.869 281.861C201.601 291.421 188.539 271.43 188.539 271.43L165.021 260.54C165.021 260.54 151.091 250.98 149.788 248.802C148.486 246.624 148.48 248.802 145.869 242.28C143.257 235.758 135.424 220.983 135.424 220.983C135.424 220.983 128.025 210.092 132.813 204.465C137.601 198.838 148.926 211.018 148.926 211.018Z" fill="#FFCDD3"/>
<path opacity="0.1" d="M152.411 216.669C152.411 216.669 143.692 210.152 141.961 207.974C141.195 207.012 140.001 207.158 138.909 207.617C136.868 208.484 134.648 208.843 132.439 208.664C130.533 208.501 128.682 208.61 128.905 209.699C129.339 211.871 127.597 198.397 127.597 198.397L134.996 195.789L144.572 201.004L152.411 216.669Z" fill="black"/>
<path d="M152.411 215.797C152.411 215.797 143.692 209.269 141.961 207.109C141.195 206.147 140.001 206.292 138.91 206.752C136.871 207.624 134.654 207.989 132.445 207.817C130.539 207.654 128.688 207.763 128.911 208.852C129.345 211.024 127.603 197.55 127.603 197.55L135.002 194.942L144.578 200.157L152.411 215.797Z" fill="#FF748E"/>
<path opacity="0.1" d="M172.909 216.669C171.337 217.357 169.623 217.657 167.912 217.543C166.2 217.43 164.541 216.906 163.073 216.015" fill="black"/>
<path opacity="0.1" d="M144.355 158.646C144.681 156.05 141.46 161.441 141.093 158.428L159.787 169.319C159.787 169.319 158.719 170.789 157.374 173.106C156.666 173.186 155.953 173.227 155.24 173.227C149.607 173.203 147.822 162.542 144.355 158.646Z" fill="black"/>
<path d="M155.674 172.338C166.132 172.338 174.609 163.873 174.609 153.431C174.609 142.988 166.132 134.523 155.674 134.523C145.216 134.523 136.739 142.988 136.739 153.431C136.739 163.873 145.216 172.338 155.674 172.338Z" fill="#FFCDD3"/>
<path opacity="0.1" d="M164.195 153.757C164.05 154.967 164.08 156.177 163.513 157.254C162.723 158.731 161.017 159.402 159.588 160.28C153.804 163.837 152.086 171.842 153.931 178.37C154.582 180.681 155.614 183.023 155.185 185.388C154.45 189.448 149.818 191.554 145.706 191.911C141.593 192.268 137.263 191.608 133.434 193.121C126.939 195.626 124.093 203.219 118.599 207.454C112.207 212.373 103.403 212.07 95.3584 212.639C92.3794 212.851 89.3642 213.208 86.4395 212.639C83.5148 212.07 80.6323 210.286 79.5951 207.49C78.1357 203.545 80.8011 199.268 83.8766 196.406C86.9521 193.544 90.7211 191.13 92.4699 187.331C94.8157 182.188 92.9221 175.696 95.871 170.874C96.4106 169.894 97.259 169.122 98.2831 168.677C99.5857 168.187 101.027 168.526 102.414 168.575C107.787 168.762 112.376 164.478 114.873 159.723C117.369 154.967 118.43 149.583 120.716 144.718C123.297 139.212 127.603 134.36 133.205 131.97C136.485 130.572 140.061 130.058 143.487 129.06C147.376 127.928 151.091 126.168 155.077 125.43C159.063 124.691 163.58 125.182 166.492 127.995C169.236 130.645 170.038 134.795 172.655 137.567C173.644 138.613 174.917 139.497 175.393 140.858C176.521 144.077 171.039 144.349 169.212 145.638C167.866 146.574 166.727 147.778 165.864 149.175C165.001 150.572 164.433 152.131 164.195 153.757V153.757Z" fill="black"/>
<path d="M163.296 153.328C163.151 154.538 163.182 155.748 162.615 156.825C161.825 158.301 160.118 158.973 158.689 159.85C152.906 163.408 151.187 171.412 153.033 177.94C153.684 180.252 154.715 182.593 154.287 184.959C153.551 189.019 148.92 191.124 144.807 191.481C140.694 191.838 136.365 191.179 132.535 192.691C126.071 195.208 123.225 202.777 117.731 207.012C111.339 211.931 102.534 211.629 94.49 212.197C91.511 212.409 88.4958 212.766 85.5711 212.197C82.6464 211.629 79.7639 209.844 78.7267 207.049C77.2673 203.104 79.9327 198.826 83.0082 195.964C86.0837 193.103 89.8526 190.689 91.6014 186.889C93.9472 181.746 92.0537 175.254 95.0026 170.432C95.5422 169.452 96.3906 168.68 97.4147 168.236C98.7172 167.746 100.159 168.084 101.545 168.133C106.919 168.32 111.508 164.037 114.004 159.281C116.501 154.526 117.562 149.141 119.848 144.276C122.429 138.771 126.734 133.918 132.336 131.528C135.617 130.131 139.193 129.616 142.618 128.618C146.508 127.487 150.222 125.726 154.208 124.988C158.195 124.25 162.711 124.74 165.624 127.553C168.368 130.203 169.17 134.354 171.787 137.125C172.776 138.172 174.048 139.055 174.525 140.416C175.652 143.635 170.171 143.907 168.344 145.196C166.991 146.131 165.845 147.336 164.976 148.735C164.108 150.134 163.536 151.697 163.296 153.328V153.328Z" fill="#2D283D"/>
</g>
<defs>
<linearGradient id="paint0_linear" x1="160.794" y1="444.712" x2="160.794" y2="120.831" gradientUnits="userSpaceOnUse">
<stop stop-color="#808080" stop-opacity="0.25"/>
<stop offset="0.54" stop-color="#808080" stop-opacity="0.12"/>
<stop offset="1" stop-color="#808080" stop-opacity="0.1"/>
</linearGradient>
<clipPath id="clip0">
<rect width="607.859" height="450" fill="white" transform="translate(46)"/>
</clipPath>
</defs>
</svg>
