<svg width="595" height="378" viewBox="0 0 595 378" fill="none" xmlns="http://www.w3.org/2000/svg">
<g clip-path="url(#clip0)">
<path d="M525.99 249.296C523.108 274.065 517.119 293.951 508.9 309.81C497.962 330.941 479.254 339.455 462.541 348.364C457.712 350.933 452.691 353.123 447.524 354.914C417.112 365.501 383.075 362.693 356.338 357.103C337.586 353.179 318.55 350.764 299.414 349.883C293.956 349.637 288.493 349.514 283.024 349.516C274.591 349.527 122.752 352.418 85.7828 277.34C76.6554 258.82 70.3992 236.196 68.1515 208.619C61.7914 130.656 96.7476 79.4516 141.837 45.983C227.134 -17.3283 344.05 -14.6731 428.088 50.3058C484.066 93.5885 536.479 159.094 525.99 249.296Z" fill="#3F3D56"/>
<path d="M508.9 309.81C497.962 330.941 483.082 344.941 466.369 353.85C461.54 356.419 456.519 358.609 451.352 360.4C420.941 370.987 386.903 368.179 360.166 362.589C341.414 358.664 322.378 356.25 303.242 355.369C297.784 355.122 292.321 355 286.852 355.002C278.419 355.013 269.988 355.327 261.559 355.945C206.779 359.983 122.752 352.418 85.7828 277.34L178.281 97.6259L212.707 186.287L223.694 214.588L253.974 172.907L269.609 151.386L340.812 233.273L360.937 188.69L500.27 302.75L508.041 309.108L508.9 309.81Z" fill="#F2F2F2"/>
<path opacity="0.1" d="M165.156 155.226L179.375 123.957L199.062 169.489L182.109 136.575L165.156 155.226Z" fill="black"/>
<path opacity="0.1" d="M303.242 355.369C297.784 355.122 292.321 355 286.852 355.002L223.694 214.588L303.242 355.369Z" fill="black"/>
<path opacity="0.1" d="M253.975 172.906L269.609 160.712L340.703 242.999L268.516 172.781L253.975 172.906Z" fill="black"/>
<path opacity="0.1" d="M466.369 353.85C461.54 356.419 456.519 358.609 451.352 360.399L340.812 233.272L466.369 353.85Z" fill="black"/>
<path d="M263.594 57.5799C264.5 57.5799 265.234 56.8431 265.234 55.9342C265.234 55.0252 264.5 54.2884 263.594 54.2884C262.688 54.2884 261.953 55.0252 261.953 55.9342C261.953 56.8431 262.688 57.5799 263.594 57.5799Z" fill="#F2F2F2"/>
<path d="M218.203 114.083C219.109 114.083 219.844 113.346 219.844 112.438C219.844 111.529 219.109 110.792 218.203 110.792C217.297 110.792 216.562 111.529 216.562 112.438C216.562 113.346 217.297 114.083 218.203 114.083Z" fill="#F2F2F2"/>
<path d="M329.219 123.409C329.823 123.409 330.312 122.918 330.312 122.312C330.312 121.706 329.823 121.215 329.219 121.215C328.615 121.215 328.125 121.706 328.125 122.312C328.125 122.918 328.615 123.409 329.219 123.409Z" fill="#F2F2F2"/>
<path d="M99.5313 148.095C100.135 148.095 100.625 147.604 100.625 146.998C100.625 146.392 100.135 145.901 99.5313 145.901C98.9272 145.901 98.4375 146.392 98.4375 146.998C98.4375 147.604 98.9272 148.095 99.5313 148.095Z" fill="#F2F2F2"/>
<path d="M335.781 55.3856C336.385 55.3856 336.875 54.8944 336.875 54.2884C336.875 53.6825 336.385 53.1913 335.781 53.1913C335.177 53.1913 334.688 53.6825 334.688 54.2884C334.688 54.8944 335.177 55.3856 335.781 55.3856Z" fill="#F2F2F2"/>
<path d="M403.594 108.049C404.198 108.049 404.688 107.558 404.688 106.952C404.688 106.346 404.198 105.855 403.594 105.855C402.99 105.855 402.5 106.346 402.5 106.952C402.5 107.558 402.99 108.049 403.594 108.049Z" fill="#F2F2F2"/>
<path d="M470.312 191.433C470.917 191.433 471.406 190.941 471.406 190.335C471.406 189.729 470.917 189.238 470.312 189.238C469.708 189.238 469.219 189.729 469.219 190.335C469.219 190.941 469.708 191.433 470.312 191.433Z" fill="#F2F2F2"/>
<path d="M167.344 66.4995H165.834V64.9855H165.025V66.4995H163.516V67.312H165.025V68.8255H165.834V67.312H167.344V66.4995Z" fill="#F2F2F2"/>
<path d="M463.75 232.718H462.241V231.204H461.431V232.718H459.922V233.531H461.431V235.044H462.241V233.531H463.75V232.718Z" fill="#F2F2F2"/>
<path d="M595 336.805C595 345.894 461.805 377.4 297.5 377.4C133.195 377.4 0 345.894 0 336.805C0 327.716 133.195 344.485 297.5 344.485C461.805 344.485 595 327.716 595 336.805Z" fill="#3F3D56"/>
<path opacity="0.1" d="M595 336.805C595 345.894 461.805 377.4 297.5 377.4C133.195 377.4 0 345.894 0 336.805C0 327.716 133.195 344.485 297.5 344.485C461.805 344.485 595 327.716 595 336.805Z" fill="black"/>
<path d="M297.5 353.263C461.805 353.263 595 345.894 595 336.805C595 327.716 461.805 320.348 297.5 320.348C133.195 320.348 0 327.716 0 336.805C0 345.894 133.195 353.263 297.5 353.263Z" fill="#3F3D56"/>
<path d="M310.625 313.765C310.625 331.943 302.545 326.931 292.578 326.931C282.611 326.931 274.531 331.943 274.531 313.765C274.531 295.587 292.578 261.102 292.578 261.102C292.578 261.102 310.625 295.587 310.625 313.765Z" fill="#FF6584"/>
<path opacity="0.1" d="M300.781 320.72C300.781 328.983 297.109 326.705 292.578 326.705C288.048 326.705 284.375 328.983 284.375 320.72C284.375 312.457 292.578 296.782 292.578 296.782C292.578 296.782 300.781 312.457 300.781 320.72Z" fill="black"/>
<path d="M312.812 331.868H272.344C269.625 331.868 267.422 334.079 267.422 336.805C267.422 339.532 269.625 341.743 272.344 341.743H312.812C315.531 341.743 317.734 339.532 317.734 336.805C317.734 334.079 315.531 331.868 312.812 331.868Z" fill="#2F2E41"/>
<path d="M312.812 321.994H272.344C269.625 321.994 267.422 324.204 267.422 326.931C267.422 329.658 269.625 331.868 272.344 331.868H312.812C315.531 331.868 317.734 329.658 317.734 326.931C317.734 324.204 315.531 321.994 312.812 321.994Z" fill="#2F2E41"/>
<path d="M74.9219 269.092C74.9219 299.452 93.9091 324.019 117.374 324.019Z" fill="#3F3D56"/>
<path d="M117.374 324.019C117.374 293.318 138.562 268.475 164.747 268.475Z" fill="#162E8F"/>
<path d="M90.303 271.844C90.303 300.683 102.411 324.019 117.374 324.019Z" fill="#162E8F"/>
<path d="M117.374 324.019C117.374 284.79 141.864 253.046 172.13 253.046Z" fill="#3F3D56"/>
<path d="M108.443 324.406C108.443 324.406 114.463 324.22 116.278 322.924C118.092 321.628 125.538 320.081 125.989 322.159C126.439 324.238 135.036 332.497 128.239 332.552C121.442 332.607 112.446 331.49 110.635 330.383C108.824 329.277 108.443 324.406 108.443 324.406Z" fill="#A8A8A8"/>
<path opacity="0.2" d="M128.36 331.828C121.563 331.883 112.567 330.766 110.756 329.66C109.377 328.817 108.828 325.794 108.644 324.398C108.517 324.404 108.443 324.406 108.443 324.406C108.443 324.406 108.824 329.277 110.635 330.383C112.446 331.49 121.442 332.607 128.239 332.552C130.201 332.536 130.879 331.836 130.842 330.799C130.569 331.425 129.821 331.817 128.36 331.828Z" fill="black"/>
<path d="M394.531 289.134C394.531 309.996 407.578 326.877 423.702 326.877Z" fill="#3F3D56"/>
<path d="M423.702 326.877C423.702 305.78 438.262 288.71 456.255 288.71Z" fill="#162E8F"/>
<path d="M405.1 291.025C405.1 310.841 413.42 326.877 423.702 326.877Z" fill="#162E8F"/>
<path d="M423.702 326.877C423.702 299.92 440.531 278.108 461.328 278.108Z" fill="#3F3D56"/>
<path d="M417.565 327.143C417.565 327.143 421.702 327.015 422.949 326.124C424.196 325.234 429.312 324.17 429.622 325.599C429.931 327.027 435.839 332.702 431.168 332.74C426.498 332.778 420.316 332.01 419.072 331.25C417.827 330.49 417.565 327.143 417.565 327.143Z" fill="#A8A8A8"/>
<path opacity="0.2" d="M431.252 332.243C426.581 332.281 420.399 331.513 419.155 330.753C418.207 330.174 417.83 328.096 417.703 327.137C417.616 327.141 417.565 327.143 417.565 327.143C417.565 327.143 417.827 330.49 419.072 331.25C420.316 332.01 426.498 332.778 431.168 332.74C432.516 332.729 432.982 332.248 432.956 331.535C432.769 331.966 432.255 332.235 431.252 332.243Z" fill="black"/>
<path d="M488.804 339.404C488.804 339.404 495.016 338.456 496.734 336.885C498.451 335.315 505.971 332.778 506.696 334.874C507.422 336.97 517.357 344.445 510.324 345.355C503.291 346.266 493.834 346.238 491.82 345.319C489.807 344.401 488.804 339.404 488.804 339.404Z" fill="#A8A8A8"/>
<path opacity="0.2" d="M510.359 344.591C503.326 345.501 493.869 345.474 491.856 344.555C490.322 343.855 489.376 340.792 489.011 339.371C488.88 339.392 488.804 339.404 488.804 339.404C488.804 339.404 489.807 344.401 491.82 345.319C493.834 346.238 503.291 346.266 510.324 345.355C512.354 345.093 512.968 344.282 512.801 343.213C512.596 343.896 511.87 344.395 510.359 344.591Z" fill="black"/>
<path d="M335.923 338.953C335.923 338.953 341.166 338.153 342.616 336.827C344.065 335.502 350.411 333.361 351.024 335.13C351.636 336.899 360.021 343.207 354.085 343.976C348.15 344.744 340.168 344.721 338.469 343.945C336.77 343.17 335.923 338.953 335.923 338.953Z" fill="#A8A8A8"/>
<path opacity="0.2" d="M354.115 343.33C348.179 344.099 340.198 344.075 338.499 343.3C337.205 342.71 336.406 340.125 336.098 338.925C335.987 338.943 335.923 338.953 335.923 338.953C335.923 338.953 336.77 343.17 338.469 343.945C340.168 344.721 348.15 344.744 354.085 343.976C355.798 343.754 356.317 343.07 356.175 342.167C356.003 342.744 355.39 343.165 354.115 343.33Z" fill="black"/>
<path d="M66.9315 336.327C66.9315 336.327 71.0131 335.704 72.1415 334.672C73.2699 333.641 78.2103 331.973 78.687 333.351C79.1637 334.728 85.6912 339.639 81.0704 340.237C76.4496 340.835 70.2363 340.817 68.9133 340.213C67.5903 339.61 66.9315 336.327 66.9315 336.327Z" fill="#A8A8A8"/>
<path opacity="0.2" d="M81.0936 339.735C76.4729 340.333 70.2595 340.315 68.9365 339.711C67.929 339.251 67.3071 337.239 67.0676 336.305C66.9814 336.319 66.9315 336.327 66.9315 336.327C66.9315 336.327 67.5903 339.61 68.9133 340.213C70.2363 340.817 76.4496 340.835 81.0704 340.237C82.4042 340.064 82.808 339.532 82.6977 338.829C82.5636 339.278 82.0864 339.606 81.0936 339.735Z" fill="black"/>
<path opacity="0.1" d="M209.834 329.869C209.834 346.447 186.797 341.32 158.592 341.32C130.386 341.32 107.692 346.447 107.692 329.869C107.692 313.291 130.725 309.685 158.931 309.685C187.137 309.685 209.834 313.291 209.834 329.869Z" fill="black"/>
<path d="M209.834 325.787C209.834 342.365 186.797 337.238 158.592 337.238C130.386 337.238 107.692 342.365 107.692 325.787C107.692 309.209 130.725 305.604 158.931 305.604C187.137 305.604 209.834 309.209 209.834 325.787Z" fill="#3F3D56"/>
<path d="M214.225 249.833C212.866 250.53 211.574 251.351 210.366 252.286C209.153 253.229 208.224 254.491 207.683 255.931C207.003 254.334 206.447 252.687 206.021 251.005C205.063 247.985 203.93 245.024 202.626 242.137C204.766 241.319 206.62 239.893 207.962 238.032C210.587 240.653 213.286 243.387 214.591 246.864C214.816 247.463 215.471 248.101 215.623 248.638C215.838 249.396 214.799 249.517 214.225 249.833Z" fill="#FFBFC5"/>
<path d="M238.925 313.735C241.792 314.643 244.466 316.079 246.81 317.967C246.987 318.078 247.115 318.252 247.168 318.454C247.228 318.909 246.622 319.095 246.181 319.222C244.887 319.596 244.06 320.816 243.107 321.77C242.154 322.725 240.622 323.474 239.51 322.712C239.218 322.487 238.963 322.218 238.755 321.914L234.058 315.763C235.65 314.87 237.325 314.133 239.059 313.561" fill="#F1F1F1"/>
<path d="M247.37 315.015C247.991 315.651 248.262 316.567 248.872 317.215C249.282 317.607 249.751 317.934 250.262 318.182L253.856 320.166C254.408 320.494 254.989 320.769 255.592 320.989C256.27 321.179 256.959 321.323 257.655 321.421C258.651 321.609 259.625 321.897 260.563 322.282C261.268 322.572 262.054 323.071 262.05 323.835C262.022 324.208 261.87 324.561 261.619 324.838C260.202 326.629 257.694 327.026 255.427 327.266C250.521 327.786 245.5 328.177 240.704 327.017C239.768 326.844 238.883 326.459 238.116 325.893C236.669 324.69 236.381 322.499 236.922 320.693C237.074 320 237.483 319.392 238.064 318.988C238.824 318.551 239.771 318.754 240.644 318.687C241.572 318.56 242.472 318.272 243.303 317.837C243.851 317.589 244.483 317.269 244.6 316.615C244.709 316.008 243.998 315.4 244.148 314.858C244.479 313.656 246.796 314.428 247.37 315.015Z" fill="#575A89"/>
<path opacity="0.1" d="M247.37 315.015C247.991 315.651 248.262 316.567 248.872 317.215C249.282 317.607 249.751 317.934 250.262 318.182L253.856 320.166C254.408 320.494 254.989 320.769 255.592 320.989C256.27 321.179 256.959 321.323 257.655 321.421C258.651 321.609 259.625 321.897 260.563 322.282C261.268 322.572 262.054 323.071 262.05 323.835C262.022 324.208 261.87 324.561 261.619 324.838C260.202 326.629 257.694 327.026 255.427 327.266C250.521 327.786 245.5 328.177 240.704 327.017C239.768 326.844 238.883 326.459 238.116 325.893C236.669 324.69 236.381 322.499 236.922 320.693C237.074 320 237.483 319.392 238.064 318.988C238.824 318.551 239.771 318.754 240.644 318.687C241.572 318.56 242.472 318.272 243.303 317.837C243.851 317.589 244.483 317.269 244.6 316.615C244.709 316.008 243.998 315.4 244.148 314.858C244.479 313.656 246.796 314.428 247.37 315.015Z" fill="black"/>
<path d="M255.708 334.707C256.212 335.04 256.715 335.373 257.218 335.707C257.681 335.954 258.062 336.331 258.315 336.792C258.642 337.564 258.2 338.437 257.707 339.115C256.23 341.142 254.213 342.709 251.888 343.639C251.082 343.975 250.23 344.188 249.361 344.271C249.162 344.302 248.958 344.276 248.773 344.197C248.313 343.953 248.379 343.293 248.374 342.771C248.358 341.256 247.217 340.026 246.192 338.913C245.167 337.801 244.122 336.431 244.357 334.934C244.57 334.053 245.02 333.248 245.658 332.606C246.226 331.891 246.892 331.261 247.637 330.734C248.703 330.034 249.079 330.41 250.082 331.052C251.967 332.256 253.842 333.475 255.708 334.707Z" fill="#F1F1F1"/>
<path d="M250.802 342.087C251.212 342.191 251.642 342.197 252.055 342.103C252.468 342.01 252.854 341.82 253.18 341.549C253.828 341.001 254.354 340.323 254.724 339.558C255.091 338.877 255.411 338.171 255.68 337.446C255.996 336.597 256.289 335.658 257.032 335.142C257.934 334.518 259.204 334.762 260.12 335.365C260.984 336.041 261.778 336.803 262.488 337.64C264.392 339.421 266.7 340.709 269.212 341.393C271.714 342.071 274.25 342.615 276.809 343.022C277.32 343.091 277.815 343.251 278.271 343.494C279.299 344.124 279.642 345.529 279.356 346.703C278.993 347.861 278.342 348.908 277.463 349.744C276.772 350.566 275.915 351.232 274.948 351.698C274.13 351.997 273.269 352.161 272.399 352.182C268.184 352.469 263.95 352.137 259.832 351.195C258.319 350.783 256.779 350.474 255.225 350.272C254.277 350.188 253.322 350.215 252.373 350.15C250.486 350.021 248.64 349.532 246.935 348.711C246.52 348.559 246.169 348.267 245.943 347.886C245.821 347.535 245.795 347.157 245.87 346.793L246.499 341.263C246.554 340.782 246.714 340.183 247.191 340.108C247.645 340.037 247.975 340.503 248.261 340.864C248.815 341.53 249.574 341.992 250.419 342.177C251.263 342.363 252.145 342.261 252.926 341.888" fill="#575A89"/>
<path d="M214.302 272.36C217.068 272.048 220.276 271.995 222.146 274.063C223.293 275.331 223.641 277.108 224.038 278.773C224.659 281.57 225.668 284.265 227.035 286.78C227.915 288.338 228.981 289.801 229.656 291.458C230.348 293.157 230.603 294.996 231.007 296.786C232.629 303.859 236.587 310.174 242.238 314.705C241.24 317.428 238.354 318.983 235.547 319.678C234.952 319.932 234.289 319.977 233.666 319.806C233.042 319.636 232.494 319.26 232.109 318.738C230.796 317.317 229.572 315.813 228.446 314.238C224.4 308.818 220.292 303.283 218.088 296.883C217.315 294.637 216.541 292.015 214.365 291.076C213.124 290.541 211.705 290.708 210.373 290.935C207.396 291.441 204.467 292.196 201.616 293.19C198.575 294.251 195.094 295.557 192.312 293.933C190.647 292.962 189.656 291.097 189.29 289.2C189.015 287.285 189.012 285.34 189.283 283.424C189.301 282.557 189.508 281.705 189.89 280.927C190.275 280.345 190.769 279.844 191.344 279.451C193.829 277.557 196.593 276.064 199.536 275.024C202.347 274.03 205.369 273.693 208.302 273.201C210.294 272.868 212.294 272.587 214.302 272.36Z" fill="#575A89"/>
<path opacity="0.1" d="M214.302 272.36C217.068 272.048 220.276 271.995 222.146 274.063C223.293 275.331 223.641 277.108 224.038 278.773C224.659 281.57 225.668 284.265 227.035 286.78C227.915 288.338 228.981 289.801 229.656 291.458C230.348 293.157 230.603 294.996 231.007 296.786C232.629 303.859 236.587 310.174 242.238 314.705C241.24 317.428 238.354 318.983 235.547 319.678C234.952 319.932 234.289 319.977 233.666 319.806C233.042 319.636 232.494 319.26 232.109 318.738C230.796 317.317 229.572 315.813 228.446 314.238C224.4 308.818 220.292 303.283 218.088 296.883C217.315 294.637 216.541 292.015 214.365 291.076C213.124 290.541 211.705 290.708 210.373 290.935C207.396 291.441 204.467 292.196 201.616 293.19C198.575 294.251 195.094 295.557 192.312 293.933C190.647 292.962 189.656 291.097 189.29 289.2C189.015 287.285 189.012 285.34 189.283 283.424C189.301 282.557 189.508 281.705 189.89 280.927C190.275 280.345 190.769 279.844 191.344 279.451C193.829 277.557 196.593 276.064 199.536 275.024C202.347 274.03 205.369 273.693 208.302 273.201C210.294 272.868 212.294 272.587 214.302 272.36Z" fill="black"/>
<path d="M230.136 292.368C231.419 293.018 232.597 293.857 233.631 294.859C234.698 296.12 235.509 297.579 236.017 299.152C236.245 299.677 236.384 300.237 236.43 300.807C236.451 301.093 236.406 301.38 236.3 301.646C236.194 301.912 236.03 302.15 235.818 302.343C235.306 302.673 234.698 302.822 234.092 302.766C233.29 302.773 232.488 302.752 231.687 302.703C231.2 302.7 230.718 302.608 230.263 302.432C229.846 302.219 229.471 301.934 229.153 301.59C227.743 300.277 226.589 298.712 225.748 296.977C225.167 295.693 224.211 292.733 225.125 291.396C226.067 290.019 229.141 291.802 230.136 292.368Z" fill="#FFBFC5"/>
<path d="M191.356 291.91C195.446 293.224 199.801 293.375 204.078 293.775C211.272 294.45 218.378 295.859 225.287 297.981C226.729 298.333 228.088 298.968 229.286 299.849C230.21 300.706 230.993 301.705 231.605 302.809C232.729 304.526 233.747 306.312 234.653 308.155C235.43 309.82 236.022 311.566 236.745 313.255C239.174 318.912 243.014 323.847 247.896 327.582C248.788 328.263 249.781 329.004 250.011 330.104C250.114 330.813 249.998 331.536 249.68 332.177C248.626 334.641 246.436 336.433 244.14 337.805C243.152 338.395 242.065 338.993 241.58 340.038C238.088 338.593 235.493 335.51 233.333 332.402C231.172 329.294 229.256 325.954 226.488 323.377C225.268 322.241 223.882 321.253 222.923 319.889C221.459 317.807 221.063 314.959 219.092 313.353C217.107 311.735 214.259 311.955 211.713 312.205C198.675 313.486 185.536 313.343 172.528 311.78C169.824 311.455 167.045 311.04 164.703 309.646C162.36 308.253 160.536 305.638 160.868 302.926C161.179 300.387 163.287 298.375 165.636 297.381C167.985 296.388 170.582 296.209 173.115 295.923C179.332 295.315 185.455 293.968 191.356 291.91V291.91Z" fill="#575A89"/>
<path d="M153.951 297.181C154.273 295.028 155.106 292.99 155.629 290.878C155.891 289.549 156.223 288.235 156.623 286.941C156.636 286.904 156.651 286.869 156.664 286.832C156.797 286.821 156.926 286.781 157.042 286.715C157.158 286.648 157.258 286.557 157.334 286.448C157.406 286.259 157.425 286.055 157.391 285.856C157.381 285.646 157.387 285.434 157.41 285.225C158.265 283.786 159.2 282.395 160.21 281.061C161.981 278.543 163.516 275.868 165.047 273.197C166.303 271.007 167.56 268.813 168.6 266.512C169.379 264.786 170.035 263.004 170.896 261.318C173.963 255.318 179.476 250.9 185.405 247.724C191.093 244.678 197.241 242.624 203.221 240.202C203.375 240.354 203.515 240.519 203.639 240.696C206.87 245.126 207.218 250.948 208.548 256.272C209.084 258.422 209.802 260.565 209.801 262.781C209.799 266.052 208.24 269.096 206.691 271.974C205.306 274.725 203.672 277.343 201.808 279.792C200.893 280.928 199.885 281.986 198.965 283.118C195.195 287.755 193.019 293.456 190.903 299.049C189.677 302.288 187.675 305.161 186.328 308.351C185.811 309.576 185.512 310.898 184.862 312.059C184.212 313.219 183.081 314.24 181.754 314.246C181.365 314.235 180.98 314.175 180.607 314.066C175.803 312.826 171.78 309.638 167.788 306.685C167.075 306.158 166.359 305.636 165.611 305.16C164.856 304.68 164.072 304.249 163.288 303.818C162.694 303.492 162.1 303.165 161.506 302.839C159.56 301.769 157.61 300.697 155.582 299.792C154.973 299.547 154.387 299.245 153.833 298.891C153.827 298.319 153.866 297.747 153.951 297.181V297.181Z" fill="#162E8F"/>
<path d="M216.759 249.466C222.872 249.466 227.827 244.495 227.827 238.363C227.827 232.231 222.872 227.26 216.759 227.26C210.646 227.26 205.69 232.231 205.69 238.363C205.69 244.495 210.646 249.466 216.759 249.466Z" fill="#FFBFC5"/>
<path d="M224.204 233.168C224.472 233.637 224.877 234.012 225.365 234.242C225.853 234.472 226.399 234.546 226.93 234.453C227.458 234.347 227.958 234.13 228.396 233.816C228.835 233.502 229.202 233.099 229.474 232.633C230.012 231.696 230.334 230.649 230.417 229.571C230.503 229.156 230.506 228.729 230.427 228.314C230.348 227.898 230.188 227.503 229.955 227.149C229.543 226.748 229.069 226.416 228.552 226.165C227.839 225.718 227.24 225.11 226.803 224.389C226.493 223.876 226.271 223.315 225.993 222.784C224.986 220.865 223.027 219.306 220.867 219.376C219.83 219.41 218.841 219.806 217.818 219.986C214.387 220.589 210.657 218.768 207.474 220.189C206.69 220.571 205.962 221.058 205.309 221.636C204.413 222.378 203.552 223.159 202.725 223.98C202.007 224.593 201.464 225.387 201.15 226.279C200.718 227.908 201.746 229.728 201.092 231.281C200.868 231.726 200.6 232.147 200.293 232.538C199.571 233.601 200.356 237.749 200.276 239.032C200.184 239.66 200.343 240.3 200.719 240.811C201.241 241.395 202.119 241.446 202.901 241.455L204.338 241.472C204.553 241.487 204.768 241.465 204.976 241.407C205.258 241.281 205.506 241.089 205.699 240.847C206.894 239.584 207.153 235.453 208.889 235.468C209.152 235.454 209.414 235.522 209.638 235.663C209.952 235.894 210.045 236.319 210.268 236.64C210.522 236.942 210.867 237.154 211.251 237.244C211.635 237.334 212.038 237.297 212.4 237.14C213.117 236.807 213.741 236.302 214.215 235.668C214.688 235.036 215.262 234.487 215.913 234.042C216.838 233.501 217.883 233.265 218.784 232.653C219.536 232.142 219.964 231.4 220.639 230.836C220.909 230.602 221.249 230.465 221.605 230.445C221.96 230.425 222.313 230.523 222.607 230.725C223.672 231.283 223.719 232.197 224.204 233.168Z" fill="#2F2E41"/>
<path opacity="0.1" d="M198.63 252.73C201.216 252.362 203.85 252.574 206.343 253.351C207.175 253.542 207.927 253.989 208.493 254.63C208.814 255.116 209.024 255.668 209.105 256.245C209.614 258.901 209.288 261.649 208.172 264.11C208.092 264.233 208.039 264.371 208.017 264.516C207.995 264.661 208.004 264.809 208.043 264.951C208.155 265.122 208.302 265.268 208.474 265.379C208.629 265.529 208.751 265.71 208.831 265.91C208.912 266.111 208.949 266.326 208.94 266.542C208.931 266.759 208.877 266.97 208.781 267.164C208.684 267.357 208.548 267.528 208.381 267.665C208.175 267.816 207.904 267.947 207.864 268.2C207.82 268.476 208.078 268.692 208.279 268.886C208.574 269.175 208.791 269.534 208.911 269.93C209.031 270.326 209.05 270.746 208.966 271.151C208.857 271.477 208.783 271.814 208.743 272.155C208.785 272.573 208.908 272.978 209.105 273.349C209.441 274.185 209.556 275.094 209.438 275.987C209.331 276.41 209.321 276.851 209.408 277.278C209.529 277.56 209.694 277.822 209.896 278.053C210.692 279.129 210.867 280.93 209.713 281.605C210.206 281.859 210.609 282.261 210.864 282.756C211.119 283.251 211.213 283.813 211.135 284.364C211.824 283.995 212.659 284.467 213.233 284.998C213.807 285.53 214.394 286.18 215.174 286.219C215.718 286.246 216.291 285.963 216.788 286.188C217.542 286.53 217.517 287.757 218.259 288.125C218.91 288.448 219.817 287.921 220.372 288.392C220.565 288.555 220.663 288.808 220.85 288.98C221.271 289.366 221.928 289.202 222.499 289.179C223.176 289.198 223.835 289.395 224.413 289.748C224.991 290.102 225.466 290.601 225.792 291.196C226.43 292.394 226.814 293.711 226.922 295.065C227.068 295.801 227.053 296.559 226.879 297.289C226.786 297.652 226.588 297.979 226.31 298.23C226.033 298.481 225.687 298.644 225.318 298.7C218.525 299.141 211.822 297.507 205.208 295.892C203.266 295.417 201.29 294.862 199.67 293.686C198.198 292.619 197.115 291.108 196.059 289.625C194.113 286.891 192.154 284.135 190.761 281.08C188.968 277.147 188.169 272.845 187.385 268.593C187.115 267.453 187.019 266.279 187.1 265.11C187.335 263.743 187.856 262.441 188.629 261.29C189.564 259.765 190.598 258.303 191.724 256.913C193.435 254.715 195.894 253.226 198.63 252.73Z" fill="black"/>
<path d="M199.078 252.281C201.663 251.912 204.298 252.125 206.791 252.902C207.623 253.093 208.375 253.54 208.94 254.181C209.262 254.667 209.471 255.219 209.553 255.796C210.062 258.451 209.735 261.199 208.62 263.661C208.54 263.784 208.487 263.922 208.465 264.067C208.443 264.212 208.451 264.36 208.491 264.501C208.603 264.673 208.75 264.818 208.921 264.93C209.077 265.079 209.199 265.261 209.279 265.461C209.359 265.662 209.397 265.877 209.388 266.093C209.379 266.309 209.325 266.521 209.229 266.714C209.132 266.908 208.996 267.079 208.829 267.215C208.623 267.366 208.352 267.498 208.312 267.751C208.268 268.027 208.526 268.243 208.727 268.436C209.022 268.726 209.239 269.085 209.359 269.481C209.479 269.877 209.498 270.297 209.413 270.702C209.305 271.028 209.231 271.364 209.191 271.706C209.233 272.124 209.356 272.529 209.552 272.899C209.889 273.735 210.004 274.644 209.886 275.538C209.779 275.96 209.769 276.401 209.855 276.828C209.977 277.111 210.142 277.372 210.344 277.603C211.14 278.68 211.314 280.48 210.16 281.155C210.654 281.41 211.057 281.812 211.312 282.307C211.567 282.801 211.661 283.364 211.582 283.915C212.272 283.545 213.107 284.018 213.681 284.549C214.255 285.081 214.842 285.731 215.622 285.77C216.166 285.797 216.739 285.514 217.235 285.739C217.99 286.08 217.964 287.308 218.707 287.676C219.358 287.999 220.265 287.472 220.819 287.942C221.013 288.106 221.111 288.359 221.297 288.53C221.719 288.917 222.376 288.753 222.947 288.73C223.623 288.749 224.283 288.945 224.861 289.299C225.439 289.653 225.914 290.152 226.24 290.747C226.878 291.945 227.262 293.262 227.369 294.616C227.515 295.351 227.501 296.11 227.327 296.839C227.234 297.202 227.036 297.53 226.758 297.781C226.48 298.032 226.135 298.195 225.766 298.25C218.973 298.692 212.27 297.058 205.656 295.442C203.714 294.968 201.738 294.413 200.117 293.237C198.645 292.169 197.563 290.659 196.507 289.176C194.561 286.442 192.602 283.686 191.209 280.631C189.416 276.698 188.617 272.396 187.833 268.144C187.563 267.004 187.467 265.829 187.548 264.66C187.783 263.293 188.304 261.992 189.077 260.841C190.012 259.315 191.045 257.853 192.172 256.464C193.883 254.266 196.342 252.777 199.078 252.281Z" fill="#162E8F"/>
</g>
<defs>
<clipPath id="clip0">
<rect width="595" height="377.4" fill="white"/>
</clipPath>
</defs>
</svg>
