<svg width="600" height="450" viewBox="0 0 600 450" fill="none" xmlns="http://www.w3.org/2000/svg">
<g clip-path="url(#clip0)">
<path opacity="0.1" d="M561.042 286.344C540.804 312.464 548.679 350.629 561.524 381.19C565.822 391.421 570.691 402.251 568.875 413.22C566.655 426.64 554.875 436.453 542.506 441.657C519.959 451.137 492.97 448.875 472.268 435.776C454.363 424.455 441.536 406.038 423.328 395.238C392.851 377.154 354.054 383.985 320.947 396.448C297.53 405.264 271.935 416.723 248.667 407.515C232.298 401.035 220.982 385.255 214.816 368.532C211.84 360.461 209.679 351.718 203.994 345.317C200.613 341.511 196.203 338.813 191.685 336.538C150.429 315.743 98.3216 326.857 58.2502 303.818C31.1847 288.244 13.8633 258.864 6.19066 228.231C-1.48196 197.598 -0.595061 165.453 1.35137 133.906C2.73827 111.484 5.22042 87.5484 19.3157 70.2444C34.1966 51.9361 59.7919 45.1295 82.9407 48.6084C106.089 52.0874 127.03 64.4906 145.476 79.0961C168.524 97.3499 189.905 120.081 218.203 127.499C237.5 132.515 257.738 129.756 277.625 128.8C310.857 127.202 344.101 130.754 377.143 134.632C408.78 138.347 440.643 142.443 470.786 152.904C492.113 160.31 509.215 173.748 529.351 183.156C542.476 189.273 556.792 190.967 569.232 198.76C584.542 208.362 598.578 225.06 594.655 244.603C590.923 263.166 571.768 272.483 561.042 286.344Z" fill="#162E8F"/>
<path opacity="0.1" d="M126.161 450C195.269 450 251.292 441.329 251.292 430.633C251.292 419.937 195.269 411.266 126.161 411.266C57.0528 411.266 1.02979 419.937 1.02979 430.633C1.02979 441.329 57.0528 450 126.161 450Z" fill="#162E8F"/>
<path d="M528.202 60.1888C544.554 60.1888 557.809 46.7151 557.809 30.0944C557.809 13.4737 544.554 0 528.202 0C511.851 0 498.595 13.4737 498.595 30.0944C498.595 46.7151 511.851 60.1888 528.202 60.1888Z" fill="#FFDF9C"/>
<path d="M68.6487 311.06C68.6487 311.06 71.7261 315.15 67.2321 321.346C62.738 327.541 59.0297 332.696 60.5237 336.55C60.5237 336.55 67.3035 325.091 72.8273 324.927C78.3511 324.764 74.7202 317.951 68.6487 311.06Z" fill="#162E8F"/>
<path opacity="0.1" d="M68.6488 311.06C68.9179 311.455 69.1303 311.887 69.2797 312.343C74.6368 318.774 77.5357 324.776 72.3571 324.927C67.5357 325.067 61.7499 333.833 60.363 336.048C60.4094 336.218 60.465 336.386 60.5297 336.55C60.5297 336.55 67.3095 325.091 72.8333 324.927C78.3571 324.764 74.7202 317.951 68.6488 311.06Z" fill="black"/>
<path d="M74.3631 316.269C74.3631 317.709 74.2024 318.877 74.0059 318.877C73.8095 318.877 73.6488 317.709 73.6488 316.269C73.6488 314.829 73.8452 315.507 74.0417 315.507C74.2381 315.507 74.3631 314.829 74.3631 316.269Z" fill="#FFD037"/>
<path d="M76.3274 317.988C75.0833 318.677 74 319.095 73.9048 318.919C73.8095 318.744 74.744 318.042 75.9881 317.358C77.2321 316.675 76.7381 317.171 76.8333 317.358C76.9286 317.546 77.5714 317.298 76.3274 317.988Z" fill="#FFD037"/>
<path d="M52.3809 311.06C52.3809 311.06 49.3036 315.15 53.7976 321.346C58.2917 327.541 62.0238 332.696 60.5238 336.55C60.5238 336.55 53.744 325.091 48.2202 324.927C42.6964 324.764 46.3333 317.951 52.3809 311.06Z" fill="#162E8F"/>
<path opacity="0.1" d="M52.3809 311.06C52.1118 311.455 51.8994 311.887 51.75 312.343C46.3928 318.774 43.494 324.776 48.6726 324.927C53.494 325.067 59.2797 333.833 60.6666 336.048C60.6203 336.218 60.5647 336.386 60.5 336.55C60.5 336.55 53.744 325.085 48.2143 324.927C42.6845 324.77 46.3333 317.951 52.3809 311.06Z" fill="black"/>
<path d="M46.6846 316.269C46.6846 317.709 46.8453 318.877 47.0417 318.877C47.2381 318.877 47.3989 317.709 47.3989 316.269C47.3989 314.829 47.2024 315.507 47.006 315.507C46.8096 315.507 46.6846 314.829 46.6846 316.269Z" fill="#FFD037"/>
<path d="M44.7262 317.988C45.9703 318.677 47.0536 319.095 47.1488 318.919C47.2441 318.744 46.3095 318.042 45.0655 317.358C43.8215 316.675 44.3155 317.171 44.2203 317.358C44.125 317.546 43.4524 317.298 44.7262 317.988Z" fill="#FFD037"/>
<path d="M47.6666 336.012C47.6666 336.012 56.2678 335.745 58.8571 333.864C61.4464 331.982 72.0833 329.75 72.7262 332.757C73.369 335.764 85.6488 347.719 75.9404 347.798C66.2321 347.876 53.3869 346.261 50.7976 344.658C48.2083 343.054 47.6666 336.012 47.6666 336.012Z" fill="#A8A8A8"/>
<path opacity="0.2" d="M76.1131 346.757C66.4047 346.836 53.5595 345.22 50.9702 343.617C49 342.407 48.2142 338.02 47.9523 336H47.6666C47.6666 336 48.2083 343.048 50.7976 344.651C53.3869 346.255 66.2321 347.87 75.9404 347.792C78.744 347.792 79.7083 346.757 79.6547 345.256C79.2678 346.17 78.1964 346.739 76.1131 346.757Z" fill="black"/>
<path d="M356.613 69.8936H238.976V110.237H356.613V69.8936Z" fill="#E2E7F0"/>
<path opacity="0.4" d="M277.232 71.4424H247.321V108.573H277.232V71.4424Z" fill="white"/>
<path d="M271.196 82.5508H253.649V96.878H271.196V82.5508Z" fill="#D8E2F0"/>
<path opacity="0.4" d="M313.47 71.4424H283.56V108.573H313.47V71.4424Z" fill="white"/>
<path d="M307.435 82.5508H289.887V96.878H307.435V82.5508Z" fill="#D8E2F0"/>
<path opacity="0.4" d="M349.708 71.4424H319.798V108.573H349.708V71.4424Z" fill="white"/>
<path d="M343.673 82.5508H326.125V96.878H343.673V82.5508Z" fill="#D8E2F0"/>
<path opacity="0.1" d="M356.619 69.8936V72.9187H239.643H238.982V69.8936H356.619Z" fill="black"/>
<path d="M350.994 46.6239L335.333 34.3478H259.31L244.869 46.515H244.946C240.345 48.796 230.476 52.5654 218.833 50.1876C218.833 50.1876 219.429 71.2428 239.667 71.2428H357.381C357.381 71.2428 374.298 72.0172 376.768 50.1876C368.018 51.4728 359.088 50.2382 350.994 46.6239V46.6239Z" fill="#162E8F"/>
<path d="M383.125 152.311H216.875V209.33H383.125V152.311Z" fill="#E2E7F0"/>
<path opacity="0.4" d="M270.935 149.831H228.661V202.305H270.935V149.831Z" fill="white"/>
<path d="M262.399 165.531H237.601V185.776H262.399V165.531Z" fill="#D8E2F0"/>
<path opacity="0.4" d="M322.149 149.831H279.875V202.305H322.149V149.831Z" fill="white"/>
<path d="M313.619 165.531H288.821V185.776H313.619V165.531Z" fill="#D8E2F0"/>
<path opacity="0.4" d="M373.369 149.831H331.095V202.305H373.369V149.831Z" fill="white"/>
<path d="M364.833 165.531H340.036V185.776H364.833V165.531Z" fill="#D8E2F0"/>
<path d="M403.036 272.126H201.018V344.016H403.036V272.126Z" fill="#162E8F"/>
<path d="M403.036 272.126H201.018V344.016H403.036V272.126Z" fill="#E2E7F0"/>
<path d="M283.125 272.126H222.155V342.364H283.125V272.126Z" fill="#D8E2F0"/>
<path opacity="0.4" d="M270.935 272.126H234.351V342.364H270.935V272.126Z" fill="white"/>
<path d="M260.774 282.46H242.482V332.454H260.774V282.46Z" fill="#D8E2F0"/>
<path d="M381.089 272.126H320.119V342.364H381.089V272.126Z" fill="#D8E2F0"/>
<path opacity="0.4" d="M368.899 272.126H332.315V342.364H368.899V272.126Z" fill="white"/>
<path d="M358.732 282.46H340.44V332.454H358.732V282.46Z" fill="#D8E2F0"/>
<path d="M429.054 340.713V272.132C434.411 272.041 464.887 269.639 469.702 227.093C469.702 227.093 443.327 232.381 414.625 219.494L381.089 193.212H218.5L187.607 219.228H187.774C177.934 224.105 156.821 232.139 131.923 227.093C131.923 227.093 133.065 269.113 172.167 271.969V340.713H429.054ZM172.167 340.713H429.054H172.167ZM414.827 340.713H186.387H414.827ZM186.387 340.713V272.126H414.827V340.713" fill="#162E8F"/>
<path opacity="0.1" d="M383.125 152.311H216.875V159.632H383.125V152.311Z" fill="black"/>
<path d="M378.905 120.741L356.399 102.142H238.911L218.274 120.559H218.393C211.429 124.014 196.5 129.695 178.875 126.113C178.875 126.113 179.738 157.98 210.369 157.98H388.542C388.542 157.98 414.137 159.148 417.881 126.113C417.857 126.113 399.214 129.858 378.905 120.741Z" fill="#162E8F"/>
<path opacity="0.1" d="M402.833 271.92H200.815V274.008H402.833V271.92Z" fill="black"/>
<path opacity="0.1" d="M187.81 219.452H414.625C414.625 219.452 316.667 227.814 187.81 219.452Z" fill="black"/>
<path opacity="0.1" d="M216.667 120.287H378.857C378.857 120.287 308.809 128.654 216.667 120.287Z" fill="black"/>
<path opacity="0.1" d="M244.714 46.3335H351.19C351.19 46.3335 305.22 54.7011 244.714 46.3335Z" fill="black"/>
<path d="M600 340.114H34.6964V355.609H600V340.114Z" fill="#D8E2F0"/>
<path d="M78.881 210.201L82.6726 221.164L79.7619 239.569C79.7619 239.569 75.3631 254.253 75.8036 261.35C76.2441 268.447 75.8036 278.261 75.8036 278.261C75.8036 278.261 65.2441 297.84 74.0179 305.851C76.0595 307.708 77.7738 307.339 79.1964 305.669C80.627 306.476 82.0994 307.203 83.6072 307.847L76.2203 337.004L69.1845 351.246C69.1845 351.246 54.25 364.158 48.5298 391.312C48.5298 391.312 42.8274 409.396 39.1905 414.793C39.0248 415.046 38.8439 415.289 38.6488 415.519C38.0793 414.598 37.5587 413.647 37.0893 412.669L30.4941 430.47C30.4941 430.47 43.6905 438.032 52.9286 441.148C62.1667 444.264 72.7262 440.701 75.8036 436.701C78.881 432.702 69.6429 428.231 63.0476 425.575C59.8452 424.28 58.1012 421.206 57.1429 418.381C57.0595 417.51 56.9881 416.53 56.9583 415.471C56.8155 410.419 57.5536 403.6 61.7203 398.427C69.2083 389.085 80.6429 365.973 80.6429 365.973C80.6429 365.973 92.0774 353.515 94.7202 348.621L110.56 321.745C119.345 331.837 128.149 355.687 128.149 355.687L131.667 377.469C131.667 377.469 143.101 408.616 146.625 411.732C146.726 411.816 146.821 411.919 146.917 412.016L147.006 412.113L147.214 412.361L147.298 412.47C147.387 412.585 147.482 412.712 147.571 412.839L147.637 412.936L147.851 413.262L147.952 413.426L148.137 413.746L148.226 413.898L148.476 414.37L148.565 414.545L148.738 414.896L148.839 415.102L149.018 415.489L149.089 415.652L149.321 416.197L149.411 416.409L149.565 416.802L149.649 417.02L149.845 417.534L149.893 417.661L150.095 418.224L150.167 418.435L150.321 418.883L150.387 419.071L150.589 419.676V419.76L150.762 420.317L150.821 420.505L150.976 421.013L151.012 421.14L151.196 421.745L151.232 421.872L151.369 422.368L151.417 422.55L151.542 423.022L151.577 423.155L151.72 423.687L151.786 423.947L151.851 424.207L151.929 424.522V424.607C152.03 425.018 152.125 425.405 152.208 425.756L152.31 426.204L152.357 426.416V426.47C151.711 426.035 151.097 425.554 150.518 425.03C150.774 427.991 150.774 430.969 150.518 433.93C150.077 438.377 154.476 444.609 154.476 444.609C154.476 444.609 194.065 434.82 196.262 428.146C198.458 421.473 189.226 422.362 186.583 423.251C183.94 424.141 170.833 421.569 169.048 418.454C168.713 417.878 168.313 417.344 167.857 416.862C167.478 416.441 166.971 416.162 166.418 416.069C165.864 415.975 165.296 416.074 164.804 416.348L164.702 416.239L164.583 416.1L164.506 416.003L164.363 415.816C164.268 415.683 164.173 415.537 164.071 415.386L163.964 415.223C163.79 414.94 163.611 414.636 163.429 414.309L163.393 414.249C160.583 409.039 157.565 398.415 156.845 395.886V395.831L156.786 395.626V395.547V395.493V395.39V395.341L146.667 361.968C149.744 349.952 146.667 344.168 146.667 344.168L140.946 317.026L137.72 304.731C137.821 304.629 137.869 304.562 137.869 304.562C135.238 297.084 133.173 281.22 131.917 268.962C131.833 268.155 131.754 267.377 131.679 266.626L141.417 271.188C141.417 271.188 154.613 291.657 162.97 281.867C171.327 272.078 146.256 263.619 146.256 263.619L130.357 252.94L130.321 252.475L128.536 239.128C128.536 239.128 123.696 223.106 125.899 212.427C127.774 203.352 121.667 200.048 119.815 199.274C119.525 199.161 119.227 199.072 118.923 199.008C116.512 198.403 113.821 195.934 111.536 193.26C109.588 190.965 107.303 188.989 104.762 187.403C106.246 186.402 107.279 184.845 107.637 183.071C108.006 181.02 107.31 178.981 106.69 176.966C107.586 174.737 108.626 172.57 109.804 170.48H109.875C110.058 170.162 110.236 169.861 110.411 169.579C115.055 169.038 119.341 166.781 122.454 163.237C125.567 159.692 127.288 155.108 127.292 150.357C127.293 147.09 126.473 143.876 124.911 141.021C126.881 140.326 128.774 139.448 128.06 137.391C127.577 136 126.274 135.092 125.292 134.021C122.643 131.189 121.833 126.936 119.06 124.226C118.258 123.452 117.329 122.828 116.315 122.38C113.5 120.759 109.893 120.565 106.637 121.17C102.607 121.92 98.8512 123.723 94.9226 124.885C91.4643 125.901 87.8452 126.428 84.5298 127.862C78.875 130.282 74.5238 135.28 71.9107 140.912C69.6012 145.892 68.5298 151.404 66.006 156.274C63.4822 161.145 58.8631 165.531 53.4167 165.35C52.0119 165.301 50.5595 164.956 49.25 165.453C48.2181 165.91 47.3642 166.701 46.8214 167.703C43.8453 172.64 45.756 179.29 43.3869 184.553C41.6012 188.468 37.8214 190.943 34.7024 193.877C31.5833 196.811 28.9048 201.186 30.375 205.227C30.7942 206.243 31.4087 207.163 32.1825 207.934C32.9562 208.705 33.8737 209.311 34.881 209.717C35.9107 210.289 37.0209 210.697 38.1726 210.927C41.1488 211.532 44.1786 211.169 47.1845 210.927C55.3214 210.322 64.2143 210.655 70.6726 205.621C73.3333 203.546 75.381 200.684 77.5119 197.979C77.5341 202.091 77.9931 206.189 78.881 210.201V210.201ZM90.5952 238.184C91.256 239.291 91.9286 240.392 92.625 241.481C99.0893 251.573 90.3214 265.38 90.3214 265.38C88.3221 267.046 86.6032 269.033 85.2322 271.261C85.3452 267.026 85.8274 262.185 87.2441 258.706C89.4286 253.322 90.2857 243.441 90.5952 238.184V238.184Z" fill="url(#paint0_linear)"/>
<path d="M83.9821 218.841L80.5476 240.574C80.5476 240.574 76.2499 254.919 76.6785 261.871C77.1071 268.823 76.6785 278.388 76.6785 278.388C76.6785 278.388 66.369 297.513 74.9583 305.337C83.5476 313.16 86.1309 280.56 86.1309 280.56C86.1309 280.56 84.8392 266.645 87.8511 259.263C90.863 251.882 91.2856 235.794 91.2856 235.794L83.9821 218.841Z" fill="#FFCDD3"/>
<path opacity="0.05" d="M83.9821 218.841L80.5476 240.574C80.5476 240.574 76.2499 254.919 76.6785 261.871C77.1071 268.823 76.6785 278.388 76.6785 278.388C76.6785 278.388 66.369 297.513 74.9583 305.337C83.5476 313.16 86.1309 280.56 86.1309 280.56C86.1309 280.56 84.8392 266.645 87.8511 259.263C90.863 251.882 91.2856 235.794 91.2856 235.794L83.9821 218.841Z" fill="black"/>
<path d="M134.321 293.574L140.274 316.203L145.833 342.715C145.833 342.715 148.839 348.366 145.833 360.098L155.714 392.697C155.714 392.697 161.298 413.559 164.738 413.994C168.179 414.43 161.304 430.512 161.304 430.512L151.851 424.861C151.851 424.861 149.286 411.822 145.833 408.779C142.381 405.736 131.226 375.315 131.226 375.315L127.792 354.017C127.792 354.017 117.077 324.897 107.601 317.945C98.125 310.993 95.1428 299.691 95.1428 299.691L134.321 293.574Z" fill="#FFCDD3"/>
<path opacity="0.05" d="M95.1488 299.685C95.1488 299.685 98.1548 310.987 107.607 317.939C117.06 324.891 127.798 354.011 127.798 354.011L131.232 375.308C131.232 375.308 142.405 405.736 145.839 408.773C148.363 411.005 150.423 418.629 151.339 422.519C151.673 423.929 151.857 424.855 151.857 424.855L161.31 430.512C161.31 430.512 168.184 414.43 164.744 413.994C164.208 413.928 163.625 413.389 163.018 412.476C159.708 407.599 155.72 392.697 155.72 392.697L145.833 360.098C148.839 348.36 145.833 342.715 145.833 342.715L140.25 316.203L134.298 293.574L95.1488 299.685Z" fill="black"/>
<path d="M40.1548 412.688L43.5893 420.946L59.0655 419.21C58.5887 416.966 58.3236 414.681 58.2738 412.385C58.1369 407.454 58.8691 400.793 62.9286 395.741C70.2322 386.611 81.381 364.013 81.381 364.013C81.381 364.013 92.5536 351.845 95.131 347.072L116.667 310.564L115.988 307.285L121.786 301.839H85.7143L77.1191 335.721L70.2381 349.637C70.2381 349.637 55.631 362.24 50.0476 388.753C50.0476 388.753 44.4762 406.413 40.9286 411.689C40.7042 412.048 40.445 412.382 40.1548 412.688Z" fill="#FFCDD3"/>
<path opacity="0.1" d="M151.345 422.525C151.679 423.935 151.863 424.861 151.863 424.861L161.309 430.512C161.309 430.512 168.184 414.43 164.744 413.994C164.208 413.928 163.625 413.389 163.018 412.476C162.568 412.743 162.216 413.153 162.017 413.642C161.818 414.132 161.783 414.674 161.917 415.186C162.051 415.836 162.28 416.462 162.595 417.044C163.887 419.216 158.298 422.695 158.298 422.695C156.429 425.133 153.369 423.844 151.345 422.525Z" fill="black"/>
<path d="M162.357 416.046C162.243 415.505 162.306 414.941 162.536 414.44C162.767 413.938 163.152 413.528 163.633 413.27C164.115 413.012 164.666 412.922 165.203 413.012C165.74 413.102 166.233 413.369 166.607 413.771C167.05 414.242 167.438 414.763 167.762 415.326C169.482 418.351 182.369 420.977 184.946 420.105C187.524 419.234 196.548 418.369 194.399 424.885C192.25 431.401 153.571 440.943 153.571 440.943C153.571 440.943 149.274 434.856 149.702 430.512C149.952 427.619 149.952 424.71 149.702 421.818C149.702 421.818 155.72 427.469 158.726 423.554C158.726 423.554 164.31 420.075 163.024 417.903C162.713 417.321 162.488 416.695 162.357 416.046V416.046Z" fill="#DCE6F2"/>
<path opacity="0.1" d="M40.1548 412.688L43.5893 420.946L59.0655 419.21C58.5887 416.966 58.3236 414.68 58.2738 412.385C58.1209 412.073 57.8957 411.803 57.6176 411.599C57.3395 411.395 57.0168 411.263 56.6773 411.213C56.3377 411.164 55.9914 411.199 55.6682 411.316C55.3449 411.432 55.0544 411.627 54.8215 411.883C54.0238 412.754 53.2143 413.698 52.6191 414.424C50.8988 416.596 45.3155 415.295 45.3155 415.295C43.8691 415.779 42.1488 413.668 40.9226 411.72C40.6985 412.067 40.4413 412.391 40.1548 412.688V412.688Z" fill="black"/>
<path d="M54.3929 412.754C54.6501 412.478 54.9749 412.276 55.3342 412.169C55.6934 412.062 56.0741 412.054 56.4374 412.145C56.8007 412.237 57.1335 412.425 57.4018 412.691C57.6701 412.956 57.8642 413.289 57.9643 413.656C58.7441 416.747 60.4584 420.741 64.1965 422.253C70.6429 424.861 79.6726 429.205 76.6548 433.144C73.6369 437.083 63.3334 440.531 54.3155 437.488C45.2976 434.445 32.4048 427.057 32.4048 427.057L38.8512 409.674C38.8512 409.674 42.3036 417.038 44.881 416.191C44.881 416.191 50.4643 417.498 52.1845 415.319C52.7857 414.539 53.5715 413.625 54.3929 412.754Z" fill="#DCE6F2"/>
<path d="M112.768 168.423C112.768 168.423 102.458 182.769 105.03 192.764C107.601 202.759 84.4048 186.242 84.4048 186.242C84.4048 186.242 96.4345 175.351 94.2857 157.557L112.768 168.423Z" fill="#FFCDD3"/>
<path d="M78.8273 304.465C96.0118 314.896 116.637 310.552 116.637 310.552L116.208 307.527L117.101 307.611C133.524 309.081 137.262 304.048 137.262 304.048C134.69 296.739 132.679 281.25 131.423 269.276C131.244 267.558 131.077 265.906 130.929 264.363C130.589 260.872 130.333 257.938 130.173 255.947C130.03 254.199 129.958 253.195 129.958 253.195L128.232 240.126C128.232 240.126 123.506 224.48 125.655 214.049C127.482 205.167 121.524 201.948 119.702 201.198C119.418 201.088 119.125 201.001 118.827 200.938C116.446 200.375 113.845 197.913 111.613 195.323C108.358 191.552 104.209 188.688 99.5595 187.004C97.3988 186.211 95.5654 185.364 95.5654 185.364C92.5595 181.885 84.3928 184.057 84.3928 184.057C74.5119 190.58 79.6666 211.889 79.6666 211.889L83.7738 223.766C86.1366 230.348 89.2638 236.62 93.0892 242.449C99.4047 252.305 90.8392 265.791 90.8392 265.791C77.5357 276.646 78.8273 304.465 78.8273 304.465Z" fill="#FF748E"/>
<path opacity="0.05" d="M115.56 284.257L117.095 307.599C133.518 309.069 137.256 304.036 137.256 304.036C134.685 296.727 132.673 281.238 131.417 269.264C131.238 267.546 131.071 265.894 130.923 264.351L115.56 284.257Z" fill="black"/>
<path opacity="0.1" d="M88.2798 223.185C88.2798 223.185 96.0179 237.96 98.5893 244.482C101.161 251.004 101.167 248.826 102.458 251.004C103.75 253.182 117.494 262.742 117.494 262.742L131.417 269.264C130.821 263.65 130.405 258.803 130.167 255.953L117.071 247.114C117.071 247.114 108.048 241.463 107.619 234.075C107.19 226.688 101.601 213.214 101.601 213.214C101.601 213.214 90.4226 201.022 85.7143 206.673C81.006 212.324 88.2798 223.185 88.2798 223.185Z" fill="black"/>
<path d="M101.595 211.018C101.595 211.018 107.179 224.492 107.613 231.879C108.048 239.267 117.065 244.918 117.065 244.918L145.423 264.043C145.423 264.043 169.911 272.302 161.75 281.861C153.589 291.421 140.696 271.43 140.696 271.43L117.482 260.54C117.482 260.54 103.732 250.98 102.446 248.802C101.161 246.624 101.155 248.802 98.5773 242.28C96 235.758 88.2678 220.983 88.2678 220.983C88.2678 220.983 80.9643 210.092 85.6904 204.465C90.4166 198.838 101.595 211.018 101.595 211.018Z" fill="#FFCDD3"/>
<path opacity="0.1" d="M105.036 216.669C105.036 216.669 96.4285 210.152 94.7202 207.974C93.9642 207.012 92.7857 207.158 91.7083 207.617C89.6932 208.484 87.5022 208.843 85.3214 208.664C83.4404 208.501 81.6131 208.61 81.8333 209.699C82.2619 211.871 80.5416 198.397 80.5416 198.397L87.8452 195.789L97.2976 201.004L105.036 216.669Z" fill="black"/>
<path d="M105.036 215.797C105.036 215.797 96.4286 209.269 94.7202 207.109C93.9643 206.147 92.7857 206.292 91.7083 206.752C89.6965 207.624 87.5077 207.989 85.3274 207.817C83.4464 207.654 81.619 207.763 81.8393 208.852C82.2678 211.024 80.5476 197.55 80.5476 197.55L87.8512 194.942L97.3036 200.157L105.036 215.797Z" fill="#FF748E"/>
<path opacity="0.1" d="M125.268 216.669C123.716 217.357 122.025 217.657 120.335 217.543C118.646 217.43 117.008 216.906 115.56 216.015" fill="black"/>
<path opacity="0.1" d="M97.0833 158.646C97.4047 156.05 94.2261 161.441 93.863 158.428L112.315 169.319C112.315 169.319 111.262 170.789 109.934 173.106C109.235 173.186 108.531 173.227 107.827 173.227C102.268 173.203 100.506 162.542 97.0833 158.646Z" fill="black"/>
<path d="M108.256 172.338C118.578 172.338 126.946 163.873 126.946 153.431C126.946 142.988 118.578 134.523 108.256 134.523C97.9334 134.523 89.5654 142.988 89.5654 153.431C89.5654 163.873 97.9334 172.338 108.256 172.338Z" fill="#FFCDD3"/>
<path opacity="0.1" d="M116.667 153.757C116.524 154.967 116.554 156.177 115.994 157.254C115.214 158.731 113.53 159.402 112.119 160.28C106.411 163.837 104.714 171.842 106.536 178.37C107.179 180.681 108.196 183.023 107.774 185.388C107.048 189.448 102.476 191.554 98.4166 191.911C94.3571 192.268 90.0833 191.608 86.3036 193.121C79.8928 195.626 77.0833 203.219 71.6607 207.454C65.3512 212.373 56.6607 212.07 48.7202 212.639C45.7797 212.851 42.8035 213.208 39.9166 212.639C37.0297 212.07 34.1845 210.286 33.1607 207.49C31.7202 203.545 34.3512 199.268 37.3869 196.406C40.4226 193.544 44.1428 191.13 45.869 187.331C48.1845 182.188 46.3154 175.696 49.2262 170.874C49.7589 169.894 50.5962 169.122 51.6071 168.677C52.8928 168.187 54.3154 168.526 55.6845 168.575C60.9881 168.762 65.5178 164.478 67.9821 159.723C70.4464 154.967 71.494 149.583 73.75 144.718C76.2976 139.212 80.5476 134.36 86.0774 131.97C89.3155 130.572 92.8452 130.058 96.2262 129.06C100.065 127.928 103.732 126.168 107.667 125.43C111.601 124.691 116.06 125.182 118.935 127.995C121.643 130.645 122.435 134.795 125.018 137.567C125.994 138.613 127.25 139.497 127.72 140.858C128.833 144.077 123.423 144.349 121.619 145.638C120.291 146.574 119.166 147.778 118.314 149.175C117.462 150.572 116.901 152.131 116.667 153.757V153.757Z" fill="black"/>
<path d="M115.78 153.328C115.637 154.538 115.667 155.748 115.107 156.825C114.327 158.301 112.643 158.973 111.232 159.85C105.524 163.408 103.827 171.412 105.649 177.94C106.292 180.252 107.31 182.593 106.887 184.959C106.161 189.019 101.589 191.124 97.5298 191.481C93.4703 191.838 89.1965 191.179 85.4167 192.691C79.0358 195.208 76.2262 202.777 70.8036 207.012C64.4941 211.931 55.8036 211.629 47.8631 212.197C44.9227 212.409 41.9465 212.766 39.0596 212.197C36.1727 211.629 33.3274 209.844 32.3036 207.049C30.8632 203.104 33.4941 198.826 36.5298 195.964C39.5655 193.103 43.2858 190.689 45.012 186.889C47.3274 181.746 45.4584 175.254 48.3691 170.432C48.9018 169.452 49.7392 168.68 50.75 168.236C52.0358 167.746 53.4584 168.084 54.8274 168.133C60.131 168.32 64.6608 164.037 67.1251 159.281C69.5893 154.526 70.637 149.141 72.8929 144.276C75.4405 138.771 79.6905 133.918 85.2203 131.528C88.4584 130.131 91.9881 129.616 95.3691 128.618C99.2084 127.487 102.875 125.726 106.81 124.988C110.744 124.25 115.202 124.74 118.077 127.553C120.786 130.203 121.577 134.354 124.161 137.125C125.137 138.172 126.393 139.055 126.863 140.416C127.976 143.635 122.566 143.907 120.762 145.196C119.427 146.131 118.295 147.336 117.438 148.735C116.581 150.134 116.017 151.697 115.78 153.328V153.328Z" fill="#2D283D"/>
</g>
<defs>
<linearGradient id="paint0_linear" x1="113.31" y1="444.712" x2="113.31" y2="120.831" gradientUnits="userSpaceOnUse">
<stop stop-color="#808080" stop-opacity="0.25"/>
<stop offset="0.54" stop-color="#808080" stop-opacity="0.12"/>
<stop offset="1" stop-color="#808080" stop-opacity="0.1"/>
</linearGradient>
<clipPath id="clip0">
<rect width="600" height="450" fill="white"/>
</clipPath>
</defs>
</svg>
