<svg width="700" height="450" viewBox="0 0 700 450" fill="none" xmlns="http://www.w3.org/2000/svg">
<g clip-path="url(#clip0)">
<path d="M618.812 296.29C615.421 325.429 608.376 348.824 598.706 367.482C585.838 392.342 563.828 402.359 544.166 412.84C538.485 415.863 532.578 418.439 526.499 420.546C490.72 433.002 450.676 429.697 419.221 423.121C397.159 418.504 374.765 415.664 352.252 414.628C345.831 414.337 339.403 414.193 332.97 414.195C323.049 414.208 144.414 417.609 100.921 329.282C90.1829 307.494 82.8226 280.878 80.1783 248.435C72.6957 156.713 113.821 96.4725 166.868 57.0976C267.216 -17.3862 404.765 -14.2625 503.633 62.1833C569.49 113.104 631.152 190.169 618.812 296.29Z" fill="#3F3D56"/>
<path d="M598.706 367.482C585.838 392.342 568.332 408.813 548.67 419.294C542.988 422.317 537.081 424.893 531.003 427C495.224 439.456 455.18 436.151 423.725 429.575C401.663 424.958 379.269 422.118 356.755 421.081C350.334 420.791 343.907 420.647 337.473 420.649C327.552 420.662 317.633 421.032 307.717 421.759C243.269 426.509 144.414 417.609 100.921 329.282L209.743 117.854L250.243 222.161L263.169 255.456L298.793 206.42L317.187 181.102L400.956 277.438L424.632 224.988L588.553 359.176L597.696 366.656L598.706 367.482Z" fill="#F2F2F2"/>
<path opacity="0.1" d="M194.302 185.619L211.029 148.832L234.191 202.399L214.246 163.676L194.302 185.619Z" fill="black"/>
<path opacity="0.1" d="M356.755 421.081C350.335 420.791 343.907 420.647 337.473 420.649L263.169 255.456L356.755 421.081Z" fill="black"/>
<path opacity="0.1" d="M298.794 206.419L317.188 192.073L400.827 288.881L315.901 206.271L298.794 206.419Z" fill="black"/>
<path opacity="0.1" d="M548.67 419.294C542.988 422.317 537.081 424.893 531.003 426.999L400.956 277.438L548.67 419.294Z" fill="black"/>
<path d="M310.11 70.7411C311.176 70.7411 312.04 69.8742 312.04 68.8049C312.04 67.7356 311.176 66.8688 310.11 66.8688C309.044 66.8688 308.18 67.7356 308.18 68.8049C308.18 69.8742 309.044 70.7411 310.11 70.7411Z" fill="#F2F2F2"/>
<path d="M256.709 137.216C257.775 137.216 258.64 136.349 258.64 135.279C258.64 134.21 257.775 133.343 256.709 133.343C255.643 133.343 254.779 134.21 254.779 135.279C254.779 136.349 255.643 137.216 256.709 137.216Z" fill="#F2F2F2"/>
<path d="M387.316 148.187C388.027 148.187 388.603 147.609 388.603 146.896C388.603 146.184 388.027 145.606 387.316 145.606C386.605 145.606 386.029 146.184 386.029 146.896C386.029 147.609 386.605 148.187 387.316 148.187Z" fill="#F2F2F2"/>
<path d="M117.096 177.229C117.806 177.229 118.382 176.651 118.382 175.939C118.382 175.226 117.806 174.648 117.096 174.648C116.385 174.648 115.809 175.226 115.809 175.939C115.809 176.651 116.385 177.229 117.096 177.229Z" fill="#F2F2F2"/>
<path d="M395.037 68.1595C395.747 68.1595 396.324 67.5816 396.324 66.8688C396.324 66.1559 395.747 65.578 395.037 65.578C394.326 65.578 393.75 66.1559 393.75 66.8688C393.75 67.5816 394.326 68.1595 395.037 68.1595Z" fill="#F2F2F2"/>
<path d="M474.816 130.116C475.527 130.116 476.103 129.538 476.103 128.826C476.103 128.113 475.527 127.535 474.816 127.535C474.105 127.535 473.529 128.113 473.529 128.826C473.529 129.538 474.105 130.116 474.816 130.116Z" fill="#F2F2F2"/>
<path d="M553.309 228.215C554.019 228.215 554.596 227.637 554.596 226.924C554.596 226.211 554.019 225.633 553.309 225.633C552.598 225.633 552.022 226.211 552.022 226.924C552.022 227.637 552.598 228.215 553.309 228.215Z" fill="#F2F2F2"/>
<path d="M196.875 81.2347H195.099V79.4535H194.147V81.2347H192.371V82.1906H194.147V83.9712H195.099V82.1906H196.875V81.2347Z" fill="#F2F2F2"/>
<path d="M545.588 276.786H543.812V275.005H542.86V276.786H541.084V277.742H542.86V279.523H543.812V277.742H545.588V276.786Z" fill="#F2F2F2"/>
<path d="M700 399.242C700 409.935 543.3 447 350 447C156.7 447 0 409.935 0 399.242C0 388.549 156.7 408.277 350 408.277C543.3 408.277 700 388.549 700 399.242Z" fill="#3F3D56"/>
<path opacity="0.1" d="M700 399.242C700 409.935 543.3 447 350 447C156.7 447 0 409.935 0 399.242C0 388.549 156.7 408.277 350 408.277C543.3 408.277 700 388.549 700 399.242Z" fill="black"/>
<path d="M350 418.603C543.3 418.603 700 409.935 700 399.242C700 388.548 543.3 379.88 350 379.88C156.7 379.88 0 388.548 0 399.242C0 409.935 156.7 418.603 350 418.603Z" fill="#3F3D56"/>
<path d="M365.441 372.136C365.441 393.522 355.936 387.625 344.21 387.625C332.484 387.625 322.978 393.522 322.978 372.136C322.978 350.749 344.21 310.179 344.21 310.179C344.21 310.179 365.441 350.749 365.441 372.136Z" fill="#FF6584"/>
<path opacity="0.1" d="M353.86 380.318C353.86 390.039 349.54 387.358 344.21 387.358C338.88 387.358 334.559 390.039 334.559 380.318C334.559 370.597 344.21 352.156 344.21 352.156C344.21 352.156 353.86 370.597 353.86 380.318Z" fill="black"/>
<path d="M368.015 393.433H320.404C317.206 393.433 314.614 396.034 314.614 399.242C314.614 402.449 317.206 405.05 320.404 405.05H368.015C371.213 405.05 373.805 402.449 373.805 399.242C373.805 396.034 371.213 393.433 368.015 393.433Z" fill="#2F2E41"/>
<path d="M368.015 381.816H320.404C317.206 381.816 314.614 384.417 314.614 387.625C314.614 390.833 317.206 393.433 320.404 393.433H368.015C371.213 393.433 373.805 390.833 373.805 387.625C373.805 384.417 371.213 381.816 368.015 381.816Z" fill="#2F2E41"/>
<path d="M88.1433 319.579C88.1433 355.297 110.481 384.199 138.087 384.199Z" fill="#3F3D56"/>
<path d="M138.087 384.199C138.087 348.08 163.014 318.853 193.82 318.853Z" fill="#162E8F"/>
<path d="M106.239 322.817C106.239 356.745 120.483 384.199 138.087 384.199Z" fill="#162E8F"/>
<path d="M138.087 384.199C138.087 338.047 166.899 300.701 202.506 300.701Z" fill="#3F3D56"/>
<path d="M127.58 384.655C127.58 384.655 134.663 384.436 136.797 382.911C138.932 381.386 147.692 379.566 148.222 382.011C148.751 384.456 158.866 394.173 150.869 394.238C142.873 394.302 132.289 392.988 130.159 391.686C128.028 390.385 127.58 384.655 127.58 384.655Z" fill="#A8A8A8"/>
<path opacity="0.2" d="M151.012 393.386C143.016 393.451 132.432 392.137 130.302 390.835C128.679 389.844 128.033 386.286 127.816 384.645C127.666 384.652 127.58 384.654 127.58 384.654C127.58 384.654 128.028 390.385 130.159 391.686C132.289 392.988 142.873 394.302 150.869 394.238C153.178 394.219 153.975 393.395 153.931 392.175C153.611 392.912 152.73 393.372 151.012 393.386Z" fill="black"/>
<path d="M464.155 343.157C464.155 367.701 479.504 387.561 498.473 387.561Z" fill="#3F3D56"/>
<path d="M498.473 387.561C498.473 362.742 515.602 342.658 536.77 342.658Z" fill="#162E8F"/>
<path d="M476.589 345.382C476.589 368.696 486.377 387.561 498.473 387.561Z" fill="#162E8F"/>
<path d="M498.473 387.561C498.473 355.847 518.272 330.185 542.739 330.185Z" fill="#3F3D56"/>
<path d="M491.253 387.874C491.253 387.874 496.12 387.724 497.587 386.676C499.054 385.628 505.074 384.377 505.437 386.057C505.801 387.738 512.752 394.415 507.257 394.459C501.762 394.503 494.489 393.6 493.025 392.706C491.561 391.811 491.253 387.874 491.253 387.874Z" fill="#A8A8A8"/>
<path opacity="0.2" d="M507.355 393.874C501.86 393.918 494.587 393.015 493.123 392.121C492.009 391.44 491.564 388.995 491.416 387.868C491.313 387.872 491.253 387.874 491.253 387.874C491.253 387.874 491.561 391.811 493.025 392.706C494.489 393.6 501.762 394.503 507.257 394.459C508.843 394.446 509.391 393.88 509.361 393.042C509.14 393.548 508.535 393.864 507.355 393.874Z" fill="black"/>
<path d="M575.063 402.299C575.063 402.299 582.372 401.183 584.393 399.336C586.413 397.489 595.26 394.503 596.113 396.969C596.967 399.435 608.655 408.229 600.381 409.3C592.107 410.371 580.981 410.339 578.612 409.258C576.243 408.177 575.063 402.299 575.063 402.299Z" fill="#A8A8A8"/>
<path opacity="0.2" d="M600.422 408.401C592.148 409.472 581.023 409.44 578.654 408.359C576.85 407.536 575.736 403.932 575.307 402.26C575.153 402.285 575.063 402.299 575.063 402.299C575.063 402.299 576.243 408.177 578.612 409.258C580.981 410.339 592.107 410.371 600.381 409.3C602.769 408.991 603.492 408.038 603.295 406.78C603.055 407.584 602.2 408.171 600.422 408.401Z" fill="black"/>
<path d="M395.204 401.768C395.204 401.768 401.372 400.827 403.077 399.268C404.782 397.709 412.248 395.189 412.969 397.27C413.689 399.352 423.554 406.774 416.571 407.677C409.588 408.581 400.198 408.554 398.199 407.642C396.199 406.73 395.204 401.768 395.204 401.768Z" fill="#A8A8A8"/>
<path opacity="0.2" d="M416.606 406.918C409.623 407.822 400.233 407.795 398.234 406.883C396.711 406.188 395.771 403.147 395.41 401.735C395.279 401.757 395.204 401.768 395.204 401.768C395.204 401.768 396.199 406.73 398.199 407.642C400.198 408.554 409.588 408.581 416.571 407.677C418.586 407.416 419.196 406.612 419.03 405.55C418.827 406.228 418.106 406.724 416.606 406.918Z" fill="black"/>
<path d="M78.7429 398.679C78.7429 398.679 83.5447 397.946 84.8723 396.732C86.1999 395.518 92.0121 393.557 92.5729 395.177C93.1337 396.797 100.813 402.575 95.3769 403.279C89.9407 403.982 82.6309 403.961 81.0744 403.251C79.5179 402.541 78.7429 398.679 78.7429 398.679Z" fill="#A8A8A8"/>
<path opacity="0.2" d="M95.4042 402.688C89.968 403.391 82.6582 403.37 81.1017 402.66C79.9164 402.119 79.1848 399.752 78.9031 398.653C78.8016 398.67 78.7429 398.679 78.7429 398.679C78.7429 398.679 79.5179 402.541 81.0744 403.251C82.6309 403.961 89.9407 403.982 95.3769 403.279C96.9461 403.076 97.4212 402.449 97.2914 401.623C97.1336 402.151 96.5722 402.537 95.4042 402.688Z" fill="black"/>
<path opacity="0.1" d="M246.863 391.081C246.863 410.585 219.762 404.552 186.578 404.552C153.395 404.552 126.696 410.585 126.696 391.081C126.696 371.578 153.794 367.336 186.977 367.336C220.161 367.336 246.863 371.578 246.863 391.081Z" fill="black"/>
<path d="M246.863 386.279C246.863 405.783 219.762 399.75 186.578 399.75C153.395 399.75 126.696 405.783 126.696 386.279C126.696 366.776 153.794 362.534 186.977 362.534C220.161 362.534 246.863 366.776 246.863 386.279Z" fill="#3F3D56"/>
<path d="M252.03 296.922C250.431 297.741 248.911 298.707 247.49 299.808C246.062 300.916 244.97 302.401 244.333 304.095C243.533 302.217 242.879 300.279 242.378 298.299C241.251 294.747 239.917 291.263 238.384 287.867C240.901 286.905 243.083 285.226 244.662 283.038C247.749 286.121 250.924 289.338 252.461 293.428C252.725 294.133 253.495 294.884 253.674 295.515C253.927 296.407 252.704 296.549 252.03 296.922Z" fill="#FFBFC5"/>
<path d="M281.088 372.1C284.461 373.169 287.607 374.857 290.365 377.079C290.572 377.209 290.723 377.414 290.786 377.652C290.856 378.188 290.143 378.406 289.625 378.556C288.102 378.996 287.129 380.431 286.008 381.554C284.887 382.676 283.085 383.558 281.777 382.661C281.433 382.397 281.133 382.08 280.888 381.722L275.362 374.486C277.236 373.435 279.206 372.568 281.245 371.895" fill="#F1F1F1"/>
<path d="M291.023 373.606C291.755 374.354 292.072 375.431 292.79 376.194C293.273 376.656 293.825 377.04 294.426 377.332L298.654 379.666C299.304 380.052 299.988 380.376 300.697 380.635C301.494 380.858 302.304 381.027 303.123 381.143C304.295 381.363 305.442 381.703 306.545 382.156C307.374 382.496 308.299 383.084 308.295 383.982C308.261 384.421 308.082 384.837 307.787 385.163C306.12 387.269 303.169 387.736 300.503 388.019C294.731 388.631 288.824 389.09 283.181 387.725C282.08 387.522 281.039 387.07 280.137 386.404C278.435 384.988 278.095 382.41 278.731 380.286C278.911 379.471 279.392 378.755 280.076 378.28C280.97 377.766 282.083 378.005 283.11 377.926C284.203 377.776 285.261 377.438 286.239 376.926C286.884 376.634 287.627 376.258 287.765 375.488C287.893 374.774 287.057 374.059 287.233 373.421C287.623 372.007 290.349 372.915 291.023 373.606Z" fill="#575A89"/>
<path opacity="0.1" d="M291.023 373.606C291.755 374.354 292.072 375.431 292.79 376.194C293.273 376.656 293.825 377.04 294.426 377.332L298.654 379.666C299.304 380.052 299.988 380.376 300.697 380.635C301.494 380.858 302.304 381.027 303.123 381.143C304.295 381.363 305.442 381.703 306.545 382.156C307.374 382.496 308.299 383.084 308.295 383.982C308.261 384.421 308.082 384.837 307.787 385.163C306.12 387.269 303.169 387.736 300.503 388.019C294.731 388.631 288.824 389.09 283.181 387.725C282.08 387.522 281.039 387.07 280.137 386.404C278.435 384.988 278.095 382.41 278.731 380.286C278.911 379.471 279.392 378.755 280.076 378.28C280.97 377.766 282.083 378.005 283.11 377.926C284.203 377.776 285.261 377.438 286.239 376.926C286.884 376.634 287.627 376.258 287.765 375.488C287.893 374.774 287.057 374.059 287.233 373.421C287.623 372.007 290.349 372.915 291.023 373.606Z" fill="black"/>
<path d="M300.833 396.773C301.426 397.164 302.018 397.556 302.609 397.949C303.154 398.24 303.602 398.684 303.9 399.226C304.285 400.134 303.764 401.162 303.185 401.959C301.447 404.343 299.074 406.187 296.339 407.281C295.391 407.677 294.388 407.927 293.366 408.025C293.132 408.061 292.892 408.031 292.675 407.937C292.133 407.651 292.211 406.874 292.204 406.26C292.186 404.478 290.844 403.031 289.638 401.722C288.432 400.413 287.203 398.801 287.479 397.04C287.729 396.004 288.259 395.056 289.01 394.301C289.678 393.46 290.461 392.719 291.337 392.098C292.592 391.275 293.034 391.718 294.215 392.473C296.431 393.89 298.638 395.323 300.833 396.773Z" fill="#F1F1F1"/>
<path d="M295.061 405.455C295.544 405.578 296.049 405.584 296.535 405.474C297.021 405.364 297.475 405.141 297.859 404.822C298.621 404.178 299.24 403.379 299.676 402.48C300.107 401.679 300.483 400.849 300.8 399.995C301.172 398.996 301.516 397.891 302.391 397.285C303.452 396.55 304.946 396.838 306.024 397.547C307.041 398.342 307.974 399.239 308.81 400.224C311.05 402.319 313.765 403.834 316.721 404.639C319.664 405.436 322.647 406.076 325.657 406.555C326.259 406.636 326.842 406.824 327.377 407.111C328.587 407.851 328.991 409.504 328.654 410.886C328.227 412.249 327.461 413.48 326.427 414.463C325.614 415.431 324.605 416.215 323.468 416.762C322.506 417.114 321.493 417.307 320.469 417.332C315.511 417.67 310.53 417.279 305.684 416.17C303.904 415.685 302.093 415.323 300.264 415.085C299.149 414.986 298.026 415.018 296.909 414.942C294.689 414.789 292.518 414.214 290.512 413.248C290.023 413.069 289.611 412.726 289.345 412.277C289.201 411.865 289.171 411.42 289.258 410.992L289.999 404.486C290.064 403.919 290.252 403.216 290.813 403.127C291.347 403.043 291.735 403.592 292.072 404.017C292.723 404.8 293.616 405.344 294.61 405.562C295.604 405.779 296.641 405.66 297.559 405.221" fill="#575A89"/>
<path d="M252.12 323.424C255.374 323.056 259.148 322.995 261.348 325.427C262.698 326.919 263.108 329.009 263.574 330.968C264.305 334.258 265.491 337.429 267.1 340.388C268.135 342.221 269.39 343.942 270.184 345.892C270.998 347.891 271.297 350.055 271.773 352.16C273.681 360.481 278.337 367.911 284.986 373.242C283.812 376.444 280.417 378.274 277.114 379.092C276.414 379.39 275.635 379.443 274.901 379.242C274.167 379.042 273.522 378.6 273.07 377.986C271.524 376.314 270.085 374.545 268.761 372.691C264 366.315 259.167 359.804 256.574 352.274C255.664 349.631 254.754 346.547 252.194 345.443C250.734 344.813 249.065 345.01 247.498 345.276C243.996 345.872 240.55 346.759 237.195 347.93C233.618 349.178 229.523 350.714 226.249 348.804C224.291 347.661 223.125 345.467 222.695 343.235C222.371 340.982 222.368 338.694 222.686 336.44C222.707 335.42 222.951 334.418 223.4 333.502C223.853 332.818 224.434 332.228 225.111 331.765C228.034 329.538 231.286 327.781 234.748 326.557C238.056 325.388 241.611 324.991 245.062 324.413C247.405 324.021 249.758 323.691 252.12 323.424Z" fill="#575A89"/>
<path opacity="0.1" d="M252.12 323.424C255.374 323.056 259.148 322.995 261.348 325.427C262.698 326.919 263.108 329.009 263.574 330.968C264.305 334.258 265.491 337.429 267.1 340.388C268.135 342.221 269.39 343.942 270.184 345.892C270.998 347.891 271.297 350.055 271.773 352.16C273.681 360.481 278.337 367.911 284.986 373.242C283.812 376.444 280.417 378.274 277.114 379.092C276.414 379.39 275.635 379.443 274.901 379.242C274.167 379.042 273.522 378.6 273.07 377.986C271.524 376.314 270.085 374.545 268.761 372.691C264 366.315 259.167 359.804 256.574 352.274C255.664 349.631 254.754 346.547 252.194 345.443C250.734 344.813 249.065 345.01 247.498 345.276C243.996 345.872 240.55 346.759 237.195 347.93C233.618 349.178 229.523 350.714 226.249 348.804C224.291 347.661 223.125 345.467 222.695 343.235C222.371 340.982 222.368 338.694 222.686 336.44C222.707 335.42 222.951 334.418 223.4 333.502C223.853 332.818 224.434 332.228 225.111 331.765C228.034 329.538 231.286 327.781 234.748 326.557C238.056 325.388 241.611 324.991 245.062 324.413C247.405 324.021 249.758 323.691 252.12 323.424Z" fill="black"/>
<path d="M270.748 346.963C272.258 347.727 273.644 348.715 274.86 349.893C276.116 351.377 277.069 353.093 277.667 354.944C277.935 355.562 278.099 356.22 278.153 356.891C278.177 357.227 278.125 357.565 278.001 357.878C277.876 358.191 277.682 358.471 277.433 358.698C276.83 359.086 276.116 359.261 275.402 359.195C274.459 359.203 273.516 359.178 272.573 359.121C272 359.117 271.432 359.009 270.897 358.803C270.408 358.552 269.966 358.216 269.592 357.812C267.933 356.267 266.575 354.426 265.585 352.385C264.902 350.874 263.778 347.391 264.853 345.819C265.961 344.199 269.577 346.296 270.748 346.963Z" fill="#FFBFC5"/>
<path d="M225.124 346.424C229.937 347.97 235.06 348.147 240.092 348.618C248.555 349.412 256.916 351.07 265.044 353.566C266.741 353.981 268.339 354.727 269.748 355.763C270.836 356.772 271.757 357.947 272.477 359.246C273.799 361.266 274.997 363.367 276.062 365.535C276.977 367.494 277.673 369.548 278.524 371.536C281.381 378.191 285.899 383.996 291.642 388.391C292.692 389.192 293.861 390.063 294.131 391.358C294.252 392.192 294.116 393.042 293.742 393.796C292.501 396.695 289.925 398.803 287.223 400.417C286.061 401.111 284.783 401.816 284.211 403.045C280.104 401.344 277.051 397.718 274.509 394.061C271.968 390.405 269.713 386.476 266.456 383.443C265.021 382.108 263.391 380.944 262.262 379.34C260.54 376.891 260.074 373.54 257.755 371.65C255.42 369.747 252.07 370.006 249.075 370.3C233.735 371.807 218.278 371.639 202.974 369.8C199.793 369.417 196.524 368.93 193.768 367.29C191.012 365.65 188.866 362.574 189.257 359.383C189.623 356.397 192.102 354.029 194.866 352.86C197.63 351.691 200.684 351.482 203.665 351.145C210.979 350.429 218.183 348.844 225.124 346.424V346.424Z" fill="#575A89"/>
<path d="M181.119 352.624C181.497 350.092 182.478 347.694 183.093 345.209C183.401 343.646 183.792 342.1 184.262 340.577C184.278 340.534 184.295 340.492 184.311 340.45C184.468 340.437 184.619 340.39 184.755 340.311C184.892 340.233 185.009 340.126 185.099 339.997C185.183 339.776 185.206 339.535 185.166 339.302C185.154 339.054 185.161 338.805 185.188 338.559C186.195 336.865 187.295 335.23 188.483 333.66C190.567 330.698 192.372 327.55 194.173 324.408C195.651 321.832 197.13 319.25 198.353 316.543C199.27 314.514 200.041 312.416 201.055 310.433C204.663 303.375 211.148 298.176 218.124 294.44C224.815 290.856 232.049 288.44 239.084 285.591C239.265 285.769 239.429 285.963 239.575 286.171C243.376 291.383 243.786 298.233 245.35 304.497C245.982 307.026 246.826 309.547 246.824 312.154C246.822 316.002 244.989 319.583 243.166 322.97C241.537 326.206 239.614 329.285 237.421 332.167C236.344 333.504 235.159 334.749 234.076 336.08C229.642 341.535 227.081 348.242 224.591 354.823C223.15 358.633 220.794 362.013 219.21 365.765C218.601 367.208 218.25 368.762 217.485 370.128C216.72 371.493 215.389 372.694 213.828 372.701C213.371 372.689 212.918 372.617 212.479 372.489C206.827 371.031 202.094 367.28 197.398 363.806C196.559 363.186 195.716 362.571 194.837 362.012C193.949 361.447 193.026 360.94 192.104 360.433C191.405 360.049 190.706 359.665 190.007 359.281C187.717 358.022 185.424 356.762 183.038 355.697C182.321 355.408 181.632 355.053 180.98 354.637C180.973 353.963 181.019 353.29 181.119 352.624V352.624Z" fill="#162E8F"/>
<path d="M255.011 296.489C262.202 296.489 268.032 290.641 268.032 283.427C268.032 276.212 262.202 270.364 255.011 270.364C247.819 270.364 241.989 276.212 241.989 283.427C241.989 290.641 247.819 296.489 255.011 296.489Z" fill="#FFBFC5"/>
<path d="M263.77 277.315C264.085 277.867 264.561 278.308 265.135 278.579C265.709 278.849 266.352 278.936 266.977 278.827C267.598 278.702 268.186 278.447 268.701 278.078C269.217 277.708 269.649 277.234 269.969 276.686C270.603 275.583 270.982 274.352 271.078 273.083C271.18 272.596 271.184 272.093 271.091 271.604C270.997 271.116 270.809 270.65 270.536 270.235C270.05 269.763 269.493 269.372 268.884 269.076C268.045 268.55 267.341 267.835 266.827 266.987C266.463 266.383 266.201 265.723 265.874 265.098C264.689 262.841 262.385 261.007 259.844 261.09C258.623 261.13 257.46 261.595 256.257 261.807C252.22 262.517 247.832 260.374 244.087 262.045C243.165 262.495 242.308 263.068 241.54 263.749C240.486 264.621 239.473 265.54 238.5 266.505C237.655 267.228 237.016 268.161 236.647 269.211C236.138 271.127 237.348 273.269 236.578 275.095C236.315 275.618 236 276.114 235.639 276.574C234.79 277.824 235.713 282.704 235.619 284.214C235.511 284.953 235.698 285.706 236.14 286.307C236.754 286.994 237.788 287.054 238.707 287.065L240.398 287.085C240.65 287.103 240.904 287.076 241.148 287.008C241.48 286.859 241.771 286.634 241.999 286.35C243.405 284.864 243.709 280.004 245.752 280.022C246.062 280.004 246.37 280.084 246.632 280.25C247.003 280.523 247.111 281.023 247.374 281.4C247.673 281.755 248.079 282.004 248.531 282.11C248.983 282.216 249.457 282.173 249.882 281.988C250.726 281.597 251.46 281.002 252.018 280.257C252.574 279.513 253.249 278.867 254.015 278.343C255.103 277.707 256.333 277.429 257.392 276.71C258.278 276.108 258.781 275.236 259.576 274.571C259.893 274.297 260.293 274.135 260.711 274.111C261.13 274.088 261.545 274.204 261.891 274.441C263.144 275.097 263.199 276.172 263.77 277.315Z" fill="#2F2E41"/>
<path opacity="0.1" d="M233.683 300.329C236.724 299.896 239.823 300.146 242.757 301.06C243.736 301.285 244.62 301.811 245.285 302.565C245.664 303.137 245.91 303.786 246.006 304.465C246.604 307.589 246.221 310.822 244.908 313.718C244.814 313.862 244.752 314.025 244.726 314.196C244.7 314.366 244.71 314.54 244.756 314.707C244.888 314.908 245.061 315.08 245.263 315.21C245.446 315.387 245.589 315.6 245.684 315.836C245.778 316.072 245.822 316.325 245.812 316.579C245.801 316.834 245.738 317.083 245.624 317.31C245.511 317.538 245.351 317.739 245.154 317.9C244.912 318.077 244.593 318.232 244.545 318.53C244.494 318.854 244.798 319.109 245.034 319.336C245.381 319.677 245.637 320.099 245.778 320.565C245.919 321.031 245.941 321.525 245.842 322.001C245.714 322.385 245.627 322.781 245.581 323.183C245.629 323.674 245.774 324.151 246.005 324.587C246.401 325.57 246.536 326.639 246.398 327.691C246.272 328.188 246.26 328.707 246.362 329.209C246.505 329.541 246.699 329.849 246.937 330.121C247.873 331.387 248.078 333.506 246.721 334.3C247.302 334.599 247.775 335.072 248.075 335.654C248.375 336.236 248.486 336.897 248.394 337.546C249.204 337.112 250.187 337.667 250.863 338.292C251.538 338.918 252.228 339.682 253.146 339.728C253.786 339.76 254.46 339.427 255.044 339.692C255.932 340.094 255.902 341.538 256.775 341.971C257.541 342.351 258.608 341.731 259.261 342.284C259.488 342.477 259.604 342.775 259.823 342.976C260.318 343.431 261.092 343.238 261.763 343.211C262.559 343.233 263.336 343.464 264.015 343.88C264.695 344.297 265.254 344.884 265.638 345.584C266.388 346.993 266.84 348.543 266.967 350.135C267.138 351.001 267.121 351.893 266.917 352.751C266.807 353.178 266.574 353.563 266.247 353.859C265.921 354.154 265.515 354.346 265.08 354.412C257.088 354.93 249.202 353.008 241.422 351.108C239.136 350.55 236.811 349.896 234.905 348.514C233.174 347.257 231.9 345.48 230.658 343.736C228.368 340.519 226.064 337.277 224.425 333.682C222.315 329.056 221.375 323.995 220.453 318.992C220.135 317.651 220.022 316.269 220.118 314.894C220.394 313.285 221.007 311.754 221.917 310.4C223.016 308.606 224.232 306.886 225.557 305.251C227.571 302.665 230.464 300.913 233.683 300.329Z" fill="black"/>
<path d="M234.21 299.801C237.251 299.367 240.35 299.617 243.284 300.532C244.263 300.756 245.147 301.282 245.812 302.037C246.191 302.608 246.437 303.257 246.533 303.937C247.131 307.06 246.748 310.293 245.435 313.189C245.341 313.334 245.279 313.497 245.253 313.667C245.227 313.838 245.237 314.012 245.283 314.178C245.415 314.379 245.588 314.551 245.79 314.682C245.973 314.858 246.116 315.071 246.211 315.307C246.305 315.543 246.349 315.797 246.339 316.051C246.329 316.305 246.265 316.554 246.151 316.782C246.038 317.009 245.878 317.21 245.682 317.371C245.439 317.549 245.12 317.703 245.072 318.001C245.021 318.326 245.325 318.58 245.561 318.808C245.908 319.148 246.164 319.571 246.305 320.037C246.446 320.502 246.468 320.996 246.369 321.473C246.241 321.856 246.154 322.252 246.108 322.654C246.157 323.145 246.301 323.622 246.532 324.058C246.928 325.042 247.063 326.111 246.925 327.162C246.799 327.659 246.787 328.178 246.889 328.681C247.032 329.013 247.226 329.321 247.464 329.592C248.4 330.859 248.605 332.977 247.248 333.771C247.829 334.07 248.302 334.544 248.602 335.126C248.902 335.708 249.013 336.369 248.921 337.017C249.731 336.583 250.714 337.138 251.39 337.764C252.065 338.389 252.755 339.154 253.673 339.2C254.313 339.232 254.987 338.899 255.571 339.163C256.459 339.565 256.429 341.009 257.302 341.442C258.068 341.822 259.135 341.202 259.788 341.756C260.015 341.948 260.131 342.246 260.35 342.447C260.846 342.903 261.619 342.709 262.291 342.682C263.086 342.705 263.863 342.936 264.542 343.352C265.222 343.768 265.781 344.355 266.165 345.055C266.915 346.465 267.367 348.014 267.494 349.607C267.665 350.472 267.648 351.364 267.444 352.223C267.334 352.65 267.101 353.035 266.774 353.33C266.448 353.625 266.042 353.818 265.607 353.883C257.615 354.402 249.73 352.48 241.949 350.579C239.663 350.021 237.338 349.368 235.432 347.985C233.701 346.729 232.427 344.952 231.185 343.207C228.895 339.99 226.591 336.748 224.952 333.154C222.842 328.527 221.902 323.466 220.98 318.463C220.662 317.122 220.549 315.74 220.645 314.365C220.921 312.757 221.534 311.225 222.444 309.872C223.543 308.077 224.759 306.357 226.084 304.723C228.098 302.136 230.991 300.384 234.21 299.801Z" fill="#162E8F"/>
</g>
<defs>
<clipPath id="clip0">
<rect width="700" height="444" fill="white" transform="translate(0 3)"/>
</clipPath>
</defs>
</svg>
