<svg width="710" height="450" viewBox="0 0 710 450" fill="none" xmlns="http://www.w3.org/2000/svg">
<g clip-path="url(#clip0)">
<path d="M627.174 297.253C623.737 326.786 616.597 350.497 606.796 369.408C593.755 394.604 571.447 404.756 551.52 415.378C545.762 418.442 539.775 421.053 533.614 423.188C497.352 435.812 456.767 432.463 424.887 425.798C402.527 421.119 379.829 418.241 357.012 417.19C350.504 416.896 343.99 416.75 337.469 416.752C327.414 416.765 146.365 420.212 102.285 330.691C91.4016 308.609 83.9419 281.633 81.2618 248.751C73.6782 155.79 115.359 94.7356 169.123 54.8287C270.827 -20.6617 410.234 -17.4958 510.439 59.983C577.186 111.592 639.681 189.699 627.174 297.253Z" fill="#3F3D56"/>
<path d="M606.796 369.408C593.755 394.604 576.012 411.297 556.084 421.919C550.326 424.983 544.339 427.594 538.178 429.729C501.916 442.354 461.331 439.005 429.451 432.339C407.091 427.66 384.394 424.782 361.576 423.731C355.069 423.437 348.554 423.291 342.034 423.293C331.979 423.306 321.926 423.681 311.875 424.418C246.557 429.232 146.365 420.212 102.285 330.691L212.577 116.406L253.625 222.123L266.725 255.868L302.831 206.169L321.474 180.509L406.374 278.147L430.37 224.988L596.507 360.989L605.773 368.57L606.796 369.408Z" fill="#F2F2F2"/>
<path opacity="0.1" d="M196.927 185.087L213.881 147.803L237.356 202.094L217.142 162.847L196.927 185.087Z" fill="black"/>
<path opacity="0.1" d="M361.577 423.731C355.069 423.437 348.555 423.291 342.034 423.293L266.726 255.868L361.577 423.731Z" fill="black"/>
<path opacity="0.1" d="M302.832 206.168L321.474 191.628L406.244 289.744L320.17 206.018L302.832 206.168Z" fill="black"/>
<path opacity="0.1" d="M556.084 421.919C550.326 424.983 544.34 427.594 538.179 429.729L406.374 278.147L556.084 421.919Z" fill="black"/>
<path d="M314.301 68.6564C315.381 68.6564 316.257 67.7779 316.257 66.6941C316.257 65.6104 315.381 64.7318 314.301 64.7318C313.221 64.7318 312.345 65.6104 312.345 66.6941C312.345 67.7779 313.221 68.6564 314.301 68.6564Z" fill="#F2F2F2"/>
<path d="M260.179 136.029C261.259 136.029 262.135 135.151 262.135 134.067C262.135 132.983 261.259 132.105 260.179 132.105C259.098 132.105 258.222 132.983 258.222 134.067C258.222 135.151 259.098 136.029 260.179 136.029Z" fill="#F2F2F2"/>
<path d="M392.55 147.149C393.27 147.149 393.854 146.563 393.854 145.841C393.854 145.118 393.27 144.533 392.55 144.533C391.83 144.533 391.246 145.118 391.246 145.841C391.246 146.563 391.83 147.149 392.55 147.149Z" fill="#F2F2F2"/>
<path d="M118.678 176.584C119.398 176.584 119.982 175.998 119.982 175.276C119.982 174.553 119.398 173.967 118.678 173.967C117.958 173.967 117.374 174.553 117.374 175.276C117.374 175.998 117.958 176.584 118.678 176.584Z" fill="#F2F2F2"/>
<path d="M400.375 66.04C401.095 66.04 401.679 65.4543 401.679 64.7318C401.679 64.0093 401.095 63.4236 400.375 63.4236C399.655 63.4236 399.071 64.0093 399.071 64.7318C399.071 65.4543 399.655 66.04 400.375 66.04Z" fill="#F2F2F2"/>
<path d="M481.233 128.834C481.953 128.834 482.537 128.248 482.537 127.526C482.537 126.803 481.953 126.218 481.233 126.218C480.512 126.218 479.928 126.803 479.928 127.526C479.928 128.248 480.512 128.834 481.233 128.834Z" fill="#F2F2F2"/>
<path d="M560.786 228.258C561.506 228.258 562.09 227.673 562.09 226.95C562.09 226.228 561.506 225.642 560.786 225.642C560.066 225.642 559.482 226.228 559.482 226.95C559.482 227.673 560.066 228.258 560.786 228.258Z" fill="#F2F2F2"/>
<path d="M199.535 79.292H197.736V77.4867H196.771V79.292H194.971V80.2608H196.771V82.0654H197.736V80.2608H199.535V79.292Z" fill="#F2F2F2"/>
<path d="M552.961 277.486H551.161V275.681H550.196V277.486H548.396V278.455H550.196V280.259H551.161V278.455H552.961V277.486Z" fill="#F2F2F2"/>
<path d="M709.459 401.596C709.459 412.434 550.642 450 354.73 450C158.818 450 0 412.434 0 401.596C0 390.759 158.818 410.754 354.73 410.754C550.642 410.754 709.459 390.759 709.459 401.596Z" fill="#3F3D56"/>
<path opacity="0.1" d="M709.459 401.596C709.459 412.434 550.642 450 354.73 450C158.818 450 0 412.434 0 401.596C0 390.759 158.818 410.754 354.73 410.754C550.642 410.754 709.459 390.759 709.459 401.596Z" fill="black"/>
<path d="M354.73 421.219C550.642 421.219 709.459 412.434 709.459 401.596C709.459 390.759 550.642 381.973 354.73 381.973C158.818 381.973 0 390.759 0 401.596C0 412.434 158.818 421.219 354.73 421.219Z" fill="#3F3D56"/>
<path d="M370.38 374.124C370.38 395.799 360.745 389.822 348.861 389.822C336.977 389.822 327.343 395.799 327.343 374.124C327.343 352.449 348.861 311.33 348.861 311.33C348.861 311.33 370.38 352.449 370.38 374.124Z" fill="#FF6584"/>
<path opacity="0.1" d="M358.642 382.417C358.642 392.269 354.263 389.552 348.861 389.552C343.459 389.552 339.08 392.269 339.08 382.417C339.08 372.564 348.861 353.874 348.861 353.874C348.861 353.874 358.642 372.564 358.642 382.417Z" fill="black"/>
<path d="M372.988 395.709H324.734C321.493 395.709 318.865 398.345 318.865 401.596C318.865 404.847 321.493 407.483 324.734 407.483H372.988C376.229 407.483 378.857 404.847 378.857 401.596C378.857 398.345 376.229 395.709 372.988 395.709Z" fill="#2F2E41"/>
<path d="M372.988 383.935H324.734C321.493 383.935 318.865 386.571 318.865 389.822C318.865 393.074 321.493 395.709 324.734 395.709H372.988C376.229 395.709 378.857 393.074 378.857 389.822C378.857 386.571 376.229 383.935 372.988 383.935Z" fill="#2F2E41"/>
<path d="M89.3345 320.857C89.3345 357.057 111.974 386.35 139.953 386.35Z" fill="#3F3D56"/>
<path d="M139.953 386.35C139.953 349.743 165.217 320.121 196.439 320.121Z" fill="#162E8F"/>
<path d="M107.674 324.139C107.674 358.525 122.111 386.35 139.953 386.35Z" fill="#162E8F"/>
<path d="M139.953 386.35C139.953 339.575 169.155 301.724 205.243 301.724Z" fill="#3F3D56"/>
<path d="M129.304 386.812C129.304 386.812 136.482 386.59 138.646 385.045C140.809 383.5 149.688 381.654 150.225 384.133C150.761 386.611 161.013 396.459 152.908 396.525C144.804 396.59 134.077 395.258 131.918 393.939C129.758 392.62 129.304 386.812 129.304 386.812Z" fill="#A8A8A8"/>
<path opacity="0.2" d="M153.053 395.662C144.948 395.727 134.222 394.396 132.063 393.076C130.418 392.071 129.763 388.466 129.544 386.803C129.392 386.809 129.304 386.812 129.304 386.812C129.304 386.812 129.759 392.62 131.918 393.939C134.077 395.258 144.804 396.59 152.908 396.525C155.248 396.506 156.056 395.671 156.011 394.434C155.686 395.181 154.794 395.648 153.053 395.662Z" fill="black"/>
<path d="M470.427 344.754C470.427 369.629 485.984 389.758 505.209 389.758Z" fill="#3F3D56"/>
<path d="M505.209 389.758C505.209 364.603 522.57 344.248 544.024 344.248Z" fill="#162E8F"/>
<path d="M483.029 347.009C483.029 370.638 492.95 389.758 505.209 389.758Z" fill="#162E8F"/>
<path d="M505.209 389.757C505.209 357.616 525.275 331.607 550.073 331.607Z" fill="#3F3D56"/>
<path d="M497.892 390.075C497.892 390.075 502.825 389.922 504.311 388.861C505.798 387.799 511.899 386.531 512.268 388.234C512.637 389.937 519.681 396.704 514.112 396.749C508.543 396.794 501.172 395.879 499.688 394.972C498.204 394.066 497.892 390.075 497.892 390.075Z" fill="#A8A8A8"/>
<path opacity="0.2" d="M514.211 396.156C508.642 396.201 501.271 395.286 499.787 394.379C498.657 393.689 498.207 391.212 498.057 390.068C497.952 390.073 497.892 390.075 497.892 390.075C497.892 390.075 498.204 394.066 499.688 394.972C501.172 395.879 508.543 396.794 514.112 396.749C515.719 396.736 516.274 396.162 516.244 395.312C516.021 395.826 515.408 396.146 514.211 396.156Z" fill="black"/>
<path d="M582.834 404.695C582.834 404.695 590.242 403.564 592.29 401.692C594.338 399.819 603.303 396.794 604.169 399.293C605.034 401.793 616.88 410.705 608.494 411.791C600.108 412.876 588.832 412.844 586.431 411.748C584.03 410.653 582.834 404.695 582.834 404.695Z" fill="#A8A8A8"/>
<path opacity="0.2" d="M608.536 410.879C600.15 411.965 588.874 411.932 586.473 410.836C584.645 410.002 583.516 406.35 583.082 404.655C582.925 404.681 582.834 404.695 582.834 404.695C582.834 404.695 584.03 410.653 586.431 411.748C588.832 412.844 600.108 412.876 608.494 411.791C610.915 411.478 611.647 410.511 611.447 409.236C611.204 410.051 610.338 410.646 608.536 410.879Z" fill="black"/>
<path d="M400.544 404.157C400.544 404.157 406.796 403.203 408.524 401.623C410.252 400.042 417.819 397.489 418.549 399.598C419.28 401.708 429.277 409.23 422.2 410.146C415.123 411.062 405.606 411.034 403.58 410.11C401.553 409.185 400.544 404.157 400.544 404.157Z" fill="#A8A8A8"/>
<path opacity="0.2" d="M422.235 409.376C415.158 410.293 405.642 410.265 403.615 409.34C402.072 408.636 401.12 405.554 400.753 404.123C400.621 404.145 400.544 404.157 400.544 404.157C400.544 404.157 401.553 409.185 403.58 410.11C405.606 411.034 415.123 411.062 422.2 410.146C424.243 409.881 424.861 409.066 424.692 407.99C424.487 408.677 423.756 409.18 422.235 409.376Z" fill="black"/>
<path d="M79.807 401.026C79.807 401.026 84.6737 400.283 86.0192 399.053C87.3647 397.823 93.2555 395.835 93.8239 397.477C94.3923 399.119 102.175 404.975 96.6658 405.688C91.1561 406.401 83.7475 406.38 82.17 405.66C80.5925 404.94 79.807 401.026 79.807 401.026Z" fill="#A8A8A8"/>
<path opacity="0.2" d="M96.6935 405.089C91.1838 405.802 83.7752 405.781 82.1977 405.061C80.9963 404.513 80.2549 402.113 79.9693 401C79.8665 401.017 79.807 401.026 79.807 401.026C79.807 401.026 80.5925 404.94 82.17 405.66C83.7475 406.38 91.1561 406.401 96.6658 405.688C98.2562 405.482 98.7377 404.847 98.6061 404.009C98.4462 404.545 97.8773 404.936 96.6935 405.089Z" fill="black"/>
<path opacity="0.1" d="M250.199 393.326C250.199 413.093 222.731 406.979 189.1 406.979C155.468 406.979 128.408 413.093 128.408 393.326C128.408 373.558 155.873 369.259 189.504 369.259C223.136 369.259 250.199 373.558 250.199 393.326Z" fill="black"/>
<path d="M250.199 388.459C250.199 408.226 222.731 402.112 189.1 402.112C155.468 402.112 128.408 408.226 128.408 388.459C128.408 368.691 155.873 364.392 189.504 364.392C223.136 364.392 250.199 368.691 250.199 388.459Z" fill="#3F3D56"/>
<path d="M255.436 297.894C253.815 298.724 252.275 299.703 250.834 300.819C249.387 301.943 248.28 303.447 247.635 305.164C246.824 303.261 246.162 301.297 245.653 299.29C244.511 295.689 243.159 292.159 241.605 288.716C244.156 287.742 246.368 286.04 247.968 283.822C251.097 286.948 254.315 290.207 255.872 294.353C256.14 295.067 256.921 295.828 257.102 296.468C257.358 297.372 256.119 297.516 255.436 297.894Z" fill="#FFBFC5"/>
<path d="M284.887 374.088C288.305 375.171 291.494 376.882 294.289 379.134C294.499 379.266 294.652 379.474 294.716 379.714C294.787 380.258 294.064 380.479 293.539 380.631C291.996 381.077 291.01 382.531 289.873 383.669C288.737 384.807 286.911 385.7 285.585 384.791C285.236 384.524 284.932 384.203 284.684 383.84L279.083 376.506C280.982 375.441 282.979 374.562 285.046 373.88" fill="#F1F1F1"/>
<path d="M294.956 375.614C295.697 376.373 296.019 377.464 296.747 378.237C297.236 378.705 297.796 379.094 298.404 379.39L302.69 381.756C303.348 382.147 304.041 382.476 304.76 382.738C305.568 382.964 306.389 383.136 307.22 383.253C308.407 383.476 309.569 383.82 310.688 384.279C311.528 384.624 312.465 385.22 312.461 386.131C312.426 386.576 312.246 386.997 311.947 387.327C310.257 389.462 307.266 389.935 304.564 390.222C298.714 390.842 292.727 391.308 287.008 389.924C285.892 389.718 284.837 389.26 283.923 388.585C282.197 387.15 281.853 384.537 282.498 382.384C282.68 381.559 283.167 380.833 283.861 380.352C284.766 379.831 285.895 380.073 286.936 379.992C288.043 379.841 289.116 379.498 290.107 378.979C290.76 378.683 291.513 378.302 291.653 377.522C291.783 376.798 290.936 376.073 291.114 375.427C291.509 373.994 294.272 374.914 294.956 375.614Z" fill="#575A89"/>
<path opacity="0.1" d="M294.956 375.614C295.697 376.373 296.019 377.464 296.747 378.237C297.236 378.705 297.796 379.094 298.404 379.39L302.69 381.756C303.348 382.147 304.041 382.476 304.76 382.738C305.568 382.964 306.389 383.136 307.22 383.253C308.407 383.476 309.569 383.82 310.688 384.279C311.528 384.624 312.465 385.22 312.461 386.131C312.426 386.576 312.246 386.997 311.947 387.327C310.257 389.462 307.266 389.935 304.564 390.222C298.714 390.842 292.727 391.308 287.008 389.924C285.892 389.718 284.837 389.26 283.923 388.585C282.197 387.15 281.853 384.537 282.498 382.384C282.68 381.559 283.167 380.833 283.861 380.352C284.766 379.831 285.895 380.073 286.936 379.992C288.043 379.841 289.116 379.498 290.107 378.979C290.76 378.683 291.513 378.302 291.653 377.522C291.783 376.798 290.936 376.073 291.114 375.427C291.509 373.994 294.272 374.914 294.956 375.614Z" fill="black"/>
<path d="M304.899 399.094C305.499 399.491 306.099 399.888 306.698 400.286C307.251 400.581 307.705 401.031 308.007 401.581C308.397 402.501 307.869 403.542 307.282 404.35C305.52 406.767 303.116 408.636 300.344 409.744C299.382 410.145 298.367 410.399 297.33 410.498C297.093 410.535 296.85 410.504 296.63 410.409C296.081 410.119 296.16 409.332 296.153 408.709C296.134 406.903 294.774 405.436 293.552 404.11C292.33 402.783 291.084 401.149 291.364 399.365C291.617 398.314 292.154 397.354 292.915 396.589C293.592 395.737 294.387 394.985 295.274 394.356C296.545 393.522 296.994 393.971 298.19 394.736C300.437 396.172 302.673 397.625 304.899 399.094Z" fill="#F1F1F1"/>
<path d="M299.048 407.894C299.538 408.018 300.05 408.025 300.542 407.913C301.035 407.802 301.495 407.575 301.884 407.252C302.657 406.599 303.284 405.79 303.725 404.878C304.163 404.066 304.544 403.225 304.865 402.36C305.242 401.347 305.591 400.228 306.477 399.613C307.552 398.869 309.067 399.16 310.159 399.879C311.19 400.685 312.136 401.594 312.983 402.592C315.253 404.715 318.005 406.251 321.001 407.066C323.983 407.874 327.007 408.523 330.058 409.009C330.668 409.091 331.258 409.281 331.801 409.572C333.028 410.322 333.437 411.998 333.096 413.398C332.663 414.779 331.886 416.027 330.839 417.024C330.014 418.004 328.992 418.798 327.839 419.353C326.864 419.711 325.837 419.906 324.8 419.931C319.774 420.273 314.726 419.877 309.815 418.754C308.011 418.262 306.176 417.895 304.322 417.654C303.192 417.554 302.054 417.585 300.922 417.508C298.671 417.354 296.471 416.771 294.437 415.792C293.942 415.61 293.525 415.263 293.255 414.808C293.109 414.39 293.078 413.939 293.167 413.505L293.918 406.911C293.983 406.337 294.174 405.624 294.743 405.534C295.284 405.449 295.678 406.005 296.018 406.436C296.679 407.23 297.584 407.781 298.591 408.002C299.598 408.222 300.65 408.101 301.581 407.656" fill="#575A89"/>
<path d="M255.527 324.754C258.825 324.381 262.65 324.319 264.88 326.785C266.248 328.297 266.663 330.415 267.136 332.4C267.876 335.735 269.079 338.949 270.709 341.948C271.758 343.806 273.03 345.549 273.835 347.526C274.66 349.552 274.963 351.745 275.446 353.879C277.379 362.312 282.098 369.842 288.837 375.245C287.647 378.491 284.206 380.345 280.859 381.174C280.15 381.476 279.359 381.53 278.616 381.327C277.872 381.124 277.218 380.675 276.76 380.054C275.193 378.358 273.735 376.566 272.392 374.687C267.567 368.224 262.669 361.625 260.041 353.994C259.119 351.316 258.197 348.19 255.602 347.071C254.122 346.432 252.43 346.631 250.842 346.902C247.293 347.505 243.8 348.405 240.4 349.591C236.775 350.856 232.624 352.412 229.307 350.477C227.321 349.319 226.14 347.095 225.704 344.833C225.376 342.549 225.373 340.231 225.695 337.946C225.717 336.912 225.964 335.896 226.419 334.969C226.878 334.275 227.467 333.677 228.153 333.208C231.116 330.951 234.411 329.17 237.92 327.93C241.273 326.745 244.876 326.343 248.373 325.757C250.748 325.359 253.133 325.025 255.527 324.754Z" fill="#575A89"/>
<path opacity="0.1" d="M255.527 324.754C258.825 324.381 262.65 324.319 264.88 326.785C266.248 328.297 266.663 330.415 267.136 332.4C267.876 335.735 269.079 338.949 270.709 341.948C271.758 343.806 273.03 345.549 273.835 347.526C274.66 349.552 274.963 351.745 275.446 353.879C277.379 362.312 282.098 369.842 288.837 375.245C287.647 378.491 284.206 380.345 280.859 381.174C280.15 381.476 279.359 381.53 278.616 381.327C277.872 381.124 277.218 380.675 276.76 380.054C275.193 378.358 273.735 376.566 272.392 374.687C267.567 368.224 262.669 361.625 260.041 353.994C259.119 351.316 258.197 348.19 255.602 347.071C254.122 346.432 252.43 346.631 250.842 346.902C247.293 347.505 243.8 348.405 240.4 349.591C236.775 350.856 232.624 352.412 229.307 350.477C227.321 349.319 226.14 347.095 225.704 344.833C225.376 342.549 225.373 340.231 225.695 337.946C225.717 336.912 225.964 335.896 226.419 334.969C226.878 334.275 227.467 333.677 228.153 333.208C231.116 330.951 234.411 329.17 237.92 327.93C241.273 326.745 244.876 326.343 248.373 325.757C250.748 325.359 253.133 325.025 255.527 324.754Z" fill="black"/>
<path d="M274.407 348.611C275.937 349.385 277.342 350.386 278.575 351.581C279.847 353.084 280.814 354.824 281.42 356.7C281.691 357.326 281.857 357.993 281.912 358.673C281.937 359.014 281.884 359.356 281.757 359.673C281.631 359.99 281.434 360.275 281.182 360.504C280.572 360.898 279.847 361.075 279.124 361.009C278.168 361.017 277.212 360.992 276.257 360.934C275.676 360.93 275.101 360.82 274.558 360.611C274.062 360.357 273.614 360.017 273.235 359.606C271.554 358.04 270.177 356.175 269.174 354.106C268.482 352.575 267.342 349.045 268.432 347.451C269.555 345.81 273.22 347.935 274.407 348.611Z" fill="#FFBFC5"/>
<path d="M228.166 348.064C233.044 349.632 238.236 349.811 243.336 350.289C251.914 351.093 260.387 352.773 268.625 355.303C270.345 355.724 271.965 356.48 273.393 357.53C274.496 358.552 275.429 359.744 276.159 361.06C277.499 363.108 278.713 365.237 279.793 367.434C280.719 369.42 281.426 371.501 282.287 373.516C285.183 380.261 289.762 386.145 295.583 390.599C296.647 391.411 297.832 392.294 298.105 393.606C298.228 394.451 298.09 395.313 297.711 396.077C296.454 399.015 293.843 401.152 291.105 402.788C289.927 403.491 288.631 404.205 288.052 405.451C283.889 403.727 280.795 400.052 278.219 396.346C275.643 392.64 273.358 388.658 270.057 385.584C268.602 384.231 266.95 383.052 265.806 381.425C264.061 378.943 263.589 375.547 261.238 373.632C258.871 371.703 255.476 371.965 252.441 372.264C236.894 373.791 221.227 373.621 205.717 371.757C202.493 371.369 199.18 370.875 196.386 369.213C193.593 367.551 191.418 364.433 191.814 361.199C192.185 358.173 194.698 355.773 197.499 354.588C200.3 353.403 203.396 353.191 206.417 352.85C213.83 352.124 221.131 350.518 228.166 348.064V348.064Z" fill="#575A89"/>
<path d="M183.567 354.349C183.95 351.783 184.943 349.352 185.567 346.834C185.88 345.249 186.275 343.682 186.752 342.139C186.768 342.096 186.786 342.053 186.802 342.01C186.96 341.997 187.114 341.949 187.252 341.87C187.39 341.79 187.509 341.682 187.601 341.551C187.686 341.327 187.709 341.083 187.668 340.846C187.656 340.595 187.663 340.343 187.691 340.093C188.711 338.377 189.825 336.719 191.03 335.128C193.142 332.126 194.971 328.936 196.797 325.751C198.294 323.14 199.794 320.524 201.033 317.78C201.963 315.723 202.744 313.597 203.771 311.588C207.428 304.434 214.001 299.165 221.071 295.378C227.853 291.746 235.185 289.297 242.315 286.409C242.498 286.59 242.665 286.787 242.812 286.998C246.665 292.28 247.08 299.222 248.666 305.571C249.306 308.134 250.161 310.689 250.16 313.332C250.157 317.232 248.299 320.861 246.452 324.294C244.801 327.574 242.852 330.695 240.629 333.616C239.538 334.97 238.337 336.232 237.239 337.581C232.745 343.11 230.149 349.907 227.626 356.577C226.165 360.439 223.778 363.864 222.172 367.668C221.555 369.129 221.199 370.705 220.424 372.089C219.649 373.473 218.3 374.69 216.718 374.697C216.254 374.684 215.795 374.612 215.35 374.482C209.622 373.004 204.825 369.203 200.065 365.682C199.216 365.053 198.361 364.43 197.469 363.863C196.569 363.291 195.634 362.777 194.699 362.263C193.991 361.874 193.283 361.485 192.575 361.095C190.254 359.819 187.93 358.542 185.512 357.463C184.785 357.17 184.086 356.81 183.425 356.389C183.418 355.706 183.466 355.024 183.567 354.349V354.349Z" fill="#162E8F"/>
<path d="M258.457 297.455C265.746 297.455 271.654 291.528 271.654 284.216C271.654 276.905 265.746 270.977 258.457 270.977C251.168 270.977 245.259 276.905 245.259 284.216C245.259 291.528 251.168 297.455 258.457 297.455Z" fill="#FFBFC5"/>
<path d="M267.334 278.022C267.653 278.581 268.137 279.029 268.718 279.303C269.3 279.577 269.951 279.665 270.585 279.555C271.214 279.428 271.81 279.169 272.332 278.795C272.855 278.421 273.293 277.94 273.618 277.384C274.259 276.267 274.644 275.019 274.742 273.733C274.844 273.239 274.848 272.73 274.754 272.234C274.66 271.739 274.468 271.267 274.192 270.846C273.699 270.368 273.135 269.971 272.518 269.672C271.668 269.139 270.954 268.414 270.433 267.554C270.064 266.942 269.799 266.273 269.467 265.64C268.266 263.353 265.931 261.493 263.355 261.577C262.118 261.618 260.939 262.09 259.72 262.304C255.628 263.024 251.181 260.852 247.385 262.546C246.451 263.002 245.583 263.583 244.804 264.272C243.736 265.156 242.709 266.088 241.723 267.066C240.867 267.798 240.219 268.744 239.845 269.808C239.329 271.751 240.555 273.921 239.775 275.772C239.508 276.302 239.189 276.804 238.824 277.271C237.962 278.538 238.898 283.484 238.803 285.014C238.693 285.764 238.883 286.526 239.331 287.135C239.954 287.831 241.001 287.892 241.933 287.904L243.646 287.924C243.902 287.942 244.16 287.915 244.407 287.846C244.743 287.695 245.038 287.467 245.269 287.179C246.694 285.673 247.003 280.747 249.073 280.765C249.387 280.748 249.699 280.829 249.965 280.997C250.34 281.273 250.451 281.78 250.717 282.163C251.02 282.522 251.432 282.775 251.89 282.882C252.347 282.989 252.828 282.946 253.259 282.758C254.114 282.362 254.858 281.759 255.424 281.004C255.987 280.25 256.671 279.595 257.448 279.064C258.551 278.419 259.797 278.138 260.871 277.409C261.768 276.799 262.278 275.915 263.084 275.241C263.405 274.963 263.81 274.799 264.234 274.775C264.659 274.751 265.079 274.869 265.43 275.109C266.7 275.774 266.756 276.864 267.334 278.022Z" fill="#2F2E41"/>
<path opacity="0.1" d="M236.841 301.347C239.923 300.908 243.064 301.161 246.037 302.088C247.029 302.315 247.926 302.849 248.6 303.613C248.983 304.193 249.233 304.851 249.331 305.539C249.937 308.705 249.548 311.982 248.218 314.916C248.123 315.063 248.06 315.228 248.033 315.401C248.007 315.574 248.017 315.75 248.064 315.919C248.198 316.123 248.373 316.297 248.577 316.429C248.763 316.608 248.908 316.824 249.004 317.063C249.1 317.303 249.144 317.559 249.133 317.817C249.123 318.075 249.058 318.327 248.944 318.558C248.829 318.788 248.666 318.992 248.467 319.155C248.221 319.335 247.898 319.492 247.85 319.794C247.798 320.123 248.106 320.381 248.346 320.611C248.697 320.956 248.956 321.384 249.099 321.857C249.242 322.329 249.265 322.829 249.164 323.312C249.035 323.701 248.946 324.102 248.899 324.509C248.949 325.007 249.095 325.491 249.33 325.932C249.731 326.929 249.868 328.013 249.727 329.078C249.6 329.582 249.587 330.108 249.691 330.617C249.836 330.954 250.032 331.266 250.274 331.541C251.223 332.825 251.431 334.972 250.055 335.777C250.644 336.08 251.123 336.56 251.427 337.15C251.731 337.739 251.844 338.41 251.75 339.067C252.572 338.627 253.568 339.189 254.253 339.823C254.937 340.457 255.636 341.232 256.567 341.279C257.215 341.311 257.899 340.974 258.491 341.242C259.391 341.649 259.36 343.113 260.245 343.552C261.021 343.937 262.103 343.309 262.764 343.869C262.995 344.064 263.112 344.366 263.334 344.57C263.836 345.032 264.62 344.835 265.301 344.808C266.108 344.831 266.894 345.065 267.583 345.487C268.272 345.909 268.839 346.504 269.228 347.213C269.988 348.642 270.446 350.212 270.574 351.826C270.748 352.703 270.731 353.608 270.524 354.478C270.412 354.91 270.176 355.301 269.845 355.6C269.514 355.899 269.103 356.094 268.662 356.16C260.562 356.686 252.57 354.738 244.684 352.812C242.368 352.246 240.012 351.584 238.08 350.183C236.325 348.909 235.034 347.108 233.775 345.34C231.454 342.08 229.118 338.794 227.457 335.151C225.32 330.462 224.366 325.332 223.432 320.262C223.11 318.903 222.996 317.502 223.092 316.109C223.373 314.478 223.994 312.926 224.915 311.554C226.03 309.735 227.263 307.992 228.605 306.336C230.646 303.714 233.578 301.939 236.841 301.347Z" fill="black"/>
<path d="M237.375 300.812C240.457 300.372 243.598 300.625 246.571 301.553C247.564 301.78 248.46 302.313 249.134 303.078C249.518 303.657 249.767 304.315 249.865 305.003C250.471 308.169 250.082 311.446 248.752 314.381C248.657 314.527 248.594 314.693 248.567 314.865C248.541 315.038 248.551 315.215 248.598 315.383C248.732 315.587 248.907 315.761 249.111 315.894C249.297 316.072 249.442 316.288 249.538 316.528C249.634 316.767 249.678 317.024 249.668 317.281C249.657 317.539 249.592 317.791 249.478 318.022C249.363 318.253 249.201 318.456 249.001 318.619C248.755 318.799 248.432 318.956 248.384 319.258C248.332 319.587 248.64 319.845 248.88 320.075C249.231 320.42 249.49 320.849 249.633 321.321C249.777 321.793 249.799 322.294 249.698 322.776C249.569 323.165 249.48 323.566 249.433 323.974C249.483 324.472 249.629 324.955 249.864 325.397C250.265 326.393 250.402 327.477 250.262 328.543C250.134 329.046 250.122 329.573 250.225 330.082C250.37 330.418 250.567 330.73 250.808 331.006C251.757 332.289 251.965 334.436 250.589 335.241C251.178 335.544 251.658 336.024 251.962 336.614C252.266 337.204 252.378 337.874 252.284 338.531C253.106 338.091 254.102 338.654 254.787 339.288C255.471 339.921 256.171 340.696 257.101 340.743C257.749 340.776 258.433 340.438 259.025 340.706C259.925 341.113 259.894 342.577 260.779 343.016C261.556 343.401 262.637 342.773 263.298 343.333C263.529 343.529 263.646 343.83 263.868 344.035C264.37 344.496 265.155 344.3 265.835 344.273C266.642 344.295 267.428 344.529 268.117 344.951C268.806 345.373 269.373 345.968 269.762 346.678C270.522 348.106 270.98 349.676 271.108 351.291C271.282 352.168 271.265 353.072 271.058 353.942C270.946 354.375 270.71 354.765 270.379 355.064C270.048 355.364 269.637 355.558 269.196 355.625C261.096 356.151 253.104 354.202 245.218 352.276C242.902 351.711 240.546 351.048 238.614 349.647C236.859 348.374 235.568 346.573 234.309 344.804C231.988 341.544 229.653 338.259 227.992 334.615C225.854 329.926 224.901 324.797 223.966 319.726C223.644 318.367 223.53 316.967 223.627 315.573C223.907 313.943 224.528 312.391 225.45 311.019C226.564 309.2 227.797 307.456 229.14 305.8C231.181 303.179 234.112 301.403 237.375 300.812Z" fill="#162E8F"/>
</g>
<defs>
<clipPath id="clip0">
<rect width="709.459" height="450" fill="white"/>
</clipPath>
</defs>
</svg>
