<svg width="593" height="439" viewBox="0 0 593 439" fill="none" xmlns="http://www.w3.org/2000/svg">
<g clip-path="url(#clip0)">
<path opacity="0.1" d="M554.496 279.345C534.494 304.826 542.277 342.058 554.973 371.872C559.22 381.853 564.033 392.418 562.238 403.119C560.044 416.211 548.402 425.784 536.177 430.861C513.892 440.11 487.219 437.902 466.758 425.123C449.062 414.08 436.385 396.113 418.389 385.577C388.268 367.935 349.923 374.598 317.202 386.758C294.059 395.357 268.762 406.537 245.766 397.553C229.588 391.232 218.404 375.838 212.309 359.524C209.368 351.65 207.232 343.121 201.614 336.876C198.273 333.163 193.913 330.531 189.448 328.312C148.674 308.025 97.1745 318.868 57.5705 296.391C30.8208 281.198 13.7015 252.536 6.11838 222.652C-1.46473 192.768 -0.588171 161.408 1.33555 130.633C2.70627 108.758 5.15946 85.4083 19.0903 68.5274C33.7976 50.6666 59.0942 44.0263 81.973 47.4202C104.852 50.8141 125.548 62.9141 143.779 77.1626C166.558 94.9703 187.689 117.146 215.657 124.382C234.729 129.275 254.731 126.584 274.386 125.651C307.231 124.093 340.087 127.558 372.743 131.341C404.011 134.965 435.502 138.961 465.293 149.167C486.372 156.391 503.274 169.5 523.176 178.679C536.147 184.646 550.296 186.299 562.591 193.901C577.722 203.268 591.594 219.559 587.717 238.624C584.029 256.733 565.097 265.822 554.496 279.345Z" fill="#162E8F"/>
<path opacity="0.1" d="M124.689 439C192.99 439 248.36 430.541 248.36 420.106C248.36 409.672 192.99 401.213 124.689 401.213C56.3872 401.213 1.01775 409.672 1.01775 420.106C1.01775 430.541 56.3872 439 124.689 439Z" fill="#162E8F"/>
<path d="M522.04 58.7175C538.201 58.7175 551.302 45.5731 551.302 29.3587C551.302 13.1444 538.201 0 522.04 0C505.879 0 492.778 13.1444 492.778 29.3587C492.778 45.5731 505.879 58.7175 522.04 58.7175Z" fill="#FFDF9C"/>
<path d="M67.8479 303.456C67.8479 303.456 70.8894 307.446 66.4478 313.49C62.0061 319.535 58.3411 324.563 59.8177 328.323C59.8177 328.323 66.5184 317.144 71.9777 316.985C77.4371 316.825 73.8485 310.179 67.8479 303.456Z" fill="#162E8F"/>
<path opacity="0.1" d="M67.8479 303.456C68.1139 303.842 68.3239 304.263 68.4715 304.708C73.7661 310.982 76.6311 316.837 71.513 316.985C66.7478 317.12 61.0296 325.673 59.6589 327.833C59.7046 328 59.7596 328.163 59.8236 328.323C59.8236 328.323 66.5242 317.144 71.9836 316.985C77.443 316.825 73.8485 310.179 67.8479 303.456Z" fill="black"/>
<path d="M73.4955 308.538C73.4955 309.943 73.3367 311.082 73.1426 311.082C72.9484 311.082 72.7896 309.943 72.7896 308.538C72.7896 307.134 72.9837 307.795 73.1779 307.795C73.372 307.795 73.4955 307.134 73.4955 308.538Z" fill="#FFD037"/>
<path d="M75.4369 310.215C74.2074 310.888 73.1367 311.295 73.0426 311.124C72.9484 310.952 73.8721 310.268 75.1016 309.601C76.3311 308.934 75.8428 309.418 75.937 309.601C76.0311 309.784 76.6664 309.542 75.4369 310.215Z" fill="#FFD037"/>
<path d="M51.7698 303.456C51.7698 303.456 48.7284 307.446 53.17 313.49C57.6116 319.535 61.3002 324.563 59.8177 328.323C59.8177 328.323 53.117 317.144 47.6577 316.985C42.1983 316.825 45.7928 310.179 51.7698 303.456Z" fill="#162E8F"/>
<path opacity="0.1" d="M51.7698 303.456C51.5039 303.842 51.2939 304.263 51.1463 304.708C45.8516 310.982 42.9866 316.837 48.1048 316.985C52.87 317.12 58.5882 325.673 59.9589 327.833C59.9131 328 59.8581 328.163 59.7942 328.323C59.7942 328.323 53.117 317.138 47.6518 316.985C42.1865 316.831 45.7928 310.179 51.7698 303.456Z" fill="black"/>
<path d="M46.1399 308.538C46.1399 309.943 46.2987 311.082 46.4928 311.082C46.687 311.082 46.8458 309.943 46.8458 308.538C46.8458 307.134 46.6517 307.795 46.4575 307.795C46.2634 307.795 46.1399 307.134 46.1399 308.538Z" fill="#FFD037"/>
<path d="M44.2044 310.215C45.4339 310.888 46.5046 311.295 46.5987 311.124C46.6929 310.952 45.7692 310.268 44.5397 309.601C43.3102 308.934 43.7985 309.418 43.7043 309.601C43.6102 309.784 42.9454 309.542 44.2044 310.215Z" fill="#FFD037"/>
<path d="M47.1106 327.798C47.1106 327.798 55.6114 327.538 58.1705 325.703C60.7296 323.867 71.2424 321.689 71.8777 324.622C72.5131 327.556 84.6496 339.219 75.0545 339.296C65.4594 339.373 52.7641 337.797 50.205 336.233C47.6459 334.668 47.1106 327.798 47.1106 327.798Z" fill="#A8A8A8"/>
<path opacity="0.2" d="M75.2251 338.281C65.63 338.357 52.9347 336.781 50.3756 335.217C48.4283 334.037 47.6518 329.758 47.3929 327.786H47.1106C47.1106 327.786 47.6459 334.663 50.205 336.227C52.7641 337.791 65.4594 339.367 75.0545 339.29C77.8254 339.29 78.7784 338.281 78.7255 336.817C78.3431 337.708 77.2841 338.263 75.2251 338.281Z" fill="black"/>
<path d="M352.453 68.185H236.188V107.542H352.453V68.185Z" fill="#E2E7F0"/>
<path opacity="0.4" d="M273.998 69.696H244.436V105.919H273.998V69.696Z" fill="white"/>
<path d="M268.032 80.5329H250.69V94.5099H268.032V80.5329Z" fill="#D8E2F0"/>
<path opacity="0.4" d="M309.813 69.696H280.251V105.919H309.813V69.696Z" fill="white"/>
<path d="M303.848 80.5329H286.505V94.5099H303.848V80.5329Z" fill="#D8E2F0"/>
<path opacity="0.4" d="M345.628 69.696H316.067V105.919H345.628V69.696Z" fill="white"/>
<path d="M339.663 80.5329H322.32V94.5099H339.663V80.5329Z" fill="#D8E2F0"/>
<path opacity="0.1" d="M352.458 68.185V71.1362H236.847H236.194V68.185H352.458Z" fill="black"/>
<path d="M346.899 45.4842L331.421 33.5082H256.284L242.012 45.378H242.089C237.541 47.6032 227.787 51.2804 216.28 48.9608C216.28 48.9608 216.869 69.5013 236.871 69.5013H353.212C353.212 69.5013 369.931 70.2568 372.372 48.9608C363.724 50.2146 354.899 49.0101 346.899 45.4842Z" fill="#162E8F"/>
<path d="M378.655 148.588H214.345V204.213H378.655V148.588Z" fill="#E2E7F0"/>
<path opacity="0.4" d="M267.774 146.168H225.993V197.36H267.774V146.168Z" fill="white"/>
<path d="M259.337 161.485H234.829V181.234H259.337V161.485Z" fill="#D8E2F0"/>
<path opacity="0.4" d="M318.39 146.168H276.61V197.36H318.39V146.168Z" fill="white"/>
<path d="M309.96 161.485H285.452V181.234H309.96V161.485Z" fill="#D8E2F0"/>
<path opacity="0.4" d="M369.013 146.168H327.232V197.36H369.013V146.168Z" fill="white"/>
<path d="M360.577 161.485H336.069V181.234H360.577V161.485Z" fill="#D8E2F0"/>
<path d="M398.334 265.474H198.673V335.607H398.334V265.474Z" fill="#162E8F"/>
<path d="M398.334 265.474H198.673V335.607H398.334V265.474Z" fill="#E2E7F0"/>
<path d="M279.822 265.474H219.563V333.996H279.822V265.474Z" fill="#D8E2F0"/>
<path opacity="0.4" d="M267.774 265.474H231.617V333.996H267.774V265.474Z" fill="white"/>
<path d="M257.731 275.555H239.653V324.327H257.731V275.555Z" fill="#D8E2F0"/>
<path d="M376.643 265.474H316.384V333.996H376.643V265.474Z" fill="#D8E2F0"/>
<path opacity="0.4" d="M364.595 265.474H328.438V333.996H364.595V265.474Z" fill="white"/>
<path d="M354.547 275.555H336.469V324.327H354.547V275.555Z" fill="#D8E2F0"/>
<path d="M424.048 332.384V265.48C429.343 265.392 459.463 263.048 464.222 221.542C464.222 221.542 438.155 226.701 409.788 214.129L376.643 188.489H215.951L185.418 213.869H185.583C175.859 218.626 154.992 226.465 130.383 221.542C130.383 221.542 131.513 262.535 170.158 265.321V332.384H424.048ZM170.158 332.384H424.048H170.158ZM409.988 332.384H184.212H409.988ZM184.212 332.384V265.474H409.988V332.384" fill="#162E8F"/>
<path opacity="0.1" d="M378.655 148.588H214.345V155.73H378.655V148.588Z" fill="black"/>
<path d="M374.484 117.789L352.241 99.645H236.123L215.727 117.612H215.845C208.962 120.982 194.208 126.525 176.788 123.031C176.788 123.031 177.641 154.119 207.915 154.119H384.009C384.009 154.119 409.305 155.258 413.006 123.031C412.982 123.031 394.557 126.684 374.484 117.789Z" fill="#162E8F"/>
<path opacity="0.1" d="M398.134 265.273H198.473V267.31H398.134V265.273Z" fill="black"/>
<path opacity="0.1" d="M185.618 214.087H409.788C409.788 214.087 312.972 222.245 185.618 214.087Z" fill="black"/>
<path opacity="0.1" d="M214.139 117.346H374.437C374.437 117.346 305.207 125.51 214.139 117.346Z" fill="black"/>
<path opacity="0.1" d="M241.859 45.2009H347.093C347.093 45.2009 301.659 53.364 241.859 45.2009Z" fill="black"/>
<path d="M593 331.8H34.2916V346.916H593V331.8Z" fill="#D8E2F0"/>
<path d="M77.9607 205.063L81.7081 215.758L78.8314 233.713C78.8314 233.713 74.4839 248.038 74.9192 254.962C75.3545 261.885 74.9192 271.459 74.9192 271.459C74.9192 271.459 64.4829 290.56 73.1543 298.374C75.1722 300.186 76.8664 299.826 78.2725 298.197C79.6863 298.984 81.1415 299.693 82.6317 300.322L75.331 328.766L68.3774 342.66C68.3774 342.66 53.6171 355.256 47.9636 381.746C47.9636 381.746 42.3277 399.389 38.7333 404.654C38.5695 404.901 38.3907 405.137 38.1979 405.362C37.635 404.464 37.1205 403.536 36.6566 402.582L30.1383 419.947C30.1383 419.947 43.1808 427.325 52.3111 430.365C61.4414 433.405 71.8777 429.928 74.9192 426.026C77.9607 422.125 68.8304 417.763 62.3121 415.172C59.147 413.909 57.4233 410.91 56.4762 408.154C56.3938 407.304 56.3232 406.348 56.2938 405.315C56.1526 400.386 56.8821 393.734 61.0002 388.688C68.4009 379.574 79.702 357.027 79.702 357.027C79.702 357.027 91.0031 344.874 93.6152 340.099L109.27 313.88C117.953 323.725 126.654 346.993 126.654 346.993L130.131 368.242C130.131 368.242 141.432 398.627 144.914 401.667C145.014 401.75 145.109 401.85 145.203 401.945L145.291 402.039L145.497 402.281L145.579 402.387C145.667 402.499 145.762 402.623 145.85 402.747L145.914 402.842L146.126 403.16L146.226 403.32L146.409 403.633L146.497 403.78L146.744 404.241L146.832 404.412L147.003 404.754L147.103 404.955L147.279 405.333L147.35 405.492L147.579 406.023L147.668 406.23L147.821 406.613L147.903 406.826L148.097 407.328L148.144 407.451L148.344 408L148.415 408.207L148.568 408.644L148.632 408.827L148.832 409.417V409.5L149.003 410.043L149.062 410.226L149.215 410.721L149.25 410.845L149.432 411.436L149.468 411.56L149.603 412.044L149.65 412.221L149.774 412.681L149.809 412.811L149.95 413.33L150.015 413.584L150.08 413.838L150.156 414.145V414.227C150.256 414.629 150.35 415.007 150.433 415.349L150.533 415.786L150.58 415.992V416.045C149.941 415.621 149.334 415.152 148.762 414.641C149.015 417.529 149.015 420.435 148.762 423.323C148.326 427.661 152.674 433.741 152.674 433.741C152.674 433.741 191.801 424.191 193.972 417.68C196.143 411.17 187.019 412.038 184.407 412.905C181.794 413.773 168.84 411.264 167.075 408.225C166.745 407.663 166.35 407.142 165.899 406.672C165.524 406.262 165.023 405.989 164.476 405.898C163.929 405.807 163.367 405.903 162.881 406.171L162.781 406.064L162.663 405.929L162.587 405.834L162.446 405.651C162.351 405.521 162.257 405.38 162.157 405.232L162.051 405.073C161.879 404.797 161.702 404.5 161.522 404.182L161.487 404.122C158.71 399.04 155.727 388.676 155.015 386.209V386.155L154.957 385.955V385.878V385.825V385.725V385.677L144.956 353.12C147.997 341.397 144.956 335.755 144.956 335.755L139.302 309.276L136.113 297.282C136.214 297.182 136.261 297.117 136.261 297.117C133.66 289.822 131.619 274.345 130.378 262.387C130.295 261.6 130.217 260.841 130.142 260.109L139.767 264.559C139.767 264.559 152.809 284.527 161.069 274.977C169.329 265.427 144.55 257.175 144.55 257.175L128.836 246.757L128.801 246.303L127.036 233.282C127.036 233.282 122.253 217.653 124.43 207.235C126.283 198.381 120.247 195.158 118.418 194.403C118.131 194.293 117.836 194.206 117.535 194.143C115.153 193.553 112.494 191.145 110.234 188.536C108.309 186.297 106.051 184.37 103.54 182.822C105.006 181.846 106.028 180.326 106.381 178.596C106.746 176.595 106.058 174.606 105.446 172.641C106.331 170.466 107.359 168.352 108.523 166.313H108.593C108.774 166.002 108.95 165.709 109.123 165.434C113.712 164.906 117.949 162.704 121.025 159.247C124.102 155.789 125.803 151.317 125.807 146.682C125.808 143.494 124.998 140.36 123.453 137.574C125.401 136.895 127.271 136.039 126.566 134.033C126.089 132.675 124.801 131.79 123.83 130.745C121.212 127.983 120.412 123.833 117.67 121.189C116.878 120.435 115.96 119.826 114.958 119.389C112.176 117.807 108.611 117.618 105.393 118.208C101.41 118.94 97.6979 120.699 93.8152 121.832C90.3972 122.824 86.8204 123.337 83.5436 124.736C77.9548 127.097 73.6544 131.973 71.0718 137.468C68.7892 142.326 67.7302 147.703 65.2359 152.454C62.7415 157.206 58.1764 161.485 52.7935 161.308C51.4051 161.261 49.9697 160.924 48.6754 161.408C47.6556 161.854 46.8116 162.626 46.2752 163.604C43.3337 168.42 45.2221 174.907 42.8807 180.042C41.1158 183.861 37.3802 186.275 34.2975 189.138C31.2149 192.001 28.5675 196.268 30.0206 200.211C30.4349 201.202 31.0423 202.099 31.807 202.851C32.5717 203.603 33.4785 204.195 34.474 204.59C35.4917 205.149 36.5889 205.547 37.7273 205.771C40.6687 206.361 43.6632 206.007 46.634 205.771C54.676 205.181 63.4651 205.505 69.8481 200.594C72.4778 198.57 74.5015 195.778 76.6076 193.14C76.6296 197.151 77.0832 201.149 77.9607 205.063ZM89.5383 232.361C90.1913 233.442 90.8561 234.516 91.5444 235.578C97.9332 245.424 89.2677 258.893 89.2677 258.893C87.2917 260.519 85.5928 262.456 84.2378 264.63C84.3495 260.498 84.8261 255.776 86.2262 252.383C88.3852 247.129 89.2324 237.491 89.5383 232.361Z" fill="url(#paint0_linear)"/>
<path d="M83.0023 213.491L79.6079 234.693C79.6079 234.693 75.3604 248.688 75.784 255.47C76.2076 262.251 75.784 271.583 75.784 271.583C75.784 271.583 65.5947 290.241 74.0838 297.873C82.5729 305.505 85.1261 273.702 85.1261 273.702C85.1261 273.702 83.8495 260.127 86.8262 252.926C89.803 245.725 90.2207 230.03 90.2207 230.03L83.0023 213.491Z" fill="#FFCDD3"/>
<path opacity="0.05" d="M83.0023 213.491L79.6079 234.693C79.6079 234.693 75.3604 248.688 75.784 255.47C76.2076 262.251 75.784 271.583 75.784 271.583C75.784 271.583 65.5947 290.241 74.0838 297.873C82.5729 305.505 85.1261 273.702 85.1261 273.702C85.1261 273.702 83.8495 260.127 86.8262 252.926C89.803 245.725 90.2207 230.03 90.2207 230.03L83.0023 213.491Z" fill="black"/>
<path d="M132.754 286.398L138.637 308.473L144.132 334.338C144.132 334.338 147.103 339.851 144.132 351.296L153.898 383.098C153.898 383.098 159.416 403.45 162.816 403.875C166.217 404.3 159.422 419.988 159.422 419.988L150.08 414.475C150.08 414.475 147.544 401.756 144.132 398.787C140.72 395.818 129.695 366.14 129.695 366.14L126.301 345.364C126.301 345.364 115.711 316.955 106.346 310.173C96.9802 303.391 94.0329 292.366 94.0329 292.366L132.754 286.398Z" fill="#FFCDD3"/>
<path opacity="0.05" d="M94.0387 292.36C94.0387 292.36 97.0096 303.385 106.352 310.167C115.694 316.949 126.307 345.358 126.307 345.358L129.701 366.134C129.701 366.134 140.743 395.818 144.138 398.781C146.632 400.959 148.668 408.396 149.574 412.191C149.903 413.566 150.085 414.469 150.085 414.469L159.428 419.988C159.428 419.988 166.222 404.3 162.822 403.875C162.293 403.81 161.716 403.284 161.116 402.393C157.845 397.636 153.903 383.098 153.903 383.098L144.132 351.296C147.103 339.845 144.132 334.338 144.132 334.338L138.614 308.473L132.731 286.398L94.0387 292.36Z" fill="black"/>
<path d="M39.6863 402.6L43.0807 410.657L58.3764 408.963C57.9051 406.773 57.6431 404.544 57.5939 402.305C57.4586 397.494 58.1822 390.995 62.1944 386.067C69.4128 377.16 80.4315 355.115 80.4315 355.115C80.4315 355.115 91.4738 343.245 94.0211 338.588L115.306 302.972L114.635 299.773L120.365 294.461H84.7143L76.2193 327.515L69.4186 341.09C69.4186 341.09 54.9819 353.385 49.4637 379.25C49.4637 379.25 43.9573 396.479 40.4511 401.626C40.2293 401.975 39.9731 402.302 39.6863 402.6Z" fill="#FFCDD3"/>
<path opacity="0.1" d="M149.58 412.197C149.909 413.572 150.091 414.475 150.091 414.475L159.428 419.988C159.428 419.988 166.222 404.3 162.822 403.875C162.293 403.81 161.716 403.284 161.116 402.393C160.671 402.654 160.324 403.053 160.127 403.531C159.931 404.009 159.896 404.538 160.028 405.037C160.161 405.671 160.387 406.282 160.698 406.849C161.975 408.968 156.451 412.362 156.451 412.362C154.604 414.741 151.58 413.484 149.58 412.197Z" fill="black"/>
<path d="M160.463 405.876C160.35 405.348 160.412 404.798 160.64 404.309C160.868 403.82 161.248 403.419 161.724 403.168C162.2 402.916 162.745 402.828 163.276 402.916C163.806 403.004 164.294 403.264 164.663 403.656C165.101 404.116 165.484 404.625 165.805 405.173C167.505 408.124 180.241 410.686 182.789 409.836C185.336 408.986 194.255 408.142 192.131 414.499C190.007 420.856 151.78 430.164 151.78 430.164C151.78 430.164 147.532 424.226 147.956 419.988C148.203 417.166 148.203 414.328 147.956 411.506C147.956 411.506 153.904 417.019 156.874 413.2C156.874 413.2 162.393 409.807 161.122 407.688C160.814 407.119 160.592 406.509 160.463 405.876Z" fill="#DCE6F2"/>
<path opacity="0.1" d="M39.6863 402.6L43.0807 410.657L58.3764 408.963C57.9052 406.773 57.6432 404.544 57.5939 402.305C57.4428 402 57.2202 401.737 56.9454 401.538C56.6705 401.339 56.3516 401.21 56.016 401.161C55.6804 401.113 55.3382 401.147 55.0187 401.261C54.6992 401.375 54.412 401.565 54.1818 401.815C53.3935 402.665 52.5934 403.585 52.0052 404.294C50.305 406.413 44.7868 405.144 44.7868 405.144C43.3572 405.616 41.6571 403.556 40.4452 401.655C40.2237 401.994 39.9695 402.311 39.6863 402.6Z" fill="black"/>
<path d="M53.7583 402.665C54.0125 402.395 54.3335 402.198 54.6886 402.093C55.0436 401.989 55.4199 401.981 55.779 402.071C56.138 402.16 56.467 402.344 56.7321 402.603C56.9973 402.861 57.1891 403.186 57.288 403.544C58.0587 406.56 59.753 410.456 63.4475 411.931C69.8187 414.475 78.7431 418.713 75.7605 422.556C72.7778 426.398 62.5944 429.763 53.6818 426.794C44.7691 423.825 32.0267 416.618 32.0267 416.618L38.3979 399.66C38.3979 399.66 41.81 406.843 44.3573 406.017C44.3573 406.017 49.8755 407.292 51.5757 405.167C52.1699 404.406 52.9464 403.515 53.7583 402.665Z" fill="#DCE6F2"/>
<path d="M111.452 164.306C111.452 164.306 101.263 178.301 103.804 188.052C106.346 197.803 83.42 181.689 83.42 181.689C83.42 181.689 95.3095 171.065 93.1857 153.705L111.452 164.306Z" fill="#FFCDD3"/>
<path d="M77.9077 297.023C94.8918 307.198 115.276 302.961 115.276 302.961L114.853 300.009L115.735 300.092C131.966 301.526 135.661 296.615 135.661 296.615C133.119 289.485 131.131 274.375 129.889 262.694C129.713 261.018 129.548 259.406 129.401 257.901C129.066 254.496 128.813 251.633 128.654 249.691C128.513 247.985 128.442 247.005 128.442 247.005L126.736 234.256C126.736 234.256 122.065 218.992 124.189 208.817C125.995 200.152 120.106 197.012 118.306 196.28C118.025 196.172 117.736 196.087 117.441 196.026C115.088 195.477 112.517 193.075 110.311 190.549C107.094 186.869 102.993 184.076 98.398 182.433C96.2625 181.659 94.4505 180.833 94.4505 180.833C91.4797 177.439 83.4083 179.558 83.4083 179.558C73.6426 185.921 78.7372 206.709 78.7372 206.709L82.7965 218.296C85.1317 224.717 88.2225 230.836 92.0032 236.523C98.245 246.138 89.7795 259.294 89.7795 259.294C76.6311 269.883 77.9077 297.023 77.9077 297.023Z" fill="#FF748E"/>
<path opacity="0.05" d="M114.211 277.309L115.729 300.08C131.96 301.514 135.655 296.604 135.655 296.604C133.113 289.473 131.125 274.363 129.883 262.682C129.707 261.006 129.542 259.395 129.395 257.889L114.211 277.309Z" fill="black"/>
<path opacity="0.1" d="M87.2498 217.729C87.2498 217.729 94.8976 232.143 97.4391 238.506C99.9805 244.869 99.9864 242.744 101.263 244.869C102.54 246.994 116.123 256.319 116.123 256.319L129.883 262.682C129.295 257.205 128.883 252.477 128.648 249.697L115.706 241.073C115.706 241.073 106.787 235.561 106.363 228.354C105.94 221.147 100.416 208.002 100.416 208.002C100.416 208.002 89.3677 196.109 84.7143 201.621C80.0609 207.134 87.2498 217.729 87.2498 217.729Z" fill="black"/>
<path d="M100.41 205.86C100.41 205.86 105.928 219.004 106.358 226.211C106.787 233.418 115.7 238.931 115.7 238.931L143.726 257.588C143.726 257.588 167.928 265.645 159.863 274.971C151.797 284.297 139.055 264.795 139.055 264.795L116.112 254.171C116.112 254.171 102.522 244.845 101.251 242.72C99.9805 240.595 99.9746 242.72 97.4273 236.357C94.88 229.995 87.2381 215.581 87.2381 215.581C87.2381 215.581 80.0197 204.956 84.6908 199.467C89.3618 193.978 100.41 205.86 100.41 205.86Z" fill="#FFCDD3"/>
<path opacity="0.1" d="M103.81 211.372C103.81 211.372 95.3036 205.015 93.6152 202.891C92.868 201.952 91.7032 202.094 90.6384 202.542C88.6468 203.387 86.4814 203.738 84.326 203.563C82.467 203.404 80.6609 203.51 80.8786 204.573C81.3022 206.692 79.602 193.547 79.602 193.547L86.8204 191.003L96.1625 196.091L103.81 211.372Z" fill="black"/>
<path d="M103.81 210.522C103.81 210.522 95.3036 204.154 93.6152 202.046C92.868 201.108 91.7032 201.25 90.6384 201.698C88.6501 202.548 86.4867 202.905 84.3319 202.737C82.4729 202.578 80.6668 202.684 80.8845 203.746C81.3081 205.865 79.6079 192.721 79.6079 192.721L86.8263 190.177L96.1684 195.265L103.81 210.522Z" fill="#FF748E"/>
<path opacity="0.1" d="M123.806 211.372C122.273 212.044 120.601 212.336 118.932 212.225C117.262 212.115 115.643 211.603 114.211 210.735" fill="black"/>
<path opacity="0.1" d="M95.9507 154.768C96.2684 152.236 93.1269 157.495 92.768 154.555L111.005 165.18C111.005 165.18 109.964 166.614 108.652 168.875C107.96 168.953 107.265 168.992 106.569 168.993C101.075 168.969 99.3334 158.569 95.9507 154.768Z" fill="black"/>
<path d="M106.993 168.125C117.195 168.125 125.465 159.867 125.465 149.68C125.465 139.493 117.195 131.235 106.993 131.235C96.7909 131.235 88.5205 139.493 88.5205 149.68C88.5205 159.867 96.7909 168.125 106.993 168.125Z" fill="#FFCDD3"/>
<path opacity="0.1" d="M115.306 149.999C115.164 151.179 115.194 152.36 114.641 153.41C113.87 154.851 112.205 155.506 110.811 156.362C105.169 159.832 103.493 167.641 105.293 174.01C105.928 176.265 106.934 178.549 106.516 180.857C105.799 184.817 101.281 186.871 97.2685 187.22C93.2563 187.568 89.0324 186.924 85.2967 188.4C78.9608 190.844 76.184 198.251 70.8247 202.383C64.5888 207.182 55.9997 206.886 48.1518 207.441C45.2457 207.648 42.3042 207.996 39.451 207.441C36.5977 206.886 33.7857 205.145 32.7738 202.418C31.3502 198.57 33.9504 194.397 36.9507 191.605C39.951 188.813 43.6279 186.458 45.3339 182.751C47.6224 177.734 45.7751 171.401 48.6519 166.697C49.1784 165.741 50.006 164.987 51.0051 164.554C52.2758 164.076 53.6818 164.407 55.0349 164.454C60.2766 164.637 64.7535 160.458 67.189 155.819C69.6246 151.179 70.66 145.926 72.8896 141.181C75.4075 135.809 79.6079 131.076 85.0732 128.744C88.2735 127.381 91.7621 126.879 95.1036 125.905C98.8981 124.801 102.522 123.084 106.411 122.364C110.299 121.643 114.706 122.122 117.547 124.866C120.224 127.451 121.006 131.5 123.559 134.204C124.524 135.225 125.765 136.087 126.23 137.415C127.33 140.555 121.983 140.82 120.2 142.078C118.887 142.992 117.776 144.166 116.934 145.529C116.092 146.891 115.538 148.413 115.306 149.999Z" fill="black"/>
<path d="M114.429 149.58C114.288 150.76 114.317 151.941 113.764 152.991C112.994 154.431 111.329 155.087 109.934 155.943C104.293 159.413 102.616 167.222 104.416 173.591C105.052 175.846 106.058 178.13 105.64 180.438C104.922 184.398 100.404 186.452 96.3919 186.8C92.3798 187.149 88.1558 186.505 84.4201 187.981C78.1136 190.436 75.3369 197.82 69.9775 201.952C63.7416 206.751 55.1525 206.456 47.3047 207.01C44.3985 207.217 41.4571 207.565 38.6038 207.01C35.7506 206.456 32.9386 204.714 31.9267 201.987C30.503 198.139 33.1033 193.966 36.1036 191.174C39.1039 188.382 42.7807 186.027 44.4868 182.321C46.7752 177.303 44.928 170.97 47.8047 166.266C48.3312 165.31 49.1588 164.557 50.1579 164.123C51.4286 163.645 52.8347 163.976 54.1877 164.023C59.4294 164.206 63.9063 160.027 66.3419 155.388C68.7774 150.748 69.8128 145.495 72.0425 140.75C74.5604 135.378 78.7608 130.645 84.226 128.313C87.4263 126.95 90.9149 126.448 94.2564 125.474C98.0509 124.37 101.675 122.653 105.563 121.933C109.452 121.213 113.858 121.691 116.7 124.435C119.377 127.021 120.159 131.07 122.712 133.773C123.677 134.794 124.918 135.656 125.383 136.984C126.483 140.124 121.136 140.39 119.353 141.647C118.033 142.559 116.915 143.734 116.068 145.099C115.221 146.464 114.663 147.989 114.429 149.58Z" fill="#2D283D"/>
</g>
<defs>
<linearGradient id="paint0_linear" x1="111.988" y1="433.841" x2="111.988" y2="117.878" gradientUnits="userSpaceOnUse">
<stop stop-color="#808080" stop-opacity="0.25"/>
<stop offset="0.54" stop-color="#808080" stop-opacity="0.12"/>
<stop offset="1" stop-color="#808080" stop-opacity="0.1"/>
</linearGradient>
<clipPath id="clip0">
<rect width="593" height="439" fill="white"/>
</clipPath>
</defs>
</svg>
