<svg width="27" height="27" viewBox="0 0 27 27" fill="none"
  xmlns="http://www.w3.org/2000/svg">
  <path fill-rule="evenodd" clip-rule="evenodd" d="M0.696411 2.95923C0.696411 2.38946 0.922751 1.84303 1.32564 1.44014C1.72852 1.03726 2.27496 0.810916 2.84472 0.810916H24.26C24.5424 0.810455 24.8221 0.865691 25.0831 0.973461C25.3441 1.08123 25.5812 1.23942 25.781 1.43897C25.9808 1.63852 26.1392 1.87551 26.2473 2.13638C26.3553 2.39725 26.4108 2.67687 26.4107 2.95923V24.3745C26.411 24.657 26.3556 24.9367 26.2477 25.1977C26.1398 25.4587 25.9815 25.6958 25.7819 25.8956C25.5822 26.0953 25.3452 26.2537 25.0842 26.3618C24.8233 26.4698 24.5436 26.5254 24.2612 26.5252H2.84472C2.5625 26.5252 2.28305 26.4696 2.02233 26.3616C1.76161 26.2535 1.52473 26.0952 1.32522 25.8956C1.12572 25.6959 0.9675 25.459 0.859606 25.1982C0.751712 24.9374 0.696258 24.6579 0.696411 24.3757V2.95923ZM10.8746 10.6151H14.3565V12.3636C14.8591 11.3584 16.1449 10.4538 18.0769 10.4538C21.781 10.4538 22.6587 12.456 22.6587 16.1296V22.9345H18.9103V16.9665C18.9103 14.8743 18.4077 13.6938 17.1313 13.6938C15.3606 13.6938 14.6242 14.9666 14.6242 16.9665V22.9345H10.8746V10.6151ZM4.44602 22.7744H8.19563V10.4538H4.44602V22.7733V22.7744ZM8.73212 6.43533C8.73919 6.75638 8.68207 7.0756 8.56409 7.37427C8.44612 7.67294 8.26968 7.94503 8.04512 8.17459C7.82057 8.40414 7.55242 8.58653 7.25642 8.71105C6.96042 8.83557 6.64253 8.89971 6.32141 8.89971C6.00029 8.89971 5.6824 8.83557 5.3864 8.71105C5.0904 8.58653 4.82225 8.40414 4.5977 8.17459C4.37314 7.94503 4.1967 7.67294 4.07873 7.37427C3.96076 7.0756 3.90363 6.75638 3.9107 6.43533C3.92457 5.80516 4.18465 5.20548 4.63524 4.7647C5.08582 4.32393 5.69109 4.07712 6.32141 4.07712C6.95173 4.07712 7.557 4.32393 8.00758 4.7647C8.45817 5.20548 8.71825 5.80516 8.73212 6.43533V6.43533Z" fill="#F5F5F5"/>
</svg>
